<?xml version="1.0" encoding="UTF-8" standalone="no"?>
<!-- Created with Inkscape (http://www.inkscape.org/) -->

<svg
   xmlns:dc="http://purl.org/dc/elements/1.1/"
   xmlns:cc="http://creativecommons.org/ns#"
   xmlns:rdf="http://www.w3.org/1999/02/22-rdf-syntax-ns#"
   xmlns:svg="http://www.w3.org/2000/svg"
   xmlns="http://www.w3.org/2000/svg"
   xmlns:sodipodi="http://sodipodi.sourceforge.net/DTD/sodipodi-0.dtd"
   xmlns:inkscape="http://www.inkscape.org/namespaces/inkscape"
   width="35.806168mm"
   height="35.806168mm"
   viewBox="0 0 35.806168 35.806168"
   version="1.1"
   id="svg8"
   inkscape:version="0.92.1 r15371"
   sodipodi:docname="1.svg">
  <defs
     id="defs2" />
  <sodipodi:namedview
     id="base"
     pagecolor="#ffffff"
     bordercolor="#666666"
     borderopacity="1.0"
     inkscape:pageopacity="0.0"
     inkscape:pageshadow="2"
     inkscape:zoom="3.959798"
     inkscape:cx="53.112135"
     inkscape:cy="72.17704"
     inkscape:document-units="mm"
     inkscape:current-layer="layer1"
     showgrid="false"
     fit-margin-top="0"
     fit-margin-left="0"
     fit-margin-right="0"
     fit-margin-bottom="0"
     inkscape:window-width="1536"
     inkscape:window-height="793"
     inkscape:window-x="-8"
     inkscape:window-y="-8"
     inkscape:window-maximized="1" />
  <metadata
     id="metadata5">
    <rdf:RDF>
      <cc:Work
         rdf:about="">
        <dc:format>image/svg+xml</dc:format>
        <dc:type
           rdf:resource="http://purl.org/dc/dcmitype/StillImage" />
        <dc:title></dc:title>
      </cc:Work>
    </rdf:RDF>
  </metadata>
  <g
     inkscape:label="Layer 1"
     inkscape:groupmode="layer"
     id="layer1"
     transform="translate(-4.2802825,-255.04266)">
    <path
       style="fill:#ffffff;stroke-width:0.27973568;fill-opacity:1"
       d="m 11.172873,288.99148 c -0.449729,-0.44973 -0.817689,-1.07565 -0.817689,-1.39094 0,-0.31529 0.314703,-2.36736 0.699339,-4.56016 0.384637,-2.19279 0.699339,-4.33694 0.699339,-4.76477 0,-0.62729 -0.679274,-1.44094 -3.5089241,-4.2031 -2.914032,-2.84453 -3.535714,-3.59657 -3.666934,-4.43584 -0.132008,-0.84431 -0.02643,-1.1544 0.641634,-1.8845 0.768928,-0.84032 0.981479,-0.90112 5.5335731,-1.58283 2.603662,-0.38991 4.920941,-0.86364 5.149509,-1.05272 0.228568,-0.18909 1.349031,-2.24751 2.489917,-4.57427 2.092356,-4.26722 2.579835,-4.86093 3.991181,-4.86093 1.411347,0 1.898826,0.59371 3.991182,4.86093 1.140886,2.32676 2.267438,4.39024 2.50345,4.5855 0.236011,0.19526 2.55329,0.66867 5.149509,1.05203 4.545672,0.67122 4.749996,0.72939 5.520038,1.5716 0.668001,0.7306 0.773632,1.04096 0.641636,1.88519 -0.131219,0.83927 -0.7529,1.59131 -3.666932,4.43584 -2.845256,2.77739 -3.508926,3.57375 -3.508926,4.21047 0,0.43188 0.314168,2.54108 0.69815,4.6871 0.383982,2.14603 0.698685,4.19478 0.699339,4.55279 0.0017,0.95838 -1.447294,2.2863 -2.494832,2.2863 -0.53618,0 -2.363486,-0.8021 -4.846958,-2.12758 -2.192474,-1.17018 -4.301019,-2.12759 -4.685656,-2.12759 -0.384636,0 -2.493181,0.95741 -4.685655,2.12759 -4.508661,2.40637 -5.274982,2.5602 -6.52529,1.30989 z m 6.190376,-2.73088 c 2.79626,-1.48748 4.34316,-2.15132 5.020569,-2.15455 0.690404,-0.003 2.170243,0.63059 5.019105,2.14989 2.222017,1.18501 4.25217,2.15455 4.511453,2.15455 1.145317,0 1.198299,-0.63015 0.429008,-5.1024 -1.142733,-6.64323 -1.359944,-5.89611 2.908276,-10.00332 2.00011,-1.92467 3.636564,-3.70366 3.636564,-3.95333 0,-0.86592 -0.861152,-1.1524 -5.523865,-1.83759 -2.577568,-0.37878 -4.921483,-0.83998 -5.2087,-1.0249 -0.287216,-0.18491 -1.546026,-2.34608 -2.797356,-4.8026 -2.022774,-3.97095 -2.35272,-4.46639 -2.974485,-4.46639 -0.621764,0 -0.95171,0.49544 -2.974484,4.46639 -1.25133,2.45652 -2.51014,4.61769 -2.797356,4.8026 -0.287217,0.18492 -2.631132,0.64612 -5.208699,1.0249 -4.6627131,0.68519 -5.5238661,0.97167 -5.5238661,1.83759 0,0.24967 1.636454,2.02866 3.636564,3.95333 4.2763591,4.11504 4.0795441,3.42998 2.9035031,10.10627 -0.768225,4.36114 -0.713029,4.99945 0.432316,4.99945 0.258478,0 2.288631,-0.96745 4.511453,-2.14989 z"
       id="path4599"
       inkscape:connector-curvature="0" />
  </g>
</svg>
