<?xml version="1.0" encoding="UTF-8" standalone="no"?>
<!-- Created with Inkscape (http://www.inkscape.org/) -->

<svg
   xmlns:dc="http://purl.org/dc/elements/1.1/"
   xmlns:cc="http://creativecommons.org/ns#"
   xmlns:rdf="http://www.w3.org/1999/02/22-rdf-syntax-ns#"
   xmlns:svg="http://www.w3.org/2000/svg"
   xmlns="http://www.w3.org/2000/svg"
   xmlns:xlink="http://www.w3.org/1999/xlink"
   xmlns:sodipodi="http://sodipodi.sourceforge.net/DTD/sodipodi-0.dtd"
   xmlns:inkscape="http://www.inkscape.org/namespaces/inkscape"
   width="155.34822mm"
   height="147.78868mm"
   viewBox="0 0 155.34822 147.78868"
   version="1.1"
   id="svg5036"
   inkscape:version="0.92.1 r15371"
   sodipodi:docname="catalog2.svg">
  <defs
     id="defs5030">
    <linearGradient
       gradientTransform="translate(2.8348183,67.468766)"
       inkscape:collect="always"
       xlink:href="#linearGradient4502"
       id="linearGradient4504"
       x1="106.5277"
       y1="191.12502"
       x2="110.25047"
       y2="223.985"
       gradientUnits="userSpaceOnUse" />
    <linearGradient
       inkscape:collect="always"
       id="linearGradient4502">
      <stop
         style="stop-color:#f8c0ea;stop-opacity:1;"
         offset="0"
         id="stop4498" />
      <stop
         style="stop-color:#c0e6f8;stop-opacity:0.93896711"
         offset="1"
         id="stop4500" />
    </linearGradient>
  </defs>
  <sodipodi:namedview
     id="base"
     pagecolor="#ffffff"
     bordercolor="#666666"
     borderopacity="1.0"
     inkscape:pageopacity="0.0"
     inkscape:pageshadow="2"
     inkscape:zoom="0.98994949"
     inkscape:cx="264.47307"
     inkscape:cy="228.07957"
     inkscape:document-units="mm"
     inkscape:current-layer="layer1"
     showgrid="false"
     fit-margin-top="0"
     fit-margin-left="0"
     fit-margin-right="0"
     fit-margin-bottom="0"
     inkscape:window-width="1536"
     inkscape:window-height="793"
     inkscape:window-x="-8"
     inkscape:window-y="-8"
     inkscape:window-maximized="1"
     inkscape:snap-global="false" />
  <metadata
     id="metadata5033">
    <rdf:RDF>
      <cc:Work
         rdf:about="">
        <dc:format>image/svg+xml</dc:format>
        <dc:type
           rdf:resource="http://purl.org/dc/dcmitype/StillImage" />
        <dc:title></dc:title>
      </cc:Work>
    </rdf:RDF>
  </metadata>
  <g
     inkscape:label="Layer 1"
     inkscape:groupmode="layer"
     id="layer1"
     transform="translate(-26.647318,-132.39137)">
    <rect
       style="opacity:1;fill:url(#linearGradient4504);fill-opacity:1;stroke:none;stroke-width:0.15617979;stroke-miterlimit:4;stroke-dasharray:none;stroke-opacity:1"
       id="rect4485"
       width="155.34822"
       height="147.78868"
       x="26.647318"
       y="132.39137" />
    <rect
       style="opacity:1;fill:#ffd3e9;fill-opacity:1;stroke:#ffffff;stroke-width:1.69700003;stroke-miterlimit:4;stroke-dasharray:3.39400004, 1.69700001999999990;stroke-dashoffset:0;stroke-opacity:1;paint-order:fill markers stroke"
       id="rect4564"
       width="142.18739"
       height="133.36749"
       x="33.863594"
       y="139.59628"
       ry="0" />
    <text
       xml:space="preserve"
       style="font-style:normal;font-weight:normal;font-size:19.36636353px;line-height:1.25;font-family:sans-serif;letter-spacing:0px;word-spacing:0px;fill:#ffffff;fill-opacity:1;stroke:none;stroke-width:0.1351413;stroke-miterlimit:4;stroke-dasharray:none;stroke-opacity:1"
       x="64.049919"
       y="149.9575"
       id="text4508"
       transform="scale(0.87831932,1.1385381)"><tspan
         sodipodi:role="line"
         id="tspan4506"
         x="64.049919"
         y="149.9575"
         style="font-style:normal;font-variant:normal;font-weight:normal;font-stretch:normal;font-size:19.36636353px;font-family:'Book Antiqua';-inkscape-font-specification:'Book Antiqua, Normal';font-variant-ligatures:normal;font-variant-caps:normal;font-variant-numeric:normal;font-feature-settings:normal;text-align:start;writing-mode:lr-tb;text-anchor:start;fill:#ffffff;fill-opacity:1;stroke:none;stroke-width:0.1351413;stroke-miterlimit:4;stroke-dasharray:none;stroke-opacity:1">Для девочек</tspan></text>
    <g
       id="g5727"
       transform="matrix(1.1889482,0,0,1.1026432,-32.909209,-26.614825)">
      <path
         inkscape:connector-curvature="0"
         id="path5706"
         d="m 98.81009,208.21774 3.40769,-8.21854 -1.73726,-6.21402 0.13364,-3.60814 1.00226,-1.33635 1.1359,-0.20045 1.33634,0.80181 1.20272,1.46998 1.06907,1.46999 1.73726,-3.20724 1.73725,-2.20497 2.73951,-0.40091 2.73951,1.33635 1.26953,2.33861 1.87089,2.80633 1.26953,2.13815 5.0113,-1.40316 6.1472,0.0668 5.41221,1.33634 3.67496,2.53907 2.47224,3.27405 1.20271,0.20045 0.80181,1.40316 1.20271,1.20272 3.27406,2.40542 -1.80407,11.02487 -2.93997,3.74177 -7.01582,4.07586 -2.60588,1.06908 -10.55715,0.86863 9.82216,6.28083 3.00678,5.41221 1.20271,0.33409 c 0,0 1.20272,-0.93544 1.60362,-0.33409 0.4009,0.60136 1.86932,0.058 1.86932,0.058 l 2.69308,1.13392 2.22061,0.28349 0.28348,1.84263 -0.51971,4.016 -1.27567,2.22061 -1.46466,1.03943 -1.41741,2.03162 -0.8977,1.18118 V 253.58 l -1.98437,0.33073 -0.94494,-0.0472 -0.28348,0.75595 -0.94494,1.03944 -1.84264,-1.18118 -1.6064,0.0945 0.18899,1.13393 -0.47247,0.75595 c 0,0 -0.94494,0.18899 -1.32292,0.0473 -0.37797,-0.14175 -2.88206,-0.51972 -2.88206,-0.51972 h -1.27567 l -2.07887,2.3151 -2.88207,0.85045 -2.26786,-0.85045 -3.40178,-1.5119 -3.30729,0.33073 -3.54353,1.08668 -2.26786,-0.28348 -3.49628,-1.03944 -2.45684,-2.03162 -1.08668,-0.14174 c 0,0 -1.937132,-0.28348 -2.078875,-0.56697 -0.14174,-0.28348 -1.370163,-1.70089 -1.370163,-1.70089 l -1.039434,-2.78757 0.519718,-1.6064 1.984375,-1.70089 1.228419,-1.88989 0.51972,-3.35453 1.32292,-3.87426 2.92931,-4.44122 3.11831,-2.12612 4.06324,-1.93712 0.66146,-0.42523 -0.0473,-1.37016 -0.66146,-0.56697 -18.662571,-15.21354 z"
         style="fill:#e894b6;fill-opacity:1;stroke:#000000;stroke-width:0.26458332px;stroke-linecap:butt;stroke-linejoin:miter;stroke-opacity:1" />
      <path
         sodipodi:nodetypes="sssss"
         inkscape:connector-curvature="0"
         id="path5665"
         d="m 144.00944,217.3938 c 10e-6,5.27665 -4.91249,5.67881 -10.80753,5.67881 -5.89504,0 -10.67392,-4.27757 -10.67391,-9.55422 10e-6,-5.27664 4.77888,-9.5542 10.67391,-9.5542 5.89503,0 10.80753,8.15297 10.80753,13.42961 z"
         style="opacity:1;fill:#efd3df;fill-opacity:1;stroke:none;stroke-width:1.89236391;stroke-miterlimit:4;stroke-dasharray:3.78472778, 1.89236389;stroke-dashoffset:0;stroke-opacity:1;paint-order:fill markers stroke" />
      <path
         inkscape:connector-curvature="0"
         id="path5672"
         d="m 146.65476,216.96354 -2.24424,-3.6144 -0.96856,-2.59859 -0.0709,-2.43322 0.4016,-2.26786 0.63783,-1.06305 1.03944,-0.73233 0.75595,-0.23624 0.75595,0.42523 1.41741,0.85044 0.75596,1.41741 0.68508,1.79539 0.21261,1.70089 -0.14174,1.46466 -0.4961,1.72452 -0.73232,2.07887 -0.59059,0.66145 z"
         style="fill:#8f6fae;fill-opacity:1;stroke:none;stroke-width:0.26458332px;stroke-linecap:butt;stroke-linejoin:miter;stroke-opacity:1" />
      <ellipse
         ry="3.3611348"
         rx="2.2032945"
         cy="253.07108"
         cx="124.4635"
         id="path5674"
         style="opacity:1;fill:#8f6fae;fill-opacity:1;stroke:none;stroke-width:1.86558688;stroke-miterlimit:4;stroke-dasharray:3.73117373, 1.86558686;stroke-dashoffset:0;stroke-opacity:1;paint-order:fill markers stroke" />
      <ellipse
         ry="1.9175577"
         rx="1.6283433"
         cy="245.15044"
         cx="142.86403"
         id="path5676"
         style="opacity:1;fill:#8f6fae;fill-opacity:1;stroke:none;stroke-width:1.58868635;stroke-miterlimit:4;stroke-dasharray:3.17737262, 1.5886863;stroke-dashoffset:0;stroke-opacity:1;paint-order:fill markers stroke" />
      <ellipse
         style="opacity:1;fill:#8f6fae;fill-opacity:1;stroke:none;stroke-width:0.8842783;stroke-miterlimit:4;stroke-dasharray:1.76855653, 0.88427826;stroke-dashoffset:0;stroke-opacity:1;paint-order:fill markers stroke"
         id="ellipse5678"
         cx="141.71977"
         cy="240.7238"
         rx="0.96852171"
         ry="0.9988187" />
      <ellipse
         ry="0.84847957"
         rx="0.80147827"
         cy="244.73285"
         cx="139.38116"
         id="ellipse5682"
         style="opacity:1;fill:#8f6fae;fill-opacity:1;stroke:none;stroke-width:0.74140847;stroke-miterlimit:4;stroke-dasharray:1.48281683, 0.74140841;stroke-dashoffset:0;stroke-opacity:1;paint-order:fill markers stroke" />
      <ellipse
         style="opacity:1;fill:#8f6fae;fill-opacity:1;stroke:none;stroke-width:0.74140847;stroke-miterlimit:4;stroke-dasharray:1.48281683, 0.74140841;stroke-dashoffset:0;stroke-opacity:1;paint-order:fill markers stroke"
         id="ellipse5684"
         cx="146.31346"
         cy="241.35857"
         rx="0.80147827"
         ry="0.84847957" />
      <ellipse
         ry="0.96540999"
         rx="0.80147827"
         cy="246.67056"
         cx="146.46379"
         id="ellipse5686"
         style="opacity:1;fill:#8f6fae;fill-opacity:1;stroke:none;stroke-width:0.79084748;stroke-miterlimit:4;stroke-dasharray:1.58169487, 0.79084743;stroke-dashoffset:0;stroke-opacity:1;paint-order:fill markers stroke" />
      <ellipse
         style="opacity:1;fill:#8f6fae;fill-opacity:1;stroke:none;stroke-width:0.66032022;stroke-miterlimit:4;stroke-dasharray:1.32064046, 0.66032024;stroke-dashoffset:0;stroke-opacity:1;paint-order:fill markers stroke"
         id="ellipse5688"
         cx="119.67975"
         cy="254.52393"
         rx="0.96306008"
         ry="0.96334833" />
      <ellipse
         ry="1.2704539"
         rx="0.96306008"
         cy="249.04326"
         cx="120.0341"
         id="ellipse5690"
         style="opacity:1;fill:#8f6fae;fill-opacity:1;stroke:none;stroke-width:0.75830233;stroke-miterlimit:4;stroke-dasharray:1.51660469, 0.75830236;stroke-dashoffset:0;stroke-opacity:1;paint-order:fill markers stroke" />
      <ellipse
         style="opacity:1;fill:#8f6fae;fill-opacity:1;stroke:none;stroke-width:0.6904853;stroke-miterlimit:4;stroke-dasharray:1.38097064, 0.69048533;stroke-dashoffset:0;stroke-opacity:1;paint-order:fill markers stroke"
         id="ellipse5692"
         cx="123.92016"
         cy="245.8777"
         rx="1.2347305"
         ry="0.82160723" />
      <ellipse
         transform="rotate(-23.77375)"
         ry="1.2822657"
         rx="0.93943655"
         cy="278.91092"
         cx="17.285595"
         id="ellipse5694"
         style="opacity:1;fill:#8f6fae;fill-opacity:1;stroke:none;stroke-width:0.75241762;stroke-miterlimit:4;stroke-dasharray:1.50483534, 0.75241768;stroke-dashoffset:0;stroke-opacity:1;paint-order:fill markers stroke" />
      <path
         sodipodi:nodetypes="cccc"
         inkscape:connector-curvature="0"
         id="path5696"
         d="m 83.909813,210.22226 c 0.600478,-5.85126 1.396218,-11.47374 10.623965,-7.21628 -2.256455,-1.97342 -3.899621,-4.72739 -8.953529,-3.14042 -2.912675,2.84957 -2.538672,6.53992 -1.670436,10.3567 z"
         style="fill:#8f6fae;fill-opacity:1;stroke:none;stroke-width:0.26458332px;stroke-linecap:butt;stroke-linejoin:miter;stroke-opacity:1" />
      <path
         sodipodi:nodetypes="ccccccccccccccccccccccccccccccccccccccccccccccccccccsccc"
         inkscape:connector-curvature="0"
         id="path5698"
         d="m 80.697911,225.09002 0.944941,-1.70089 -0.04725,-0.94494 -0.897695,-0.75595 -1.181174,-0.0945 -0.755951,1.13392 -0.425225,1.13393 -0.14174,1.32292 0.09449,1.37016 0.519718,1.41741 1.27567,0.99219 0.897692,0.61421 1.370163,0.51972 2.787576,0.33073 1.133928,-0.33073 1.464659,-0.23624 1.937128,-0.99218 1.748139,-1.08668 2.315104,-2.12612 0.992188,-0.70871 0.755951,0.18899 2.504094,1.22842 -0.614212,2.17337 -0.661458,2.3151 -0.755952,1.6064 -1.322916,2.03162 -1.795389,1.32292 -2.740326,0.56696 -2.078869,-0.66145 -0.566965,-0.42523 -0.283482,-1.27567 0.09449,-1.55915 c 0,0 -0.04725,-0.75595 -0.283482,-0.8032 -0.236234,-0.0473 -0.992188,-0.7087 -1.133928,-0.47247 -0.14174,0.23624 -0.755952,0.75595 -0.755952,0.75595 l -0.566965,1.51191 -0.09449,0.94494 0.472469,1.98437 0.803201,1.27567 1.086681,0.75596 1.086681,0.75595 1.795388,0.42522 1.275667,-0.18899 2.834823,-0.8032 1.464657,-1.22842 1.842635,-1.88988 1.228423,-2.12611 2.456844,-6.18937 c 0,0 -8.315476,-3.1183 -8.787945,-3.73251 -0.472472,-0.61421 -1.181176,0.37797 -1.181176,0.37797 l -2.409598,1.93713 -2.504093,1.46466 c 0,0 -1.748139,0.47247 -1.937129,0.47247 -0.188986,0 -1.748139,-0.51972 -1.748139,-0.51972 l -0.944941,-0.85044 z"
         style="fill:#8f6fae;fill-opacity:1;stroke:#000000;stroke-width:0.26458332px;stroke-linecap:butt;stroke-linejoin:miter;stroke-opacity:1" />
      <path
         inkscape:connector-curvature="0"
         id="path5700"
         d="m 124.21242,226.69642 5.95313,-0.0472 4.6302,-0.66146 1.18118,2.59858 0.0945,2.17337 -1.03943,1.13393 -0.75595,1.22842 -0.75596,-0.0945 -3.77976,4.39397 -0.47247,0.14174 -0.89769,-1.46466 -0.14174,-2.78757 -0.47247,-2.50409 c 0,0 -1.41741,-1.88989 -1.65365,-2.07887 -0.23623,-0.18899 -1.84263,-1.79539 -1.84263,-1.79539 z"
         style="fill:#efd3df;fill-opacity:1;stroke:#000000;stroke-width:0.26458332px;stroke-linecap:butt;stroke-linejoin:miter;stroke-opacity:1" />
      <path
         inkscape:connector-curvature="0"
         id="path5702"
         d="m 116.98363,236.05134 -4.20499,4.06324 -1.03943,2.03162 -0.70871,3.87426 0.66146,0.14174 1.6064,-1.18118 1.41741,-1.27567 2.55134,-1.46466 1.32292,0.14175 -0.42523,-4.8192 c 0,0 0.8032,-1.22842 -1.18117,-1.5119 z"
         style="fill:#efd3df;fill-opacity:1;stroke:#000000;stroke-width:0.26458332px;stroke-linecap:butt;stroke-linejoin:miter;stroke-opacity:1" />
      <path
         inkscape:connector-curvature="0"
         id="path5704"
         d="m 114.91308,223.91982 -4.27631,-1.1359 -3.47451,-2.27179 -2.80633,-3.20723 -2.93996,-4.2095 -2.539062,-3.8754 -2.204974,-3.87541 -2.204974,-2.60588 -3.207234,-2.60588 -3.006783,-1.00226 -2.138156,0.53454 -1.269529,0.93544 -1.135896,1.80407 -0.400905,1.26953 0.133636,3.00678 0.200451,2.93997 0.868627,3.60814 2.472243,4.54358 4.476763,4.74403 3.875408,2.60588 3.87541,1.46999 5.479025,0.73499 5.07812,-0.53454 3.87541,-1.46999 z"
         style="fill:#efd3df;fill-opacity:1;stroke:#000000;stroke-width:0.26458332px;stroke-linecap:butt;stroke-linejoin:miter;stroke-opacity:1" />
      <path
         inkscape:connector-curvature="0"
         id="path5663"
         d="m 121.70293,259.02068 c -0.39134,-0.11466 -1.44703,-0.59418 -2.34599,-1.0656 l -1.63446,-0.85712 -1.44881,0.006 c -1.20728,0.005 -1.71241,0.0939 -3.02997,0.53245 -1.27665,0.42494 -1.91695,0.54185 -3.32465,0.60705 -1.04203,0.0483 -2.09929,0.007 -2.62785,-0.10336 -1.16625,-0.24279 -2.8003,-1.04837 -4.16286,-2.05227 -0.63762,-0.46977 -1.33787,-0.84882 -1.66023,-0.89867 -2.240854,-0.34657 -3.562534,-1.36162 -4.528784,-3.47813 -0.96044,-2.1038 -0.62972,-3.62782 1.07956,-4.97488 1.32982,-1.048 1.74835,-1.8423 2.178794,-4.13502 0.35412,-1.88616 1.14314,-4.17541 2.12866,-6.17612 1.76405,-3.58118 4.08272,-5.69284 7.77065,-7.07689 0.86105,-0.32315 1.76018,-0.68824 1.99807,-0.81131 0.53572,-0.27714 0.73566,-0.93793 0.389,-1.28557 -0.25956,-0.26029 -0.80933,-0.23699 -6.59278,0.27942 -1.32828,0.1186 -2.23761,0.11141 -3.374,-0.0267 -1.31647,-0.15996 -1.57698,-0.15452 -1.69433,0.0354 -0.0763,0.12344 -0.43053,1.0777 -0.78724,2.12057 -0.630844,1.84429 -1.779834,4.32685 -2.621074,5.66321 -0.22816,0.36245 -0.92651,1.17212 -1.55189,1.79925 -2.08387,2.08974 -4.61898,2.99021 -6.911875,2.45509 -1.96694,-0.45905 -3.79568,-1.92036 -4.31465,-3.44773 -0.9974,-2.93545 0.25653,-5.84548 2.10562,-4.88659 0.59472,0.30841 0.87935,1.22338 0.73995,2.37863 -0.13157,1.09037 0.22989,1.79131 1.17479,2.27812 1.01645,0.52368 2.581495,0.44465 3.794795,-0.1916 1.26837,-0.66515 1.65559,-1.00895 2.42944,-2.157 0.88144,-1.30769 2.52016,-5.50078 2.53831,-6.49495 0.0122,-0.66596 -0.0242,-0.72815 -0.62041,-1.06078 -0.9356,-0.52199 -1.83517,-0.68835 -2.41049,-0.44576 -0.26185,0.11041 -0.86816,0.54669 -1.34736,0.96952 -1.72391,1.52111 -2.603185,2.1603 -3.981325,2.8942 -3.42528,1.82406 -7.32846,1.55873 -9.59716,-0.6524 -1.11967,-1.09126 -1.47866,-1.98884 -1.47866,-3.69712 0,-1.22443 0.0585,-1.54527 0.40467,-2.21987 0.76969,-1.49991 2.02114,-1.88263 3.01952,-0.92343 0.56241,0.54034 0.58298,1.22263 0.0726,2.40844 -0.20039,0.46559 -0.33125,1.02009 -0.29081,1.23221 0.0404,0.21213 0.3897,0.66479 0.77615,1.00591 1.68685,1.48901 3.44983,1.06187 7.32316,-1.77425 2.256635,-1.65235 2.310825,-1.8067 1.02469,-2.91883 -2.67579,-2.31377 -5.14815,-6.17141 -6.28596,-9.80803 -0.95437,-3.0503 -1.22952,-7.71404 -0.5796,-9.82416 0.55542,-1.8033 1.7509,-2.81728 3.62454,-3.07423 2.37308,-0.32546 4.395395,0.47217 6.648365,2.6222 1.55217,1.48127 2.5101,2.63027 3.7829,4.53748 1.10647,1.65797 1.27809,1.62739 2.05365,-0.36592 0.32234,-0.82849 0.823384,-1.97014 1.113414,-2.537 1.05899,-2.06975 1.12165,-3.62301 0.25513,-6.32382 -0.77179,-2.40559 -0.959074,-3.84641 -0.72105,-5.54751 0.52923,-3.78234 2.5057,-4.23381 4.97089,-1.13545 0.48776,0.61305 0.93718,1.11387 0.9987,1.11293 0.0615,-9.5e-4 0.39646,-0.54935 0.74432,-1.21869 0.81893,-1.57576 2.05801,-2.92184 3.21331,-3.49077 0.73052,-0.35976 1.10386,-0.44071 2.00453,-0.43464 0.94701,0.006 1.25125,0.0849 2.10712,0.54387 1.77477,0.95173 3.3568,3.00326 4.55982,5.91303 0.69274,1.67554 0.79193,1.72123 2.71718,1.25183 2.33178,-0.56852 3.64359,-0.71526 6.42753,-0.719 3.9023,-0.005 6.76862,0.61136 9.17076,1.97279 1.18726,0.67289 3.34872,2.62119 4.29733,3.87354 0.67684,0.89357 1.01803,1.19198 1.75026,1.53079 0.80439,0.37221 0.96456,0.52801 1.38556,1.34778 0.43775,0.85238 0.56766,0.97173 1.61546,1.48422 1.82278,0.89153 2.84072,2.0613 3.52753,4.05367 0.5171,1.50007 0.56527,3.0535 0.14927,4.8139 -0.39574,1.67468 -1.57915,4.18016 -2.15229,4.55675 -0.1976,0.12984 -0.56735,0.60473 -0.82166,1.05532 -0.61615,1.09171 -2.50344,2.96979 -4.20128,4.18076 -1.37217,0.9787 -4.11896,2.45343 -6.13378,3.29318 -0.58188,0.24251 -1.09836,0.54652 -1.14774,0.67557 -0.0494,0.12904 0.094,0.74447 0.31863,1.36761 0.22463,0.62313 0.44786,1.60055 0.49606,2.17202 0.0862,1.02208 0.0792,1.04616 -0.42776,1.47396 -0.28347,0.2392 -0.64832,0.69635 -0.81077,1.01588 -0.16245,0.31953 -0.40215,0.6409 -0.53267,0.71414 -0.35589,0.19973 -0.30615,0.34657 0.54672,1.61403 0.43122,0.64084 1.06898,1.76662 1.41725,2.50173 0.72261,1.52524 1.06773,1.78462 2.15666,1.62086 0.38418,-0.0578 0.91889,-0.0223 1.23366,0.0819 0.45473,0.1505 0.64202,0.13905 1.03176,-0.0631 0.7464,-0.38707 1.45206,-0.30833 2.30317,0.25701 0.57379,0.38114 0.97536,0.51797 1.6478,0.56147 1.24473,0.0805 2.10694,0.5594 2.45411,1.36302 0.32814,0.75954 0.24808,1.40224 -0.313,2.51259 -0.49799,0.98549 -0.48222,1.3248 0.092,1.98064 0.96099,1.09759 0.46585,2.50249 -0.9487,2.6918 -1.18875,0.15909 -1.76391,0.5798 -2.51558,1.84003 -0.19421,0.32561 -0.53443,0.73504 -0.75604,0.90985 -0.28213,0.22255 -0.37703,0.41714 -0.31655,0.64907 0.0665,0.25508 -0.0391,0.40544 -0.45923,0.65405 -0.49003,0.28993 -0.53579,0.37527 -0.44928,0.83774 0.0816,0.43607 0.0277,0.56937 -0.35195,0.8704 -0.37217,0.29512 -0.57699,0.34038 -1.20642,0.26659 -0.93068,-0.1091 -1.49433,0.0883 -1.68452,0.58992 -0.19289,0.50878 -0.98834,1.05838 -1.4131,0.97635 -0.18811,-0.0363 -0.60554,-0.28388 -0.92761,-0.5501 -0.45213,-0.37374 -0.74065,-0.48405 -1.26604,-0.48405 -0.81371,0 -0.9596,0.23749 -0.58826,0.9576 0.24908,0.48304 0.24744,0.5264 -0.0304,0.80504 -0.48047,0.48182 -1.60244,0.54739 -2.72145,0.15904 -0.62912,-0.21833 -1.35749,-0.33606 -2.07917,-0.33606 h -1.11081 l -1.01981,1.0379 c -1.64432,1.67348 -3.59435,2.30168 -5.45371,1.75691 z m 3.35424,-0.76927 c 0.84201,-0.35639 2.08182,-1.593 2.42648,-2.42021 0.13612,-0.32672 0.22758,-1.07468 0.22738,-1.85975 -1.5e-4,-0.72227 0.11522,-1.94453 0.25644,-2.71613 l 0.25676,-1.4029 -0.73078,-0.67282 c -0.82781,-0.76215 -0.90632,-1.14613 -0.40346,-1.97329 0.40177,-0.66087 0.21593,-0.96592 -0.4133,-0.67841 -0.37457,0.17114 -0.40212,0.16032 -0.31253,-0.12276 0.11838,-0.37401 -0.45546,-1.77772 -0.88674,-2.16912 -0.41345,-0.37522 -2.07311,-0.38189 -2.81387,-0.0113 -0.65667,0.32851 -0.73792,0.3338 -0.48794,0.0318 0.30914,-0.37354 0.092,-0.64846 -0.89606,-1.13465 -0.83055,-0.40867 -1.07529,-0.45233 -2.50178,-0.44624 -1.42587,0.006 -1.6821,0.0543 -2.60892,0.49119 -0.63472,0.29918 -1.61828,1.00531 -2.57194,1.84648 -1.77852,1.56874 -2.07053,1.71213 -2.53602,1.24533 -0.27505,-0.27582 -0.2981,-0.38607 -0.14441,-0.69049 0.10059,-0.19925 0.25852,-1.07579 0.35095,-1.94789 0.10364,-0.97779 0.29678,-1.85913 0.50384,-2.29914 0.21924,-0.4659 1.15571,-1.53113 2.69834,-3.06935 l 2.36257,-2.35581 -0.56884,-0.4702 c -0.31286,-0.25862 -0.56884,-0.53637 -0.56884,-0.61723 0,-0.29781 0.59932,-0.13437 1.05979,0.28903 0.26083,0.23983 0.72425,0.62761 1.02984,0.86175 0.78136,0.59867 0.96765,1.44608 0.82964,3.77388 -0.12915,2.17844 -0.10325,2.22108 1.58705,2.61315 0.60875,0.1412 1.49816,0.43927 1.97646,0.66237 0.54256,0.25307 1.25618,0.43293 1.8974,0.47822 1.56327,0.1104 1.64331,0.14652 2.18592,0.98627 0.27807,0.43034 0.99543,1.21794 1.59412,1.75023 1.70663,1.51729 1.83794,2.15659 0.8658,4.215 -0.41951,0.88827 -0.44953,1.08494 -0.45253,2.96515 -0.002,1.14143 0.0653,2.07868 0.15489,2.1636 0.087,0.0824 0.6478,0.17912 1.2463,0.21493 l 1.08818,0.0651 0.22311,-0.53548 c 0.12271,-0.29452 0.43238,-0.65526 0.68815,-0.80166 0.58591,-0.33536 0.66459,-0.53979 0.37004,-0.9615 -0.29568,-0.42334 -0.66692,-0.42258 -1.65435,0.003 -0.43185,0.1863 -0.82738,0.29641 -0.87896,0.24468 -0.20048,-0.20104 0.11716,-0.58399 0.7551,-0.91037 0.95714,-0.48967 1.73246,-0.24499 2.32127,0.73257 0.39295,0.65238 0.47096,0.70316 1.05785,0.68852 0.93314,-0.0233 1.42756,-0.20327 1.40224,-0.5105 -0.0121,-0.14658 0.0279,-0.2665 0.0888,-0.2665 0.21996,0 0.80765,-0.65671 0.71795,-0.80226 -0.14121,-0.22912 -1.0907,-0.17694 -1.5968,0.0877 -0.53101,0.27773 -0.79186,0.29992 -0.92803,0.079 -0.0542,-0.0879 0.22936,-0.30079 0.6301,-0.47305 1.03406,-0.4445 1.24351,-1.0008 1.25415,-3.33115 0.007,-1.47542 -0.0612,-2.04722 -0.35606,-2.99575 -0.7034,-2.26294 -2.44228,-4.89573 -5.38197,-8.1487 -1.34506,-1.48841 -1.46646,-1.78145 -1.55296,-3.74865 -0.0986,-2.24201 -0.45578,-3.32465 -1.52564,-4.62422 -1.67469,-2.03425 -2.74686,-2.54054 -6.35041,-2.99871 -0.62936,-0.08 -1.39029,-0.29104 -1.69096,-0.46894 -0.70463,-0.41691 -1.64128,-0.32036 -3.27939,0.33806 -0.65692,0.26404 -1.35449,0.54273 -1.55016,0.61932 -0.20837,0.0815 -0.35576,0.27415 -0.35576,0.46486 0,0.17909 -0.0983,0.56145 -0.21836,0.8497 -0.19975,0.47941 -0.36486,0.57476 -1.93693,1.11861 -0.94521,0.32698 -2.28194,0.92725 -2.97051,1.33392 -2.29079,1.35294 -4.42972,3.82279 -5.69546,6.5766 -0.73026,1.5888 -1.646,4.50593 -1.7603,5.60756 -0.10799,1.04075 -0.48106,2.3531 -0.802084,2.82146 -0.34329,0.50083 -0.25699,0.59333 0.457624,0.49051 0.54425,-0.0783 0.46159,-0.0259 -0.434824,0.27593 -0.60875,0.20493 -1.33246,0.49083 -1.60823,0.63532 -1.04297,0.54646 -1.51048,1.80968 -1.15773,3.12827 0.25637,0.95835 1.0399,2.51874 1.51653,3.02017 0.50282,0.52899 1.542964,1.03192 2.395774,1.15841 0.65146,0.0966 0.67199,0.0864 0.67199,-0.33541 v -0.43508 l 0.38948,0.57478 c 0.79264,1.16977 3.15522,2.67495 5.07895,3.23577 1.42421,0.41519 3.98181,0.24572 5.91596,-0.392 2.78412,-0.91798 4.29395,-0.82739 6.79901,0.40794 2.44896,1.20765 3.59964,1.35032 5.25164,0.65109 z m -1.95883,-1.94195 c -1.53379,-1.04517 -1.53477,-4.53747 -0.002,-6.16274 1.41271,-1.4977 3.01735,-1.06329 3.74848,1.01479 0.65405,1.85898 -0.26031,4.48174 -1.8534,5.31636 -0.62766,0.32883 -1.24412,0.274 -1.89335,-0.16841 z m 2.05349,-0.76653 c 0.91218,-0.85399 1.37536,-2.26901 1.19517,-3.6513 -0.0857,-0.65745 -0.22312,-0.93633 -0.69659,-1.41363 -0.76528,-0.77148 -1.13984,-0.75634 -1.97363,0.0798 -0.77154,0.77372 -1.02299,1.49238 -1.02427,2.9275 -0.002,2.11131 1.29847,3.18187 2.49932,2.05763 z m -1.01462,-1.94291 c -0.1509,-0.60291 0.0337,-1.66315 0.34025,-1.95462 0.25194,-0.23953 0.26278,-0.20061 0.17162,0.61642 -0.0535,0.47965 -0.0979,1.06831 -0.0987,1.30814 -0.002,0.54939 -0.27818,0.5695 -0.41319,0.0301 z m -5.17484,2.02095 c -1.06896,-1.18452 -0.2301,-3.03539 1.10021,-2.42755 0.82044,0.37487 1.08743,2.17463 0.37901,2.55484 -0.46801,0.25117 -1.19405,0.18869 -1.47922,-0.12729 z m 1.27852,-0.82216 c 0.0521,-0.51563 -0.46563,-1.19306 -0.81042,-1.06038 -0.17635,0.0679 -0.2574,0.29201 -0.2574,0.71185 0,0.7313 0.0969,0.8538 0.62654,0.79186 0.29657,-0.0347 0.41166,-0.15031 0.44128,-0.44333 z m -2.48527,-0.59461 c 0.003,-0.32703 0.11427,-0.77299 0.24708,-0.99101 l 0.24148,-0.3964 -0.0868,0.3964 c -0.0478,0.21802 -0.0878,0.66398 -0.089,0.99101 -0.001,0.32704 -0.0733,0.59461 -0.16028,0.59461 -0.087,0 -0.15559,-0.26757 -0.15251,-0.59461 z m 1.72079,-3.72933 c -0.73602,-0.49606 -0.94804,-1.31838 -0.53717,-2.08346 0.51638,-0.96156 1.41187,-1.13214 2.13525,-0.40673 0.45862,0.45992 0.43397,1.74671 -0.0436,2.27346 -0.52642,0.58069 -0.93085,0.63707 -1.55452,0.21673 z m 1.2462,-0.62319 c 0.27402,-0.2748 0.23307,-1.08451 -0.0719,-1.4225 -0.55452,-0.61446 -1.37219,-0.22033 -1.37219,0.6614 0,0.25234 0.0917,0.56962 0.20383,0.70508 0.24179,0.29217 0.97192,0.32515 1.2403,0.056 z m -2.89891,-1.70207 c 0.0942,-0.58156 0.43631,-1.05136 0.9523,-1.30767 0.19053,-0.0946 0.14123,-0.009 -0.12298,0.21289 -0.24254,0.20397 -0.5482,0.65626 -0.67925,1.0051 -0.23596,0.62812 -0.23741,0.62899 -0.15007,0.0897 z m 5.35102,-1.27194 c -0.48383,-0.20727 -0.88721,-0.87437 -0.76403,-1.26355 0.28463,-0.89934 1.61433,-1.23414 2.57316,-0.64789 0.59906,0.36629 0.69325,1.01296 0.23093,1.58551 -0.31858,0.39454 -1.45579,0.57623 -2.04006,0.32593 z m 1.29552,-0.51162 c 0.31147,-0.14231 0.39906,-0.28569 0.3632,-0.5946 -0.0532,-0.45845 -0.44629,-0.58043 -1.33288,-0.41364 -0.636,0.11965 -0.72189,0.56923 -0.18128,0.94895 0.42153,0.29608 0.61133,0.30586 1.15096,0.0593 z m 8.99842,9.62198 c -0.008,-0.0872 -0.33893,-0.3609 -0.73614,-0.60819 -0.59822,-0.37243 -0.77906,-0.41911 -1.05335,-0.2719 -0.78415,0.42084 -0.0437,1.15572 1.09191,1.08374 0.39134,-0.0248 0.70525,-0.11645 0.69758,-0.20365 z m 3.95393,-0.96834 c 0.41182,-0.15848 0.28506,-0.63293 -0.30881,-1.15582 -0.3074,-0.27067 -0.6225,-0.49212 -0.70023,-0.49212 -0.17034,0 -0.63825,0.45107 -0.63825,0.61527 0,0.18542 0.36106,0.58398 0.78623,0.86787 0.43457,0.29017 0.50181,0.30304 0.86106,0.1648 z m 1.31699,-1.98891 c 0.31995,-0.67162 0.11652,-0.92752 -0.73735,-0.92752 -1.33519,0 -1.69823,0.71139 -0.60866,1.19271 0.70622,0.31198 1.10884,0.23265 1.34601,-0.26519 z m 2.09544,0.34505 c 0,-0.20641 -0.85059,-0.63832 -1.25708,-0.63832 -0.43822,0 -0.41562,0.449 0.0317,0.6293 0.48139,0.19404 1.2254,0.19952 1.2254,0.009 z m -4.00758,-1.51041 c 0.3122,-0.13082 0.90154,-0.23785 1.30963,-0.23785 0.69503,0 0.75901,-0.0358 1.01107,-0.56585 0.31795,-0.66865 0.25783,-0.81261 -0.41208,-0.98669 -1.14184,-0.29672 -2.49164,0.23404 -2.94241,1.157 -0.19591,0.40114 -0.18861,0.47017 0.0697,0.65963 0.35257,0.25853 0.27966,0.26051 0.96404,-0.0262 z m 4.59023,-0.0911 c 0.42931,-0.16436 0.43421,-0.17843 0.13819,-0.3964 -0.36764,-0.27071 -1.60457,-0.30114 -1.76342,-0.0434 -0.14427,0.2341 0.36443,0.6102 0.82534,0.6102 0.19512,0 0.55507,-0.0767 0.79989,-0.17041 z m 1.0175,-1.30375 c 0.39924,-0.30481 1.58006,-2.21446 1.4995,-2.425 -0.042,-0.1097 0.0717,-0.18925 0.27199,-0.19036 0.86503,-0.005 0.97247,-0.10496 1.07179,-0.99919 0.0524,-0.47155 0.25656,-1.23141 0.45376,-1.68857 0.20849,-0.48337 0.36715,-1.18958 0.37913,-1.68756 0.0179,-0.74664 -0.0459,-0.93946 -0.49868,-1.50501 -0.50615,-0.63227 -0.51298,-0.66085 -0.27024,-1.13157 0.13696,-0.2656 0.20634,-0.55218 0.15417,-0.63682 -0.14344,-0.23275 -0.96101,-0.1843 -1.17096,0.0694 -0.15618,0.1887 -0.24062,0.17028 -0.54512,-0.11893 -0.80963,-0.76896 -1.54533,-1.2143 -2.00602,-1.2143 -0.39031,0 -1.73005,0.75564 -1.73005,0.97579 0,0.0841 -0.0712,0.10876 -0.15812,0.0549 -0.087,-0.0539 -0.15811,-0.22817 -0.15811,-0.38727 0,-0.31677 -0.41364,-0.47924 -1.22879,-0.48266 -0.81825,-0.003 -0.91706,0.41282 -0.60823,2.56217 0.32838,2.28548 0.32658,4.37109 -0.005,6.02233 l -0.26106,1.29926 0.43303,0.34626 c 0.23816,0.19044 0.97822,0.53115 1.64458,0.75715 1.86025,0.6309 2.32027,0.69488 2.73264,0.38003 z m -1.07745,-3.34825 c -0.40034,-0.34533 -0.44364,-0.48195 -0.44364,-1.39976 0,-0.8698 0.0641,-1.10143 0.44299,-1.59952 0.54029,-0.71034 1.17381,-1.05778 1.92876,-1.05778 0.87786,0 1.46108,0.38085 1.67386,1.09307 0.16415,0.54941 0.14041,0.7108 -0.22102,1.50249 -0.72003,1.57718 -2.40329,2.30481 -3.38095,1.4615 z m 1.79131,-0.60562 c 0.91215,-0.62677 1.45089,-1.99094 0.97482,-2.46836 -0.24087,-0.24154 -1.09774,-0.24542 -1.61883,-0.007 -0.42922,0.19611 -1.03753,1.28027 -1.03753,1.84913 0,0.41107 0.52236,0.9806 0.89938,0.9806 0.14681,0 0.49878,-0.15932 0.78216,-0.35404 z m -0.57121,-1.09324 c -0.003,-0.25587 0.41912,-0.71873 0.5429,-0.59461 0.0354,0.0355 -0.0714,0.24192 -0.23748,0.45864 -0.22505,0.29374 -0.3028,0.32835 -0.30542,0.13597 z m -3.83784,0.27519 c -0.1979,-0.15065 -0.27601,-0.43145 -0.27428,-0.98597 0.003,-0.91744 0.0956,-1.09638 0.68444,-1.3209 0.3929,-0.1498 0.4958,-0.11629 0.90595,0.29501 0.54157,0.5431 0.58141,1.00474 0.1482,1.71726 -0.3432,0.56448 -0.94954,0.68647 -1.46431,0.2946 z m 0.9566,-0.6038 c 0.29028,-0.2911 0.22586,-0.88912 -0.11551,-1.07233 -0.56326,-0.3023 -1.0798,0.60303 -0.61182,1.07233 0.10436,0.10465 0.26801,0.19028 0.36367,0.19028 0.0957,0 0.25931,-0.0856 0.36366,-0.19028 z m 1.01551,-3.38636 c -0.26022,-0.18278 -0.35142,-0.4061 -0.35142,-0.86058 0,-0.85056 0.58918,-1.32272 1.53272,-1.22829 0.88579,0.0887 1.15526,0.33942 1.15526,1.07512 0,0.46292 -0.097,0.6798 -0.41661,0.93195 -0.49867,0.39336 -1.42048,0.43263 -1.91995,0.0818 z m 1.39826,-0.39299 c 0.35653,-0.19135 0.40511,-0.82434 0.0838,-1.09177 -0.28673,-0.23863 -1.00683,-0.0593 -1.19765,0.29826 -0.10056,0.18842 -0.0717,0.3814 0.0922,0.61601 0.26274,0.37616 0.55643,0.42719 1.02167,0.1775 z m -5.549,8.09931 c 0.8579,-1.34068 1.18701,-4.44801 0.78465,-7.40837 -0.19395,-1.42695 -1.08459,-4.23854 -1.67374,-5.28366 -0.62486,-1.10846 -2.01342,-3.17124 -2.13473,-3.17124 -0.12278,0 -3.30992,3.39795 -3.4939,3.72499 -0.11645,0.20701 0.0169,0.39773 1.88539,2.69677 2.82187,3.47208 3.83704,5.82784 3.84353,8.91911 0.002,0.71947 0.0665,1.30814 0.14438,1.30814 0.0779,0 0.36789,-0.35359 0.64442,-0.78574 z m -7.9013,-0.94712 c 0,-0.71322 -0.34958,-1.16163 -0.84982,-1.09006 -0.5427,0.0776 -0.54724,0.95149 -0.007,1.37752 0.64245,0.50678 0.85697,0.43482 0.85697,-0.28746 z m 18.19449,-1.38835 c 0.21973,-0.57958 0.12672,-1.06621 -0.21633,-1.1318 -0.40881,-0.0782 -0.74346,0.2605 -0.74346,0.75234 0,0.81998 0.68943,1.09255 0.95979,0.37946 z m -33.89936,-2.24472 c 1.37937,-1.2621 2.51106,-1.98611 3.88334,-2.4844 1.21618,-0.44161 1.2721,-0.60154 1.20019,-3.43253 -0.0457,-1.79931 -0.0884,-2.06541 -0.3783,-2.35569 -0.19067,-0.19095 -0.42118,-0.28282 -0.55341,-0.22058 -0.12464,0.0587 -1.21094,1.1362 -2.414,2.39452 -1.5565,1.62799 -2.29906,2.53249 -2.5746,3.13604 -0.58255,1.27603 -0.88849,4.04739 -0.44681,4.04739 0.0539,0 0.63154,-0.48814 1.28359,-1.08475 z m 33.91675,-3.11649 c 0.14857,-0.32701 0.12999,-0.45097 -0.10696,-0.71353 -0.31717,-0.35146 -0.71488,-0.41012 -0.97974,-0.14452 -0.16715,0.16762 -0.0922,0.41686 0.31733,1.0556 0.20659,0.32221 0.57635,0.22726 0.76937,-0.19755 z m -53.881714,-3.22569 c 2.39194,-1.18859 4.31644,-3.51452 5.59687,-6.76432 0.20617,-0.52328 0.50315,-1.23682 0.65994,-1.58566 0.1568,-0.34884 0.45181,-1.11447 0.65557,-1.70142 0.334054,-0.96221 0.346474,-1.09125 0.126294,-1.31204 -0.134304,-0.13468 -0.610604,-0.2884 -1.058454,-0.34159 -0.96912,-0.1151 -0.94177,-0.15489 -1.53837,2.23803 -0.59091,2.37003 -1.77104,4.66202 -3.07715,5.97625 -0.90465,0.91027 -1.19704,1.10077 -2.14739,1.39909 -1.503065,0.47182 -2.672945,0.45797 -3.767655,-0.0446 -1.20397,-0.55275 -1.44854,-1.04408 -1.40526,-2.82313 0.0371,-1.52579 -0.17236,-1.92388 -1.0124,-1.92388 -0.95432,0 -1.5003,1.57225 -1.16382,3.35147 0.36288,1.91885 1.86469,3.508 3.84107,4.06445 1.40402,0.3953 2.762795,0.22663 4.290755,-0.53264 z m 37.993934,-2.92645 c 2.0556,-2.13084 2.41745,-2.67677 2.42823,-3.6635 l 0.009,-0.80866 0.28313,0.70007 c 0.18728,0.46306 0.39307,0.71688 0.60787,0.74976 0.30308,0.0464 0.32169,-0.0188 0.279,-0.97755 -0.0449,-1.00851 0.0805,-1.27666 0.36149,-0.77311 0.078,0.13977 0.2772,0.22714 0.44267,0.19416 0.25289,-0.0504 0.29976,-0.19838 0.29395,-0.92802 -0.007,-0.90908 -0.54968,-2.8844 -0.92631,-3.37319 -0.2097,-0.27214 -0.30609,-0.27342 -2.0941,-0.0279 -1.03086,0.14156 -3.17282,0.29789 -4.75992,0.3474 -1.58709,0.0495 -2.88562,0.12828 -2.88562,0.17506 0,0.0468 0.52358,0.62533 1.16351,1.28566 1.77158,1.82806 2.30984,3.13248 2.31317,5.60578 10e-4,0.88381 0.0898,1.60342 0.24244,1.96986 0.26164,0.62797 0.5228,0.99808 0.70426,0.99808 0.0635,0 0.75536,-0.66326 1.53739,-1.47391 z m 3.31539,-5.2914 c -0.058,-0.0581 -0.10541,-0.17943 -0.10541,-0.26955 0,-0.0994 0.0737,-0.09 0.1871,0.0238 0.10291,0.1032 0.15035,0.2245 0.10542,0.26956 -0.0449,0.0451 -0.12913,0.0343 -0.18711,-0.0238 z m -47.134249,-0.54341 c 1.44004,-0.44604 3.82503,-2.02198 5.454435,-3.60416 1.15871,-1.12512 1.28678,-1.3044 1.09627,-1.5346 -0.30001,-0.36251 -1.33691,-0.87193 -1.7722,-0.87067 -0.39871,0.001 -1.057705,0.38948 -1.499815,0.8838 -1.09457,1.22385 -4.63498,3.2054 -6.00338,3.36007 -1.45908,0.16492 -3.01647,-0.6402 -3.68579,-1.90543 l -0.38184,-0.7218 0.50513,-1.09898 c 0.27782,-0.60443 0.50286,-1.20031 0.5001,-1.32416 -0.008,-0.34939 -0.37301,-0.75129 -0.84686,-0.93196 -1.35202,-0.51549 -2.55843,2.01379 -2.00735,4.20848 0.37811,1.50586 1.79234,2.93292 3.52682,3.55883 1.20566,0.43507 3.67744,0.42568 5.11448,-0.0194 z m 22.204549,-3.14097 c 1.55894,-0.33601 3.2236,-1.06197 4.40789,-1.92229 0.38336,-0.27849 0.62706,-0.55938 0.55102,-0.63511 -0.075,-0.0747 -0.61964,-0.21298 -1.21033,-0.30734 -2.47107,-0.39474 -5.02473,-1.72232 -6.82973,-3.55061 -1.80084,-1.82408 -5.46302,-7.06232 -7.830494,-11.20042 -1.92208,-3.35959 -2.38162,-3.98349 -4.49177,-6.0982 -1.98692,-1.99121 -2.928565,-2.63847 -4.416515,-3.03577 -2.2067,-0.58921 -4.01512,0.016 -5.09261,1.70419 -1.37257,2.15057 -1.10055,7.64568 0.59716,12.06336 1.29625,3.37303 4.35129,7.1492 7.792205,9.63153 2.53669,1.83001 5.38089,3.0495 8.316414,3.56577 1.88887,0.3322 6.19065,0.21944 8.20676,-0.21511 z m 22.41557,-0.43133 c 5.00917,-0.71619 9.94044,-3.26597 13.49326,-6.97689 1.36355,-1.42422 1.41937,-1.62062 0.70803,-2.49116 -0.69257,-0.84757 -1.84949,-3.16258 -2.27314,-4.5486 -1.01831,-3.33146 -0.74283,-5.92189 0.80423,-7.56228 0.76132,-0.80725 0.78302,-0.85446 0.4937,-1.07401 -0.40354,-0.30623 -1.33217,-0.3001 -1.77613,0.0117 -0.4423,0.31067 -1.1351,1.38805 -1.13629,1.76705 -0.002,0.62353 -0.33702,1.46985 -0.58191,1.46985 -0.21094,0 -0.23819,-0.14954 -0.16823,-0.92321 0.13303,-1.47117 0.78927,-2.50399 1.97174,-3.10321 0.73923,-0.3746 0.92383,-0.79971 0.52219,-1.20249 -0.39938,-0.4005 -1.22582,-0.41222 -1.68938,-0.0239 -0.18798,0.15744 -0.42735,0.60103 -0.53194,0.98574 -0.10459,0.38471 -0.21492,0.78746 -0.24518,0.895 -0.11825,0.42027 -0.54134,1.6e-4 -0.54134,-0.53749 0,-0.58681 0.38441,-1.4815 0.63653,-1.4815 0.28832,0 0.15755,-1.06249 -0.18764,-1.5246 -0.6101,-0.81675 -2.08998,-2.29847 -2.89969,-2.90329 -2.66332,-1.98938 -5.32297,-2.82148 -9.51601,-2.97718 -2.56946,-0.0954 -4.44819,0.0693 -7.00716,0.61425 -1.9258,0.41013 -2.10355,0.5626 -1.96378,1.68443 0.0957,0.76844 0.0776,0.85059 -0.1764,0.80109 -0.20706,-0.0403 -0.3362,-0.31641 -0.48085,-1.02788 -0.62894,-3.09346 -2.56361,-5.80788 -4.93148,-6.91906 -0.86417,-0.40554 -1.13844,-0.45965 -2.05868,-0.4062 -0.68963,0.0401 -1.33873,0.19474 -1.85226,0.4414 -1.06603,0.51203 -2.80985,2.3087 -4.00177,4.12304 -1.59238,2.42394 -4.36898,8.10519 -6.623654,13.55279 -0.30641,0.74033 -0.3541,1.01649 -0.2247,1.30128 0.19417,0.42737 1.435364,1.07974 1.648204,0.8663 0.0792,-0.0794 0.3108,-0.64111 0.51466,-1.24818 0.20385,-0.60706 0.57785,-1.55913 0.8311,-2.11571 0.25326,-0.55658 0.51511,-1.19034 0.58188,-1.40837 0.20169,-0.65848 2.58462,-5.37741 3.44298,-6.81816 1.11822,-1.87691 2.66611,-4.09358 3.53622,-5.06409 1.81752,-2.02721 3.44999,-1.85709 4.9815,0.51913 0.85781,1.33095 1.3979,3.34851 1.40015,5.23047 7.9e-4,0.64315 -0.0431,0.75636 -0.27579,0.71173 -0.17998,-0.0345 -0.30434,-0.2458 -0.35576,-0.60443 -0.0508,-0.35419 -0.17626,-0.57001 -0.35087,-0.60349 -0.3822,-0.0733 -3.33388,2.92851 -4.33537,4.40898 -1.23863,1.83102 -2.76164,4.93743 -3.14571,6.41614 -0.2449,0.94287 -0.31437,3.67337 -0.10199,4.00876 0.0688,0.10871 0.51233,0.31295 0.98554,0.45388 2.81697,0.8389 5.54401,2.90305 7.70799,5.83432 1.50979,2.04511 1.96394,2.78553 1.86582,3.04193 -0.16659,0.43536 -0.40821,0.2056 -1.54504,-1.46921 -1.48639,-2.18981 -3.48192,-4.28938 -4.9474,-5.20535 -0.62879,-0.39301 -2.026,-1.03842 -3.10491,-1.43423 -2.11022,-0.77417 -5.84143,-2.55698 -8.1061,-3.87317 -0.77053,-0.44782 -1.439474,-0.7756 -1.486534,-0.72841 -0.21644,0.21705 3.713434,6.10133 6.073914,9.09459 2.54313,3.22488 5.079,4.69214 8.70923,5.03917 0.64837,0.062 1.22099,0.20269 1.32212,0.32489 0.37719,0.45576 0.0174,0.94804 -1.23734,1.69278 -0.67568,0.40106 -1.37081,0.84502 -1.54474,0.98659 -0.29838,0.24285 -0.26487,0.25295 0.59341,0.17875 1.02739,-0.0888 2.3279,-0.63392 3.46227,-1.45118 0.6913,-0.49805 1.24122,-0.70332 1.24122,-0.46332 0,0.0493 -0.0761,0.23228 -0.16908,0.40654 -0.20673,0.38736 0.0526,0.77225 0.52031,0.77225 0.17188,0 0.53672,0.0993 0.81075,0.22063 0.54233,0.24014 2.9618,0.55612 4.84645,0.63294 2.10582,0.0858 6.20169,-0.0798 7.86885,-0.31813 z m 3.85964,-5.13738 c -1.75734,-0.36596 -3.58788,-1.7416 -4.53157,-3.40543 -0.95344,-1.68102 -1.11265,-1.82346 -2.03801,-1.82346 -1.2027,0 -2.20051,-0.39188 -2.85904,-1.12285 -0.76955,-0.8542 -0.70236,-1.02222 0.19046,-0.47626 0.97299,0.59498 1.8421,0.84312 2.72751,0.77875 0.68254,-0.0496 0.72763,-0.0847 1.10682,-0.86106 1.19511,-2.44688 3.05763,-3.53202 5.74522,-3.34729 2.55831,0.17584 4.8779,1.92931 6.11996,4.62632 0.75219,1.63331 0.88975,2.18019 0.53202,2.11504 -0.19086,-0.0348 -0.32148,0.15335 -0.48008,0.69135 -0.27334,0.92718 -1.4572,2.04381 -2.63543,2.48574 -0.97998,0.36757 -2.92468,0.53765 -3.87786,0.33915 z m 0.0313,-7.28261 c 1.3642,-0.52013 0.52857,-2.22536 -1.09125,-2.22686 -1.53924,-0.001 -2.01397,1.55397 -0.6552,2.14669 0.59537,0.25971 1.20246,0.28758 1.74645,0.0802 z m -13.06215,0.62666 c -0.73152,-1.6822 -0.48351,-4.43908 0.55999,-6.22468 0.48282,-0.8262 1.80101,-2.06711 2.66583,-2.50955 0.81833,-0.41866 2.01355,-0.64883 2.56989,-0.49489 0.44581,0.12335 0.42916,0.13868 -0.49398,0.45477 -1.1857,0.406 -2.55788,1.30624 -3.30926,2.1711 -0.31402,0.36145 -0.82785,1.19232 -1.14184,1.84639 -0.53108,1.10628 -0.57704,1.32191 -0.65905,3.09196 -0.0485,1.04651 -0.13469,1.79571 -0.19158,1.6649 z m -1.276,-5.49262 c -0.0603,-0.0605 -0.10804,-0.50829 -0.10613,-0.99521 0.004,-1.02554 0.38125,-1.95837 1.04388,-2.58134 0.46385,-0.43609 1.92239,-1.16623 2.05801,-1.03022 0.0412,0.0413 -0.32735,0.45653 -0.81893,0.92276 -1.04953,0.9954 -1.56175,1.81318 -1.85471,2.96111 -0.11689,0.45805 -0.26185,0.78335 -0.32212,0.7229 z m 26.50893,7.17511 c 0.58014,-0.76275 1.317,-2.71255 1.63126,-4.31649 0.50433,-2.57405 -0.13887,-5.04089 -1.68141,-6.44864 -1.00946,-0.92124 -1.68442,-1.06669 -2.62583,-0.56587 -0.57713,0.30703 -0.73091,0.49829 -0.99693,1.23992 -0.44772,1.24818 -0.69387,2.80679 -0.57572,3.64537 0.15844,1.12455 0.71106,3.00484 1.0441,3.55254 l 0.30229,0.49715 6.3e-4,-0.60248 c 6.3e-4,-0.64585 0.36501,-1.49607 0.77595,-1.81055 0.80152,-0.61338 2.23392,0.19257 2.22383,1.25126 -0.006,0.62124 -0.24999,0.99131 -0.76107,1.15398 -0.3812,0.12131 -0.81511,0.92737 -0.81511,1.51413 0,0.18002 0.1031,0.57475 0.22911,0.87718 0.29576,0.70986 0.7153,0.71406 1.2489,0.0125 z m -40.58762,-5.55675 0.0242,-1.73368 -0.79766,-0.77098 c -0.43871,-0.42403 -0.9121,-0.74888 -1.05198,-0.72187 -0.33967,0.0656 -0.6361,1.02598 -0.75611,2.44969 -0.11357,1.34728 0.01,1.57132 1.21332,2.2061 1.25774,0.66329 1.34018,0.57717 1.36821,-1.42926 z m -3.13322,-0.48755 c 0.0293,-0.26088 0.26535,-1.47327 0.52448,-2.6942 0.25913,-1.22093 0.63615,-3.11178 0.83782,-4.20189 0.20167,-1.09011 0.41919,-2.19608 0.48338,-2.45771 0.1038,-0.4231 0.0904,-0.44939 -0.12092,-0.23784 -0.62444,0.625 -2.73749,5.20763 -3.53066,7.65704 -0.52359,1.61692 -0.47687,1.79373 0.5832,2.20674 0.91642,0.35703 1.15801,0.30326 1.2227,-0.27214 z m 4.06862,-3.8377 c 1.89657,-4.20109 4.27798,-7.41705 6.65763,-8.99071 0.81378,-0.53816 0.87857,-0.69917 0.67128,-1.66843 -0.25469,-1.19094 -0.41785,-1.27132 -3.16539,-1.55941 l -2.41079,-0.25278 -0.54126,0.6235 c -1.11187,1.28082 -2.05628,3.62922 -2.89148,7.19009 -1.05876,4.51399 -0.99821,4.09587 -0.70473,4.86649 0.24784,0.6508 1.26974,1.7143 1.50634,1.56766 0.0584,-0.0362 0.45367,-0.83557 0.8784,-1.77641 z m -4.98854,-8.52878 c 0.45448,-0.87209 1.20894,-2.30974 1.67657,-3.19479 0.46764,-0.88504 0.85024,-1.73259 0.85024,-1.88344 0,-0.44857 -0.88039,-1.84993 -1.61137,-2.56487 -1.38981,-1.35935 -2.42475,-1.40855 -2.9835,-0.14184 -0.65833,1.49245 -0.54899,3.84824 0.34419,7.41613 0.2691,1.07494 0.52537,2.01417 0.56949,2.08717 0.12238,0.20252 0.26037,-0.003 1.15438,-1.71836 z m 11.53945,-4.20976 c 0,-0.28779 -0.42923,-1.00871 -0.81508,-1.36898 -0.52556,-0.49071 -1.22961,-0.72178 -1.84592,-0.60584 -0.55455,0.10433 -1.92438,1.23657 -1.92438,1.59061 0,0.13471 0.43356,0.25241 1.30447,0.35411 1.85245,0.21633 3.28091,0.22944 3.28091,0.0301 z m -6.08024,-3.96195 c 0.33228,-0.2648 1.06028,-0.69977 1.61779,-0.96659 0.93412,-0.44707 1.12102,-0.4807 2.38229,-0.42862 0.89336,0.0369 1.556,0.15254 1.90819,0.33304 0.59971,0.30734 0.87842,0.23158 0.39961,-0.10864 -0.16868,-0.11986 -0.48458,-0.37476 -0.70199,-0.56645 -1.34808,-1.18862 -3.19515,-1.17311 -4.74798,0.0399 -0.54109,0.42266 -1.77624,2.17886 -1.53241,2.17886 0.0387,0 0.34223,-0.21666 0.6745,-0.48146 z"
         style="fill:#000000;stroke-width:0.15833905" />
    </g>
  </g>
</svg>
