<?xml version="1.0" encoding="UTF-8" standalone="no"?>
<!-- Created with Inkscape (http://www.inkscape.org/) -->

<svg
   xmlns:dc="http://purl.org/dc/elements/1.1/"
   xmlns:cc="http://creativecommons.org/ns#"
   xmlns:rdf="http://www.w3.org/1999/02/22-rdf-syntax-ns#"
   xmlns:svg="http://www.w3.org/2000/svg"
   xmlns="http://www.w3.org/2000/svg"
   xmlns:xlink="http://www.w3.org/1999/xlink"
   xmlns:sodipodi="http://sodipodi.sourceforge.net/DTD/sodipodi-0.dtd"
   xmlns:inkscape="http://www.inkscape.org/namespaces/inkscape"
   width="155.34822mm"
   height="147.78868mm"
   viewBox="0 0 155.34822 147.78868"
   version="1.1"
   id="svg8"
   inkscape:version="0.92.1 r15371"
   sodipodi:docname="catalog1.svg">
  <defs
     id="defs2">
    <linearGradient
       inkscape:collect="always"
       id="linearGradient4502">
      <stop
         style="stop-color:#f8c0ea;stop-opacity:1;"
         offset="0"
         id="stop4498" />
      <stop
         style="stop-color:#c0e6f8;stop-opacity:0.93896711"
         offset="1"
         id="stop4500" />
    </linearGradient>
    <linearGradient
       inkscape:collect="always"
       xlink:href="#linearGradient4502"
       id="linearGradient4504"
       x1="116.79465"
       y1="168.67708"
       x2="114.52679"
       y2="49.992554"
       gradientUnits="userSpaceOnUse" />
  </defs>
  <sodipodi:namedview
     id="base"
     pagecolor="#ffffff"
     bordercolor="#666666"
     borderopacity="1.0"
     inkscape:pageopacity="0.0"
     inkscape:pageshadow="2"
     inkscape:zoom="0.7"
     inkscape:cx="352.66303"
     inkscape:cy="225.75568"
     inkscape:document-units="mm"
     inkscape:current-layer="layer1"
     showgrid="false"
     fit-margin-top="0"
     fit-margin-left="0"
     fit-margin-right="0"
     fit-margin-bottom="0"
     inkscape:window-width="1536"
     inkscape:window-height="793"
     inkscape:window-x="-8"
     inkscape:window-y="-8"
     inkscape:window-maximized="1"
     inkscape:snap-global="false" />
  <metadata
     id="metadata5">
    <rdf:RDF>
      <cc:Work
         rdf:about="">
        <dc:format>image/svg+xml</dc:format>
        <dc:type
           rdf:resource="http://purl.org/dc/dcmitype/StillImage" />
        <dc:title></dc:title>
      </cc:Work>
    </rdf:RDF>
  </metadata>
  <g
     inkscape:label="Layer 1"
     inkscape:groupmode="layer"
     id="layer1"
     transform="translate(-23.8125,-64.922607)">
    <rect
       style="opacity:1;fill:url(#linearGradient4504);fill-opacity:1;stroke:none;stroke-width:0.15617977;stroke-miterlimit:4;stroke-dasharray:none;stroke-opacity:1"
       id="rect4485"
       width="155.34822"
       height="147.78868"
       x="23.8125"
       y="64.922607" />
    <rect
       style="opacity:1;fill:#81aaeb;fill-opacity:0.38536586;stroke:#ffffff;stroke-width:1.697;stroke-miterlimit:4;stroke-dasharray:3.394,1.697;stroke-opacity:1;paint-order:fill markers stroke;stroke-dashoffset:0"
       id="rect4564"
       width="142.18739"
       height="133.36749"
       x="31.028776"
       y="72.127525"
       ry="0" />
    <text
       xml:space="preserve"
       style="font-style:normal;font-weight:normal;font-size:19.36636353px;line-height:1.25;font-family:sans-serif;letter-spacing:0px;word-spacing:0px;fill:#ffffff;fill-opacity:1;stroke:none;stroke-width:0.1351413;stroke-miterlimit:4;stroke-dasharray:none;stroke-opacity:1"
       x="48.650505"
       y="87.881401"
       id="text4508"
       transform="scale(0.87831932,1.1385381)"><tspan
         sodipodi:role="line"
         id="tspan4506"
         x="48.650505"
         y="87.881401"
         style="font-style:normal;font-variant:normal;font-weight:normal;font-stretch:normal;font-size:19.36636353px;font-family:'Book Antiqua';-inkscape-font-specification:'Book Antiqua, Normal';font-variant-ligatures:normal;font-variant-caps:normal;font-variant-numeric:normal;font-feature-settings:normal;text-align:start;writing-mode:lr-tb;text-anchor:start;fill:#ffffff;fill-opacity:1;stroke:none;stroke-width:0.1351413;stroke-miterlimit:4;stroke-dasharray:none;stroke-opacity:1">Для мальчиков</tspan></text>
    <g
       id="g5028"
       transform="translate(-2.6458333,1.1339286)">
      <path
         inkscape:connector-curvature="0"
         id="path5019"
         d="m 90.429428,183.17801 4.009044,1.5368 6.080378,1.10248 1.06908,1.70385 v 1.1693 l 1.03567,-1.60361 3.10701,1.1693 0.30068,-0.16704 -1.97112,-2.10475 5.21176,-0.56795 5.51243,-1.73725 0.3675,1.26953 -0.56795,1.20271 0.60136,1.40317 4.6104,0.86862 6.34765,-0.53454 1.90429,-0.90203 -0.96885,-1.60362 -3.24064,-1.5368 0.26727,-1.20271 1.77066,-2.43883 1.90429,2.17156 2.23839,2.40543 4.27631,1.80407 5.07812,1.1693 4.64381,-0.83522 4.57699,-2.80633 0.63476,-0.93544 -0.86862,-0.96885 -5.67948,-1.83748 -6.94901,-1.60362 -2.87314,-3.77518 -1.70385,-4.81085 -1.46998,-3.94223 -0.93544,-2.73951 c 0,0 -2.27179,-4.37654 -2.40543,-4.37654 -0.13363,0 -3.24064,-3.34087 -3.24064,-3.34087 l -7.78423,-7.78422 1.36976,-2.83974 0.33409,-2.80633 0.63476,-4.40995 1.10249,-2.10475 h 1.06908 l 2.27179,0.7684 3.77518,0.0334 2.93996,-1.50339 2.07134,0.93545 2.40543,-0.16705 0.66817,0.60136 1.83748,-0.10023 0.70158,0.73499 2.00452,-3.24064 1.30294,-0.73499 0.30068,-0.96885 -0.66817,-0.86863 -0.13364,-5.04471 -0.53454,-3.17383 -1.10248,-2.37201 -1.63703,-1.73726 -1.90429,-1.10248 -2.27179,-0.26727 -1.63703,0.60136 c 0,0 -1.57021,1.36975 -1.73725,1.46998 -0.16704,0.10022 -2.03793,0.96885 -2.03793,0.96885 l -2.77292,-0.26727 -2.50565,-1.1359 c 0,0 -4.24291,-1.30294 -4.67722,-1.30294 -0.43431,0 -3.14042,-0.50113 -3.27405,-0.50113 -0.13364,0 -3.27406,-0.90203 -3.27406,-0.90203 l -7.11605,-1.70384 c 0,0 -4.911075,1.73725 -5.044708,1.77066 -0.133636,0.0334 -3.240643,1.73725 -3.240643,1.73725 l -1.469983,0.86863 -3.040192,-0.30068 -1.904294,1.43657 -0.968854,1.63703 -0.534537,2.03793 0.434313,1.50339 0.835216,1.40316 1.937705,0.7684 0.968851,-0.16704 0.734991,3.70836 1.57021,4.27631 -0.267269,5.04472 v 5.31198 l -0.100227,1.20271 -2.77292,1.63703 -3.775184,2.50565 -3.274052,2.73951 -2.238383,2.60588 -3.00678,4.57699 -2.004523,4.37654 -1.503389,3.60814 -1.436574,2.73951 -1.670436,3.10701 -1.302938,1.30294 -3.207234,1.60361 -7.082642,0.96886 -3.842001,1.67043 -2.204974,1.57021 -0.23386,1.23612 0.567949,0.93544 1.46998,1.10249 3.87541,1.43657 2.706103,0.26728 1.403165,-0.0668 1.804069,0.23386 2.706106,-0.30068 3.374276,-0.53454 1.469982,-0.70158 1.202714,-0.86863 1.269529,-1.40316 1.436574,-1.57021 0.300678,-0.66817 0.734991,0.86862 0.467722,1.16931 0.200451,0.86862 0.200454,0.56795 -2.104747,-0.0668 -1.269532,0.90204 -0.100224,1.13589 1.436574,1.26953 1.436574,1.20272 0.300677,0.56794 1.369756,0.50113 2.438834,-0.56795 1.536801,-0.53453 3.574729,-0.3675 2.839739,-1.10249 0.23386,-1.20271 v -1.36976 l -0.634765,-1.10248 0.467723,-1.06908 z"
         style="fill:#577dae;fill-opacity:1;stroke:#000000;stroke-width:0.26458332px;stroke-linecap:butt;stroke-linejoin:miter;stroke-opacity:1" />
      <path
         sodipodi:nodetypes="cccc"
         inkscape:connector-curvature="0"
         id="path5007"
         d="m 89.672098,162.6691 c 5.457773,-1.29358 10.456922,-2.91881 14.272562,0.0589 -0.48298,13.92875 -10.56337,14.32879 -12.277777,14.72243 z"
         style="fill:#66c2e5;fill-opacity:1;stroke:#66c2e5;stroke-width:0.28879228px;stroke-linecap:butt;stroke-linejoin:miter;stroke-opacity:1" />
      <path
         inkscape:connector-curvature="0"
         id="path5011"
         d="m 91.331464,171.51838 0.367496,4.71062 3.674954,-1.40316 1.102487,-1.87089 -1.937702,-2.13816 z"
         style="fill:#ffffff;fill-opacity:1;stroke:none;stroke-width:0.26458332px;stroke-linecap:butt;stroke-linejoin:miter;stroke-opacity:1" />
      <path
         style="fill:#66c2e5;fill-opacity:1;stroke:#66c2e5;stroke-width:0.22140199px;stroke-linecap:butt;stroke-linejoin:miter;stroke-opacity:1"
         d="m 126.15312,165.03317 c -1.55093,-3.7549 -6.79736,-4.67755 -7.61073,-2.24329 -3.34889,10.02262 3.44336,12.51419 4.42787,13.19692 z"
         id="path5013"
         inkscape:connector-curvature="0"
         sodipodi:nodetypes="cscc" />
      <path
         sodipodi:nodetypes="cccccc"
         style="fill:#ffffff;fill-opacity:1;stroke:none;stroke-width:0.26458332px;stroke-linecap:butt;stroke-linejoin:miter;stroke-opacity:1"
         d="m 125.53664,170.38776 -2.73933,3.84981 -1.42657,-1.55754 -0.98476,-3.70829 2.76177,-0.83608 z"
         id="path5015"
         inkscape:connector-curvature="0" />
      <path
         sodipodi:nodetypes="cccccccccccccccccc"
         inkscape:connector-curvature="0"
         id="path5017"
         d="m 97.423363,149.0223 0.472469,-11.15029 h 4.441218 l 2.07887,-2.45685 0.66146,-1.70089 2.64583,-1.70089 2.05595,-0.94495 0.43332,-3.58503 2.42344,-2.60866 c -0.30774,-2.13321 0.40103,-3.91265 -1.41643,-4.20065 -1.48145,-0.7382 -1.69661,-2.16711 -2.26786,-3.40179 0.48809,-1.63184 7.07077,1.0454 9.5439,7.74852 2.13757,2.20894 1.00204,5.67675 1.03944,8.69345 -3.29371,6.72138 -1.86146,14.46111 -7.9375,18.70982 l 8.64957,3.01807 c -2.09552,3.49626 -7.34241,2.37803 -11.76787,2.46258 -5.14948,0.70544 -10.023082,0.7803 -13.323664,-2.74032 z"
         style="fill:#66c2e5;fill-opacity:1;stroke:#66c2e5;stroke-width:0.26458332px;stroke-linecap:butt;stroke-linejoin:miter;stroke-opacity:1" />
      <path
         inkscape:connector-curvature="0"
         id="path4992"
         d="m 75.480378,190.86598 c 6.88e-4,-0.21892 0.149822,-0.69122 0.331276,-1.04955 0.636665,-1.25726 0.293704,-1.4072 -0.851023,-0.37204 -0.891488,0.80615 -1.167537,0.84824 -1.364809,0.2081 -0.100854,-0.32725 0.0092,-0.64454 0.35489,-1.02356 0.573737,-0.62897 0.233934,-0.72955 -0.588888,-0.17428 -0.428037,0.28884 -0.615767,0.31312 -0.817186,0.10571 -0.368036,-0.37904 0.192592,-1.34648 1.173251,-2.02455 0.422015,-0.29182 0.845333,-0.76553 0.940705,-1.05269 0.204755,-0.6165 0.951973,-1.00767 2.284079,-1.19572 0.531138,-0.075 0.965703,-0.17084 0.965703,-0.21305 0,-0.21529 -0.989706,-2.136 -1.100645,-2.136 -0.07108,0 -0.305074,0.3066 -0.520001,0.68131 -0.214927,0.37473 -0.830745,1.10603 -1.368485,1.62511 -2.886183,2.78607 -5.381329,3.52547 -11.153492,3.30522 -4.272746,-0.16303 -6.029428,-0.51023 -8.254638,-1.6315 -1.594143,-0.80327 -2.779732,-2.00389 -2.779732,-2.81499 0,-0.85694 0.495283,-1.48891 1.945336,-2.48221 1.834471,-1.25664 4.38259,-2.05706 7.772099,-2.4414 3.018201,-0.34224 4.137126,-0.5699 5.396782,-1.09802 2.271921,-0.95253 3.234934,-2.17805 4.941833,-6.28889 1.076884,-2.59354 1.724401,-3.90803 2.464978,-5.00405 0.211327,-0.31275 0.591754,-1.23395 0.845395,-2.0471 1.173502,-3.76221 4.1229,-7.96004 7.712457,-10.97702 2.259792,-1.89933 6.840298,-4.92356 8.066929,-5.32609 0.212564,-0.0698 0.394089,-0.19167 0.403386,-0.2709 0.0093,-0.0793 0.06833,-0.34877 0.131179,-0.59897 0.06285,-0.2502 0.147605,-2.14378 0.188342,-4.20795 0.09381,-4.75425 -0.14437,-6.54268 -1.60269,-12.03392 -0.565171,-2.12812 -0.683448,-2.37476 -1.171917,-2.44376 -1.122622,-0.15857 -1.52175,-0.32304 -2.190592,-0.90267 -1.025868,-0.88903 -1.334193,-1.68462 -1.334193,-3.44272 0,-1.32713 0.09462,-1.71262 0.636293,-2.5923 0.349961,-0.56834 0.95123,-1.26429 1.336147,-1.54659 0.960743,-0.70457 2.779509,-1.17898 3.475333,-0.90652 0.894114,0.35011 1.377181,0.25003 2.444837,-0.50651 0.558466,-0.39573 1.815492,-1.06704 2.793401,-1.49181 0.977896,-0.42475 1.880544,-0.85191 2.005884,-0.94922 0.12533,-0.0973 0.79992,-0.41052 1.499078,-0.69601 1.39535,-0.56975 3.97817,-0.72854 4.85853,-0.29869 1.35651,0.66235 2.11921,0.94709 2.92515,1.09206 0.48587,0.0874 1.4797,0.39332 2.20851,0.67983 0.72881,0.28651 1.92141,0.57724 2.65021,0.64607 2.1197,0.2002 6.34011,1.13062 6.84638,1.50934 0.12146,0.0908 0.51899,0.23839 0.8834,0.32784 0.66253,0.16263 1.84316,0.64704 2.62202,1.07581 0.54415,0.29956 2.60761,0.51264 3.28036,0.33874 0.29194,-0.0755 1.22008,-0.67553 2.0625,-1.33349 1.69177,-1.32129 3.32383,-2.00861 4.37712,-1.84337 1.92115,0.30138 4.15273,2.11178 5.1509,4.17873 1.1006,2.27903 1.38985,3.7455 1.38985,7.04657 0,2.49493 0.0663,3.17562 0.33127,3.40212 0.37283,0.31868 0.44868,1.49062 0.11043,1.70594 -0.12148,0.0773 -0.22086,0.37788 -0.22086,0.66794 0,0.6343 -0.4084,1.02065 -1.24388,1.17668 -0.82349,0.15379 -1.18547,0.49118 -1.18547,1.10491 0,1.07197 -1.41995,1.63489 -2.33194,0.92446 -0.23578,-0.18367 -0.61245,-0.33721 -0.83702,-0.34119 -0.22458,-0.004 -0.74674,-0.17262 -1.16034,-0.37476 -0.4753,-0.23229 -0.97518,-0.31091 -1.35848,-0.21366 -1.71929,0.43615 -1.79837,0.42724 -2.39215,-0.26968 l -0.57466,-0.67447 -1.13877,0.62451 c -1.58942,0.87165 -3.95914,1.43636 -5.27377,1.25675 -0.58238,-0.0796 -1.60668,-0.43738 -2.27621,-0.79514 -1.41644,-0.75687 -1.30964,-0.85039 -2.06016,1.80396 -0.2653,0.93826 -0.57966,2.02026 -0.69857,2.40445 -0.11891,0.38418 -0.21739,1.2542 -0.21884,1.93338 -0.002,1.29731 -0.35713,2.92086 -0.95546,4.37725 l -0.35654,0.86783 5.58235,5.72841 c 5.30774,5.44661 6.19073,6.52937 6.99023,8.57162 0.1714,0.43786 0.37847,0.84728 0.46015,0.90984 0.35397,0.27106 1.07244,2.05672 1.41855,3.52557 1.07239,4.55122 3.61949,10.47197 4.83314,11.23471 1.04421,0.65625 3.38541,1.29617 7.64891,2.09071 2.01333,0.37521 4.14247,1.07395 5.24114,1.72004 1.64236,0.96583 1.80207,1.91339 0.52309,3.10343 -0.96685,0.89963 -3.57962,2.23663 -5.13523,2.62781 -2.39972,0.60344 -4.01392,0.70746 -6.04196,0.38934 -4.76781,-0.74786 -8.28235,-2.68727 -10.58378,-5.84042 -0.96749,-1.32554 -1.01249,-1.35661 -1.206,-0.83238 -0.11057,0.2995 -0.46639,0.86932 -0.7907,1.26629 -0.6754,0.82667 -0.61444,1.07202 0.31388,1.26323 0.39275,0.0809 1.18643,0.66873 1.95906,1.45098 0.71435,0.72324 1.51251,1.49311 1.7737,1.7108 0.26119,0.21771 0.4749,0.5024 0.4749,0.63265 0,0.38476 -0.59179,0.50501 -1.10181,0.2239 -0.37033,-0.20413 -0.57902,-0.19028 -0.95587,0.0635 -0.27041,0.18206 -1.30643,0.37966 -2.35934,0.44999 -1.03247,0.0689 -2.62261,0.24976 -3.53361,0.40177 -2.20699,0.36826 -4.73414,0.16018 -5.91083,-0.48669 -1.1918,-0.65517 -1.54566,-1.48971 -1.15224,-2.71744 0.15846,-0.49451 0.23528,-0.95354 0.17069,-1.02005 -0.0646,-0.0666 -0.60502,0.077 -1.20097,0.31894 -1.70649,0.69274 -6.34713,1.71005 -7.62949,1.6725 -0.82173,-0.0241 -0.78204,0.22513 0.15285,0.95955 0.83148,0.65317 0.98225,1.13505 0.42416,1.35562 -0.60657,0.23972 -2.19295,-0.26465 -3.00663,-0.95593 -0.33405,-0.28379 -0.40825,-0.23317 -0.69523,0.47421 -0.17669,0.43554 -0.42182,0.85591 -0.54472,0.93413 -0.43011,0.27379 -0.92587,-0.13233 -0.92587,-0.75845 0,-0.65935 -0.53893,-1.95219 -0.91306,-2.19032 -0.12239,-0.0779 -0.786928,-0.19309 -1.476748,-0.25594 -2.180982,-0.19874 -5.49193,-1.06407 -7.613414,-1.98979 -1.09854,-0.47936 -1.336264,-0.29665 -0.926919,0.71235 0.504239,1.24291 0.422379,2.42698 -0.222335,3.2161 -0.663821,0.8125 -2.72961,1.40804 -6.184312,1.78288 -0.728807,0.0791 -1.800852,0.33387 -2.382321,0.56622 -1.310388,0.52362 -2.124724,0.53358 -3.133129,0.0383 l -0.782143,-0.38415 -0.726606,0.72532 c -0.810406,0.80897 -1.25839,0.92567 -1.256345,0.32728 z m 5.927518,-1.61619 c 0.375593,-0.2704 1.022652,-0.43494 1.800899,-0.45793 1.191952,-0.0352 3.54281,-0.401 4.196169,-0.6529 0.1822,-0.0702 0.562003,-0.14809 0.844006,-0.17298 0.667608,-0.0589 1.318871,-0.76099 1.371603,-1.47853 0.09258,-1.25977 -0.01158,-1.81966 -0.338378,-1.81966 -0.182201,0 -0.331279,-0.10031 -0.331279,-0.22284 0,-0.20766 0.463911,-1.57572 0.888562,-2.62036 0.417946,-1.02816 0.657504,-2.11208 0.711086,-3.21743 0.03117,-0.64368 0.14211,-1.11692 0.246457,-1.05166 0.361816,0.22628 -0.04852,-6.18759 -0.527226,-8.24103 -0.116662,-0.5004 -0.242038,-1.18742 -0.278629,-1.52673 -0.03656,-0.33929 -0.136538,-0.68901 -0.222111,-0.77714 -0.08557,-0.0881 -0.155588,-0.45025 -0.155588,-0.8047 0,-0.35446 -0.07454,-0.64496 -0.165636,-0.64558 -0.0911,-6.4e-4 -0.193057,-0.48435 -0.226568,-1.07494 -0.03349,-0.5906 -0.157742,-1.17352 -0.276068,-1.29538 -0.341439,-0.35165 -0.242306,-1.10542 0.226574,-1.72278 0.237529,-0.31275 0.434085,-0.65102 0.43679,-0.75171 0.0074,-0.27825 1.765647,-2.88759 1.945675,-2.88759 0.294768,0 4.02012,-3.79309 3.873578,-3.94402 -0.08021,-0.0826 -0.03237,-0.1502 0.1063,-0.1502 0.361642,0 1.102402,-1.78983 1.509887,-3.6482 0.287939,-1.31315 0.404074,-1.54941 0.655846,-1.3342 0.168278,0.14383 0.305956,0.40251 0.305956,0.57485 0,0.24003 0.413341,0.31333 1.766801,0.31333 2.596028,0 2.252008,0.53917 -0.52193,0.81801 -1.573346,0.15815 -1.612448,0.18221 -1.778503,1.09384 -0.176824,0.97072 -0.940083,2.54262 -1.600387,3.29592 -0.262702,0.2997 -0.429046,0.67534 -0.369653,0.83474 0.05941,0.15941 0.721553,0.54799 1.471466,0.86354 1.314067,0.55292 1.982527,0.77568 3.717585,1.23886 1.01493,0.27093 5.53046,0.29136 6.41858,0.029 0.36531,-0.1079 2.58189,-0.20805 4.92576,-0.22258 4.72736,-0.0292 5.50411,-0.17569 7.10545,-1.3392 l 1.06034,-0.77042 -0.77297,-0.28781 c -0.42515,-0.15829 -1.08116,-0.2956 -1.4578,-0.30511 -0.37664,-0.01 -0.97293,-0.10777 -1.32511,-0.21823 -0.35215,-0.11051 -1.08751,-0.3346 -1.63412,-0.49798 -1.20604,-0.3605 -4.06193,-1.86058 -4.96051,-2.60558 -0.94117,-0.7803 -0.51464,-0.96928 0.54998,-0.24368 l 0.89888,0.61263 0.60253,-0.52248 c 1.6279,-1.41161 3.44394,-4.02729 4.07386,-5.86771 0.19268,-0.56296 0.40727,-1.91539 0.47687,-3.00541 0.14157,-2.21757 0.54108,-4.20667 1.11304,-5.5417 0.63163,-1.47431 0.73955,-1.76517 0.98522,-2.65513 0.1295,-0.46912 0.33483,-1.19288 0.4563,-1.60835 0.12146,-0.41546 0.22086,-0.97841 0.22086,-1.25101 0,-0.27259 0.0994,-0.49563 0.22084,-0.49563 0.12746,0 0.22086,0.71581 0.22086,1.6925 0,0.93088 -0.0994,1.75576 -0.22086,1.83308 -0.34476,0.21945 -0.25914,0.7961 0.11819,0.7961 0.18649,0 0.57165,0.15696 0.85592,0.34879 0.28427,0.19184 0.75284,0.40436 1.04127,0.47228 0.64494,0.15188 2.7946,0.15175 3.39546,-2.1e-4 0.79812,-0.20182 1.98506,-0.70346 2.12278,-0.89716 0.0743,-0.10452 0.19854,-0.18127 0.27607,-0.17058 0.39629,0.0546 0.72363,-0.008 1.00437,-0.19051 0.26352,-0.1718 0.26608,-0.31968 0.0166,-0.9632 -0.46475,-1.19913 -1.09372,-2.01126 -1.55768,-2.01126 -0.23465,0 -0.42666,-0.10236 -0.42666,-0.22746 0,-0.1251 -0.14907,-0.22745 -0.33127,-0.22745 -0.1822,0 -0.33127,-0.10237 -0.33127,-0.22746 0,-0.1251 -0.14908,-0.22746 -0.33128,-0.22746 -0.36617,0 -0.48501,-1.46749 -0.1368,-1.68913 0.22794,-0.1451 0.42721,-0.90078 0.69419,-2.63254 0.33871,-2.19702 0.47312,-2.68426 0.8578,-3.10952 0.207,-0.22882 0.3921,-0.49649 0.41131,-0.59477 0.0193,-0.0983 0.18786,-0.3362 0.37476,-0.52868 0.54876,-0.56517 0.66342,0.15977 0.17012,1.07559 -0.60693,1.12673 -1.01126,2.82593 -0.85901,3.60994 0.075,0.38678 0.0393,0.68472 -0.0824,0.68472 -0.11843,0 -0.21533,0.10237 -0.21533,0.22746 0,0.1251 0.17391,0.22758 0.38649,0.22774 0.55207,4.5e-4 1.60116,0.9954 1.60116,1.51862 0,0.24333 -0.20264,0.66644 -0.45031,0.94023 -0.36076,0.39882 -0.38272,0.4978 -0.11042,0.4978 0.18693,0 0.33989,0.19218 0.33989,0.42707 0,0.23487 0.14906,0.55448 0.33127,0.71022 0.1822,0.15573 0.33127,0.47534 0.33127,0.71021 0,0.5013 0.0818,0.52032 0.65446,0.15203 0.34851,-0.22416 0.58285,-0.19553 1.2669,0.15472 0.4616,0.23635 0.92121,0.40876 1.02134,0.38312 0.10013,-0.0257 0.12335,0.0512 0.0515,0.17076 -0.0718,0.11956 -0.0294,0.28166 0.094,0.36024 0.12344,0.0785 0.22776,0.41831 0.2318,0.75496 l 0.007,0.61207 0.4114,-0.50776 0.41138,-0.50777 0.1509,0.61922 c 0.22719,0.93222 0.74354,1.19586 1.27342,0.65012 0.547,-0.56335 2.12241,-1.28861 2.26889,-1.0445 0.0758,0.12622 0.23185,0.16956 0.34689,0.0963 0.34225,-0.21785 -0.005,-0.55663 -0.57098,-0.55663 -0.28934,0 -0.58441,-0.0972 -0.65571,-0.21605 -0.18156,-0.30254 0.5549,-0.6527 1.15967,-0.55139 0.30348,0.0509 0.55448,-0.0512 0.63096,-0.25645 0.0699,-0.18747 0.26545,-0.34085 0.43466,-0.34085 0.1692,0 0.30765,-0.1143 0.30765,-0.25399 0,-0.14197 0.19472,-0.20154 0.44147,-0.13508 0.59526,0.16032 0.75063,-0.17033 0.29872,-0.63575 -0.30524,-0.31439 -0.37404,-0.92935 -0.40278,-3.60078 -0.037,-3.4453 -0.17778,-4.15258 -1.28961,-6.48183 -0.71766,-1.50347 -2.56251,-3.4498 -3.26993,-3.4498 -0.20842,0 -0.41579,-0.11385 -0.46083,-0.253 -0.045,-0.13917 -0.5756,-0.26068 -1.17903,-0.27006 -1.13417,-0.0176 -1.5815,0.21637 -4.51084,2.35967 -0.89788,0.65695 -1.14258,0.72364 -2.71914,0.74111 -1.23376,0.0137 -1.7856,-0.0694 -1.917,-0.28834 -0.10674,-0.17786 -0.3804,-0.25475 -0.64914,-0.18237 -0.25555,0.0688 -0.40849,0.0316 -0.33989,-0.0827 0.0686,-0.11431 -0.0555,-0.26759 -0.27576,-0.3406 -0.22026,-0.073 -0.59926,-0.21076 -0.84218,-0.3061 -1.36627,-0.53624 -2.7126,-0.98061 -3.15768,-1.04221 -0.2791,-0.0386 -0.62693,-0.16364 -0.77298,-0.27778 -0.14603,-0.11414 -0.62076,-0.22696 -1.05498,-0.25073 -0.4342,-0.0238 -1.12923,-0.14356 -1.54449,-0.26622 -1.45487,-0.42973 -1.48177,-0.13556 -0.0824,0.89952 0.55381,0.40962 1.36294,1.297 1.79807,1.97195 0.43513,0.67496 0.89303,1.22719 1.01754,1.22719 0.12451,0 0.16307,0.0653 0.0856,0.14491 -0.0774,0.0797 0.0552,0.42817 0.29446,0.77435 0.23935,0.34619 0.43519,0.78671 0.43519,0.97895 0,0.19223 0.0994,0.41277 0.22084,0.49008 0.12146,0.0773 0.22085,0.39043 0.22085,0.6958 0,0.30536 -0.0994,0.55521 -0.22085,0.55521 -0.12146,0 -0.22084,-0.15353 -0.22084,-0.34119 0,-0.18765 -0.0752,-0.34118 -0.16694,-0.34118 -0.0918,0 -0.30677,-0.33266 -0.47768,-0.73923 -0.89152,-2.12091 -2.97732,-4.4769 -5.0292,-5.6807 -1.87969,-1.10277 -3.47782,-1.77221 -3.57363,-1.49694 -0.0452,0.12978 0.019,0.30088 0.14235,0.38025 0.12346,0.0794 0.31194,0.6012 0.41883,1.15966 0.17514,0.91511 0.26846,1.03098 0.9451,1.17351 0.77168,0.16254 1.89571,1.28172 2.57898,2.56785 0.60955,1.14735 0.2921,2.35569 -0.91648,3.48856 -0.56722,0.53168 -1.1587,0.96669 -1.31441,0.96669 -0.54405,0 -0.94976,1.5664 -0.67166,2.59318 0.12443,0.45943 0.0729,0.87385 -0.16971,1.36474 -0.19163,0.38771 -0.41418,0.94354 -0.49458,1.23516 -0.17247,0.6257 -1.95732,1.85808 -2.69103,1.85808 -0.28154,0 -0.69614,-0.11851 -0.92134,-0.26335 -0.59456,-0.38242 -1.06629,-0.10075 -1.2465,0.74437 -0.14889,0.69813 -0.78732,2.04733 -1.24185,2.62436 -0.11358,0.14421 -0.76741,0.5357 -1.45296,0.87001 -1.77301,0.86458 -3.358368,0.73759 -5.541404,-0.44386 -0.882857,-0.47781 -1.703775,-1.05845 -1.824262,-1.29031 -0.120486,-0.23187 -0.190721,-0.4294 -0.156076,-0.43898 0.610458,-0.16867 0.948697,-0.0807 1.420183,0.36932 0.312109,0.2979 0.63133,0.52877 0.709384,0.51304 0.07806,-0.0157 0.44007,0.10194 0.804472,0.26142 0.364408,0.1595 1.308545,0.33798 2.098085,0.39661 1.312048,0.0974 1.524688,0.0475 2.472048,-0.58126 0.76758,-0.5094 1.18301,-1.00683 1.60116,-1.91717 0.31056,-0.6761 0.56466,-1.32846 0.56466,-1.44967 0,-0.24289 -1.43217,-0.2165 -2.0416,0.0375 -0.21188,0.0883 -0.32872,0.25479 -0.25965,0.36988 0.0691,0.11509 0.0436,0.18629 -0.0564,0.15821 -0.10013,-0.028 -0.88487,0.0249 -1.74387,0.11787 -0.998478,0.108 -1.795078,0.0788 -2.208508,-0.0811 -0.630563,-0.24379 -2.082222,-1.70431 -2.082222,-2.09491 0,-0.10765 -0.198766,-0.41538 -0.441704,-0.68394 -0.242933,-0.26857 -0.441698,-0.78014 -0.441698,-1.13684 0,-0.84674 -0.680649,-2.17223 -1.530816,-2.98112 -0.372734,-0.35463 -0.677694,-0.83497 -0.677694,-1.06742 0,-0.23245 -0.19047,-0.76115 -0.423267,-1.17487 -0.718193,-1.27639 -0.504165,-2.40747 0.739183,-3.90636 0.918704,-1.10752 1.313424,-1.38167 1.904795,-1.32298 0.06745,0.006 0.233461,-0.29022 0.368909,-0.65981 l 0.246282,-0.67198 -0.887053,0.51346 c -0.487874,0.2824 -1.317726,1.00086 -1.844107,1.59657 -1.340069,1.51657 -1.768727,1.4489 -1.109839,-0.17521 l 0.320004,-0.78879 h -0.88093 c -2.259525,0 -4.176099,2.06672 -4.176099,4.50323 0,1.18518 0.08049,1.42733 0.717763,2.15957 0.466007,0.53545 0.969526,0.86091 1.435532,0.92788 0.703218,0.10108 0.717767,0.0853 0.717767,-0.77563 0,-1.54444 0.440954,-3.20934 0.829364,-3.13141 0.285621,0.0573 0.358253,0.53747 0.417132,2.75764 0.03919,1.47853 0.139117,2.80127 0.222016,2.93941 0.08289,0.13814 0.227007,0.6173 0.320248,1.06479 0.09324,0.4475 0.281164,1.22304 0.417603,1.72345 0.516564,1.89451 0.715769,2.77046 0.931068,4.09422 0.285616,1.75607 0.349152,9.87211 0.08177,10.44563 -0.173593,0.37237 -0.140701,0.41235 0.220851,0.2684 0.997035,-0.39698 1.639515,-0.42717 1.639515,-0.077 0,0.27279 -1.647609,1.3045 -2.083234,1.3045 -0.20755,0 -4.435025,2.60644 -4.505485,2.77785 -0.04051,0.0985 -0.214409,0.17908 -0.386488,0.17908 -0.172078,0 -0.312873,0.10237 -0.312873,0.22746 0,0.1251 -0.149071,0.22746 -0.331277,0.22746 -0.1822,0 -0.331275,0.0955 -0.331275,0.21212 0,0.11667 -0.17392,0.27118 -0.386489,0.34337 -0.212569,0.0722 -0.701885,0.41174 -1.08737,0.75457 -0.385486,0.34283 -1.177926,1.03274 -1.760978,1.53314 -1.258081,1.07975 -2.993149,2.95164 -2.985662,3.2211 0.003,0.10496 -0.129788,0.26861 -0.294895,0.36378 -0.422592,0.24356 -2.318639,3.2271 -2.318639,3.6485 0,0.19168 -0.09561,0.38262 -0.212484,0.42433 -0.35047,0.12506 -1.516008,3.84188 -1.664287,5.30731 -0.21234,2.09852 -0.241745,7.8 -0.0481,9.32573 0.194023,1.52872 1.45657,5.87245 1.74096,5.98969 0.10115,0.0417 0.183911,0.21601 0.183911,0.38735 0,0.55739 0.500466,1.45966 0.728971,1.31421 0.131666,-0.0838 0.15374,-0.0269 0.054,0.13935 -0.262498,0.43743 0.911294,1.5363 2.118701,1.98346 0.775014,0.28703 1.073637,0.51852 1.073637,0.83226 0,0.44709 0.0053,0.44701 -1.490742,0.0193 -0.30098,-0.086 -0.496915,-0.0419 -0.496915,0.11195 0,0.1397 -0.322995,0.25761 -0.717765,0.26206 -0.394772,0.004 -0.95906,0.14572 -1.253976,0.31397 l -0.536211,0.30593 0.480998,0.30937 c 0.305318,0.19637 0.480999,0.53861 0.480999,0.93702 0,0.59419 0.05413,0.62766 1.014947,0.62766 0.630748,0 1.236858,-0.15976 1.601169,-0.42205 z m 26.977894,-32.54766 c -2.67536,-0.13191 -2.81576,-0.23305 -0.94932,-0.68392 1.09675,-0.26492 1.74066,-0.24352 3.30934,0.10999 0.74345,0.16754 1.23783,0.82563 0.55931,0.74452 -0.20875,-0.0249 -1.52245,-0.10172 -2.91933,-0.17059 z m 3.23289,-8.31366 c -0.0949,-0.25472 0.0344,-0.34119 0.51044,-0.34119 0.35065,0 0.79477,-0.0621 0.9869,-0.13806 0.60781,-0.24021 0.37841,-0.54431 -0.41061,-0.54431 -1.10777,0 -1.13925,-0.34495 -0.0866,-0.94846 0.50846,-0.29149 0.9642,-0.68353 1.01273,-0.87119 0.0541,-0.20905 0.0176,-0.25015 -0.0942,-0.10615 -0.10034,0.1293 -0.30668,0.21886 -0.45852,0.19903 -0.15183,-0.0197 -0.38687,-0.0489 -0.5223,-0.0645 -0.15064,-0.0174 -0.0917,-0.27131 0.15193,-0.65394 0.21901,-0.34402 0.52798,-0.88139 0.6866,-1.19415 0.15861,-0.31275 0.30143,-0.44069 0.31737,-0.28432 0.0159,0.15638 0.0414,0.40765 0.0566,0.55839 0.0152,0.15074 0.26869,0.33268 0.56335,0.40432 0.78543,0.19097 0.78441,0.54273 -0.004,1.35464 -0.67466,0.69484 -0.68362,0.7279 -0.23041,0.84997 0.83084,0.22376 0.40366,1.66613 -0.49346,1.66613 -0.1837,0 -0.39543,0.10237 -0.47051,0.22746 -0.21351,0.35582 -1.37285,0.26881 -1.51539,-0.11372 z m 23.51647,-17.23677 c -0.13599,-0.14006 -0.24726,-0.16713 -0.24726,-0.0602 0,0.10701 -0.19876,0.01 -0.4417,-0.21722 -0.24295,-0.22642 -0.44171,-0.32605 -0.44171,-0.22139 0,0.26571 -1.46018,-1.45136 -1.728,-2.03199 -0.64488,-1.39809 -0.93668,-2.5885 -1.02274,-4.17226 -0.0357,-0.65678 0.0264,-1.19414 0.13794,-1.19414 0.11154,0 0.18429,-0.12796 0.16166,-0.28433 -0.0767,-0.53043 0.4795,-1.64724 1.02496,-2.05782 0.76418,-0.57524 2.27342,-0.61955 2.79528,-0.0821 0.16302,0.1679 0.51796,0.42739 0.78876,0.57665 0.27079,0.14925 0.49236,0.42131 0.49236,0.60456 0,0.18325 0.0929,0.33318 0.20655,0.33318 0.11361,0 0.33234,0.35825 0.48608,0.7961 0.15372,0.43785 0.34733,0.7961 0.43022,0.7961 0.49604,0 0.8025,3.82005 0.4058,5.05802 -0.29056,0.90675 -1.21089,2.03532 -1.78207,2.1853 -0.80555,0.21151 -1.03819,0.20628 -1.26613,-0.0285 z m -11.95236,56.47066 c 1.39688,-0.13924 2.7608,-0.26843 3.03094,-0.28708 0.56256,-0.0388 0.67293,-0.24127 0.63803,-1.1701 -0.021,-0.5582 -0.13003,-0.6777 -0.68748,-0.75327 -0.3644,-0.0494 -0.74469,-0.17322 -0.84509,-0.27515 -0.10034,-0.10194 -0.58353,-0.0926 -1.07362,0.0209 -0.61816,0.14304 -0.98503,0.12591 -1.19779,-0.056 -0.27894,-0.23844 -0.39776,-0.13318 -0.33549,0.29714 0.0129,0.0893 -0.11457,0.10787 -0.28334,0.0411 -0.40869,-0.16151 -0.31721,-0.64722 0.2409,-1.27907 0.25102,-0.28416 0.74147,-0.97726 1.08993,-1.54023 0.34846,-0.56294 0.68418,-1.07472 0.74605,-1.13727 0.21714,-0.21951 0.91397,-1.4826 1.03527,-1.87651 0.0674,-0.21893 0.21036,-0.39805 0.31766,-0.39805 0.1073,0 0.1951,-0.11674 0.1951,-0.25942 0,-0.14267 0.19074,-0.68003 0.42387,-1.19414 0.56601,-1.24817 0.75923,-1.80491 0.70769,-2.0391 -0.0235,-0.10701 0.0639,-0.32698 0.19435,-0.48884 0.13044,-0.16187 0.26794,-0.64755 0.30555,-1.07929 0.0377,-0.43173 0.14314,-0.90952 0.23448,-1.06174 0.26196,-0.43654 0.4189,-2.00519 0.42289,-4.22676 0.008,-4.80217 -0.97403,-7.92105 -3.33161,-10.5744 -0.66098,-0.7439 -0.63524,-0.47718 0.0937,0.97193 0.59694,1.18661 0.64892,1.31783 0.70059,1.76865 0.0152,0.13249 0.14234,0.16785 0.28258,0.0786 0.14023,-0.0893 0.20023,-0.0697 0.13333,0.0435 -0.0669,0.11316 -0.0288,0.76869 0.0847,1.45674 0.26046,1.57961 0.24383,5.99405 -0.0266,7.04875 -0.11259,0.43918 -0.25174,1.0544 -0.30923,1.36715 -0.25029,1.36188 -2.22885,5.68641 -2.60163,5.68641 -0.10215,0 -0.18575,0.11691 -0.18575,0.25979 0,0.70501 -4.55857,5.42663 -5.23921,5.42663 -0.15514,0 -0.28206,0.10236 -0.28206,0.22745 0,0.1251 -0.10633,0.22745 -0.23627,0.22745 -0.12995,0 -0.66357,0.30279 -1.18583,0.67286 -0.79615,0.56414 -0.93188,0.768 -0.84021,1.26188 0.0717,0.38599 -0.0162,0.68355 -0.25468,0.86317 -0.31166,0.23471 -0.3236,0.36229 -0.0831,0.88727 0.33799,0.73762 0.80297,0.9388 2.9313,1.26833 1.23645,0.19145 1.59527,0.17906 5.19001,-0.17929 z m -18.71916,-0.57163 c -0.48828,-0.44081 -0.94183,-1.01438 -1.0079,-1.27461 -0.10773,-0.42425 -0.0475,-0.45919 0.58293,-0.33808 1.53671,0.29522 1.76307,0.29893 2.60575,0.0427 0.97419,-0.29625 0.93947,-0.63636 -0.0442,-0.43373 -0.90548,0.18651 -2.42448,-0.0954 -3.22881,-0.59911 -0.5502,-0.34462 -0.66618,-0.54175 -0.56142,-0.9543 0.0726,-0.28599 0.17257,-0.39466 0.22214,-0.24152 0.0495,0.15315 0.28061,0.27846 0.51342,0.27846 0.23281,0 0.4233,0.0893 0.4233,0.19851 0,0.1092 0.96898,0.21408 2.1533,0.2331 1.84857,0.0297 2.20518,0.0982 2.51997,0.48385 0.20166,0.2471 0.60763,0.44928 0.90215,0.44928 0.63013,0 2.97327,-0.75008 4.30525,-1.37818 0.51491,-0.24281 0.98165,-0.44147 1.03721,-0.44147 0.16884,0 2.80707,-1.62637 3.2767,-2.01996 0.60053,-0.50331 2.84197,-2.80435 3.26661,-3.35346 0.73945,-0.9562 0.73566,-1.03522 -0.0455,-0.9476 -0.81328,0.0911 -2.39779,0.81077 -2.39779,1.0889 0,0.0962 -0.18238,0.22414 -0.4053,0.28417 -0.60641,0.16333 -0.34225,-0.89692 0.43758,-1.75633 0.58682,-0.64672 0.72626,-0.68899 2.3206,-0.70327 1.69471,-0.0152 1.69663,-0.016 2.09583,-0.78252 0.41574,-0.79839 0.37281,-1.18833 -0.0796,-0.72245 -0.40827,0.42049 -0.72005,0.3263 -1.55603,-0.47007 -0.57588,-0.54858 -0.92516,-1.20853 -1.3543,-2.55889 -0.67947,-2.13802 -0.79365,-2.77665 -0.94804,-5.30266 -0.13811,-2.25993 0.0568,-2.52607 1.8589,-2.53736 1.88146,-0.0118 2.79481,0.49812 3.48147,1.94358 0.3223,0.67847 0.63984,1.23358 0.70564,1.23358 0.35343,0 -0.46441,-4.06941 -1.06219,-5.28527 -0.1068,-0.21724 -0.19418,-0.5499 -0.19418,-0.73924 0,-0.18935 -0.10521,-0.34427 -0.23389,-0.34427 -0.12863,0 -0.17741,-0.0941 -0.10839,-0.20912 0.069,-0.11502 -0.0245,-0.36359 -0.20782,-0.5524 -0.18331,-0.1888 -0.3333,-0.43822 -0.3333,-0.55426 0,-0.44573 -1.57176,-2.30346 -2.23883,-2.6462 -0.91352,-0.46935 -1.01532,-0.45642 -1.19688,0.15208 -0.41821,1.40155 -2.51707,2.21771 -5.70312,2.21771 h -2.27588 l 0.13174,0.83474 c 0.12604,0.79864 0.17394,0.83824 1.10727,0.91534 1.93363,0.1597 4.00466,2.05136 4.80767,4.39124 0.6907,2.01263 0.70744,4.72163 0.0381,6.15547 -0.55936,1.19816 -2.34866,3.01207 -3.34646,3.39251 -0.39036,0.14884 -0.89504,0.3726 -1.12152,0.49727 -0.59882,0.32965 -4.63439,0.28558 -5.25664,-0.0574 -0.28348,-0.15625 -0.5413,-0.26472 -0.57294,-0.24105 -0.0316,0.0236 -0.35975,-0.11792 -0.72915,-0.31465 -0.9186,-0.48924 -2.14745,-1.87265 -2.46382,-2.77373 -0.14378,-0.4095 -0.34084,-0.74455 -0.4379,-0.74455 -0.0971,0 -0.17649,-0.26262 -0.17649,-0.58359 0,-0.32099 -0.0993,-0.77472 -0.22068,-1.0083 -0.2923,-0.56248 0.14227,-3.8188 0.56817,-4.25744 0.17327,-0.17847 0.31506,-0.40214 0.31506,-0.49704 0,-0.21173 2.20571,-2.52858 2.21553,-2.32719 0.004,0.0792 0.15295,-0.0548 0.33128,-0.29759 0.17834,-0.24283 0.32425,-0.36842 0.32425,-0.27908 0,0.0893 0.22361,0.0166 0.49693,-0.16165 0.50494,-0.32935 1.63055,-0.65015 2.76843,-0.78903 0.19329,-0.0236 0.26291,-0.3431 0.2182,-1.00133 -0.0361,-0.53167 -0.13902,-0.9411 -0.22866,-0.90982 -0.0897,0.0313 -1.0136,0.0568 -2.05326,0.0568 -1.03963,0 -1.84445,0.0768 -1.78848,0.17058 0.13619,0.22828 -6.33833,0.26909 -6.48353,0.0409 -0.0625,-0.0982 -0.509678,-0.22749 -0.993828,-0.28738 -0.48414,-0.0599 -1.15356,-0.2183 -1.48759,-0.35203 -0.334039,-0.13374 -0.608863,-0.16893 -0.610722,-0.0782 -0.0019,0.0907 -0.0764,0.0505 -0.165642,-0.0894 -0.173937,-0.27266 -1.985154,-1.22412 -2.330267,-1.22412 -0.206453,0 -1.190378,0.83993 -2.943341,2.51259 -0.503357,0.48031 -1.229005,1.43818 -1.612564,2.12861 -0.656621,1.18198 -0.681594,1.30954 -0.427417,2.18326 0.205852,0.70764 0.352738,0.89191 0.618727,0.77617 1.19272,-0.519 2.76568,-0.98939 4.142948,-1.23893 2.893697,-0.52431 6.459406,0.2457 6.920376,1.49445 0.71322,1.932 -1.54076,6.84003 -4.121986,8.97563 -0.529218,0.43787 -1.086137,0.89905 -1.2376,1.02487 -0.628544,0.52213 -2.329046,1.2694 -3.254962,1.43036 -0.693471,0.12056 -1.014757,0.2946 -1.067826,0.57841 -0.08234,0.44033 0.155494,0.43271 3.128316,-0.10032 0.709176,-0.12714 1.553934,-0.17756 1.877231,-0.11203 0.323296,0.0655 1.035033,0.14255 1.581639,0.17114 0.76223,0.0399 1.13866,0.20391 1.615308,0.70378 0.56585,0.59344 0.717,1.13145 0.30996,1.10328 -0.089,-0.006 -0.721988,-0.17894 -1.406698,-0.38394 -0.945591,-0.28311 -1.728483,-0.33967 -3.255899,-0.23519 -3.400897,0.23261 -3.832741,0.33768 -3.986814,0.96992 -0.07467,0.30637 -0.06766,0.67049 0.01559,0.80918 0.09151,0.15248 0.05052,0.18799 -0.103669,0.0899 -0.166882,-0.10625 -0.254978,0.0351 -0.254978,0.40908 0,0.31424 -0.0913,0.80647 -0.202885,1.09384 -0.437885,1.12768 -0.504953,1.71321 -0.183603,1.60289 0.0911,-0.0313 0.165643,0.0232 0.165643,0.12094 0,0.0978 0.472066,0.31972 1.049037,0.49316 0.576973,0.17346 1.198117,0.38857 1.380318,0.47804 0.937397,0.4603 1.525856,0.64867 2.429361,0.77765 5.051687,0.72118 4.977037,0.696 5.310367,1.79103 0.40219,1.32131 0.6526,1.52689 0.6526,0.53577 0,-0.93986 0.4351,-1.13723 0.9261,-0.42011 0.27507,0.40176 1.83932,1.36689 2.24979,1.38811 0.10692,0.005 -0.20509,-0.3506 -0.69337,-0.7914 z m 4.98861,-9.40749 c -0.80884,-0.40464 -1.06575,-0.93249 -0.45911,-0.94335 0.35637,-0.006 0.35484,-0.0259 -0.0197,-0.25009 -0.2234,-0.13375 -0.64276,-0.1966 -0.93193,-0.13967 -0.28918,0.057 -0.477,0.0222 -0.41738,-0.0771 0.0596,-0.0993 -0.0676,-0.2829 -0.28275,-0.40789 -0.30196,-0.17545 -0.33146,-0.28936 -0.12941,-0.49961 0.20004,-0.20816 0.49637,-0.2115 1.25727,-0.0141 1.39443,0.36162 4.06078,0.32146 5.34749,-0.0806 1.36642,-0.42691 1.55838,-0.42588 1.72054,0.01 0.0759,0.20379 0.0385,0.29383 -0.0884,0.21303 -0.12094,-0.077 -0.27717,0.0138 -0.34719,0.20175 -0.0701,0.18793 -0.41717,0.40727 -0.77143,0.4874 -0.35425,0.0802 -0.6441,0.23671 -0.6441,0.34795 0,0.11123 0.14908,0.14332 0.33128,0.0713 0.50994,-0.20154 0.39882,0.44724 -0.13545,0.79087 -1.01293,0.65151 -3.396,0.80792 -4.42979,0.29075 z m 2.30152,-0.87351 c -0.39477,-0.0504 -1.04076,-0.0504 -1.43553,0 -0.39478,0.0505 -0.0718,0.0917 0.71777,0.0917 0.78954,0 1.11254,-0.0413 0.71776,-0.0917 z m 1.7116,-0.29038 c 0,-0.12509 -0.0994,-0.22745 -0.22085,-0.22745 -0.12148,0 -0.22086,0.10237 -0.22086,0.22745 0,0.12511 0.0994,0.22747 0.22086,0.22747 0.12147,0 0.22085,-0.10237 0.22085,-0.22747 z m -36.007211,10.47519 c 0.170409,-0.2435 0.384248,-0.39536 0.475197,-0.33748 0.09095,0.0579 0.227785,0.001 0.30408,-0.1259 0.0763,-0.12715 0.381313,-0.23116 0.677814,-0.23116 0.688372,0 0.677833,-0.12351 -0.06825,-0.79983 -0.619507,-0.56157 -2.263722,-0.80668 -2.263722,-0.33746 0,0.1251 0.341974,0.22745 0.759943,0.22745 0.683829,0 1.368445,0.41413 0.799048,0.48335 -0.595942,0.0725 -1.412677,0.45157 -1.601571,0.74345 -0.150843,0.23307 0.180294,0.82032 0.46257,0.82032 0.07978,0 0.284477,-0.19923 0.454888,-0.44274 z m -9.156783,-0.34889 c 0.773713,-0.0485 1.803019,-0.29607 2.429359,-0.58435 0.242935,-0.11181 0.590775,-0.2318 0.772978,-0.26663 0.543986,-0.10398 2.109863,-1.24619 3.130459,-2.28346 1.413522,-1.43663 1.863476,-2.23016 1.610797,-2.84077 -0.0906,-0.21892 -0.1873,-0.55158 -0.214901,-0.73923 -0.02761,-0.18766 -0.210266,-1.02821 -0.405918,-1.86789 -0.602406,-2.58538 -0.851342,-7.20381 -0.496993,-9.22062 0.114568,-0.65209 0.09166,-0.96669 -0.07042,-0.96669 -0.132146,0 -0.240263,0.11052 -0.240263,0.24558 0,0.13509 -0.447223,1.21813 -0.993829,2.40678 -0.546606,1.18864 -0.993828,2.26083 -0.993828,2.38263 0,0.23675 -1.494172,2.51101 -2.146899,3.26776 -0.455566,0.52817 -2.737937,1.79272 -3.705649,2.0531 -0.364403,0.0981 -0.761934,0.2046 -0.883402,0.23676 -0.268241,0.071 -2.975669,0.48955 -4.196166,0.64866 -1.073624,0.13998 -2.094086,0.35113 -2.539785,0.52554 -0.473083,0.18514 -0.667849,0.2436 -1.633476,0.49044 -0.473276,0.12099 -0.943821,0.35531 -1.04566,0.52074 -0.101838,0.16542 -0.186684,0.22137 -0.188543,0.12433 -0.01109,-0.57886 -2.874442,1.68945 -2.874442,2.27711 0,0.82343 2.27464,2.43355 3.975315,2.81395 0.425138,0.0951 1.170509,0.29267 1.65638,0.43908 0.485873,0.14639 1.708858,0.29538 2.717747,0.33109 1.008886,0.0357 1.903332,0.1376 1.987658,0.22644 0.08432,0.0889 0.948377,0.085 1.920121,-0.009 0.971743,-0.0936 2.064955,-0.18887 2.429359,-0.2117 z m 74.687084,-0.0782 c 0.22121,-0.11636 0.79973,-0.33599 1.2856,-0.48806 1.29734,-0.40603 2.09809,-0.77706 2.09809,-0.97217 0,-0.0946 0.18219,-0.17193 0.40489,-0.17193 0.2227,0 0.79227,-0.34485 1.2657,-0.76635 0.7554,-0.67252 0.82378,-0.81227 0.5585,-1.14148 -0.46252,-0.57397 -4.02376,-1.95893 -5.03714,-1.95893 -0.2371,0 -0.50294,-0.074 -0.59075,-0.16443 -0.0879,-0.0904 -0.47707,-0.18072 -0.86501,-0.20063 -0.38794,-0.02 -1.40102,-0.21553 -2.25129,-0.43468 -0.85028,-0.21916 -1.69679,-0.41519 -1.88112,-0.43563 -0.18434,-0.0204 -0.44333,-0.10604 -0.57552,-0.19017 -0.54223,-0.34513 -1.43027,-0.61481 -1.29784,-0.39411 0.25296,0.42154 -0.92643,-0.17835 -1.46572,-0.74552 -0.82761,-0.87041 -1.3576,-1.73891 -2.25171,-3.68988 -0.45866,-1.00081 -0.92792,-1.99739 -1.04281,-2.21462 -0.11489,-0.21722 -0.20889,-0.59501 -0.20889,-0.83953 0,-0.24452 -0.0994,-0.50784 -0.22085,-0.58516 -0.12147,-0.0773 -0.22086,-0.39042 -0.22086,-0.6958 0,-0.30537 -0.0994,-0.55521 -0.22085,-0.55521 -0.12146,0 -0.22236,-0.17912 -0.2242,-0.39805 -0.002,-0.21893 -0.13746,-0.85865 -0.30138,-1.42161 l -0.29803,-1.02354 -0.0109,2.10969 c -0.01,1.92342 -0.27485,3.75859 -0.71331,4.94146 -0.0927,0.25019 -0.29063,0.87552 -0.43975,1.38959 -0.14911,0.51407 -0.63785,1.71371 -1.08608,2.66586 l -0.81497,1.73117 0.3968,0.84016 c 0.44108,0.93394 2.7197,3.26758 3.19054,3.26758 0.16571,0 0.30129,0.0871 0.30129,0.19343 0,0.49685 4.90738,2.48014 5.79335,2.34132 0.21037,-0.033 0.55821,0.0536 0.77298,0.19227 0.45961,0.29686 5.32258,0.14565 5.95125,-0.18504 z m -66.736456,-0.94978 c 0.07507,-0.12511 -0.01259,-0.22746 -0.194783,-0.22746 -0.182202,0 -0.392697,0.10236 -0.467768,0.22746 -0.07507,0.1251 0.01259,0.22745 0.194784,0.22745 0.182201,0 0.392697,-0.10236 0.467767,-0.22745 z m 17.447214,-10.4265 c 0.121469,-0.0756 0.369798,-0.16059 0.551842,-0.18889 0.441085,-0.0685 1.104543,-0.93408 1.104543,-1.44096 0,-0.22311 -0.288333,-0.72355 -0.640739,-1.11208 -0.532211,-0.58678 -0.808178,-0.70643 -1.629341,-0.70643 -1.355639,0 -1.567414,0.32405 -1.371177,2.09814 0.08685,0.7851 0.205747,1.51019 0.264224,1.61134 0.105649,0.18275 1.29825,0.002 1.720648,-0.26112 z m 29.832332,-1.91302 c 1.07917,-1.2892 -0.18498,-2.93805 -1.47607,-1.92528 -0.66987,0.52546 -0.69188,1.18377 -0.0613,1.83323 0.71548,0.73689 0.98411,0.75297 1.53736,0.092 z m -1.73944,-18.43217 c -0.33974,-0.27697 -1.87148,-1.75322 -3.40387,-3.28051 -2.59323,-2.58464 -3.15606,-2.98673 -3.15606,-2.25473 0,0.15771 -0.22362,0.49534 -0.49692,0.7503 -0.2733,0.25496 -0.65635,0.66659 -0.85122,0.91473 -0.19487,0.24814 -0.5924,0.62384 -0.8834,0.83488 -0.62248,0.45144 -0.44414,0.63354 1.07201,1.09459 0.51627,0.157 0.93867,0.36545 0.93867,0.46325 0,0.0978 0.34198,0.1778 0.75995,0.1778 0.41796,0 0.82137,0.10237 0.89644,0.22745 0.075,0.1251 0.55301,0.23197 1.06207,0.2375 0.9697,0.0108 2.88947,0.45831 3.1602,0.73713 0.0869,0.0894 0.34013,0.16266 0.56283,0.16266 0.22269,0 0.40489,0.10236 0.40489,0.22745 0,0.12511 0.12422,0.22377 0.27607,0.21928 0.15183,-0.004 -0.002,-0.2348 -0.34166,-0.51178 z m -19.98915,-22.41445 c 0.43181,-0.6227 3.00665,-0.56801 3.52973,0.075 l 0.37008,0.45491 0.15964,-0.45491 c 0.33303,-0.94896 2.03645,-2.22607 3.04242,-2.281 0.68747,-0.0375 0.69485,-0.0506 0.62757,-1.11379 -0.0375,-0.59171 0.0283,-1.19584 0.14611,-1.34254 0.11778,-0.14671 0.24779,-0.57379 0.28891,-0.94909 0.0563,-0.51411 0.19249,-0.6885 0.55223,-0.70722 0.26262,-0.0137 0.66015,-0.0981 0.88342,-0.18749 0.38457,-0.15409 0.38147,-0.18319 -0.0588,-0.55331 -0.25554,-0.21488 -0.58693,-0.77235 -0.73641,-1.23884 -0.33498,-1.04537 -0.12066,-2.65837 0.35322,-2.65837 0.68405,0 0.19441,-0.79483 -0.53432,-0.86737 -0.39378,-0.0392 -0.71596,-0.17319 -0.71596,-0.29775 0,-0.12456 -0.0982,-0.16393 -0.21832,-0.0875 -0.12229,0.0779 -0.16384,-0.008 -0.0944,-0.19351 0.28354,-0.761 -2.01001,-3.7932 -2.58994,-3.42406 -0.15012,0.0956 -0.19836,0.0654 -0.1157,-0.0723 0.27768,-0.46274 -1.97207,-1.03618 -3.89457,-0.99271 -1.90492,0.043 -3.259718,0.58566 -4.688508,1.87768 -0.900374,0.81417 -2.091266,2.50686 -2.091266,2.97242 0,0.2248 -0.230312,0.28542 -0.828187,0.21801 l -0.828192,-0.0934 0.679428,0.69609 c 0.668523,0.6849 1.197803,1.99936 1.197803,2.97469 0,0.9003 -0.626065,1.81583 -1.383097,2.02257 -0.614045,0.16769 -0.652327,0.21639 -0.271141,0.34493 0.559518,0.18867 1.551825,2.30327 1.467836,3.12793 -0.08336,0.81842 0.215651,0.96992 1.271368,0.64416 0.781418,-0.24112 0.983798,-0.21234 1.925428,0.27379 0.72911,0.37641 1.181108,0.80516 1.471918,1.39619 0.47184,0.9589 0.6654,1.03707 1.08165,0.4368 z m 1.40654,-2.94367 c -0.0415,-0.0427 -0.31001,-0.10528 -0.5967,-0.13889 -0.75514,-0.0887 -2.17763,-0.65607 -2.17763,-0.86866 0,-0.1 -0.10025,-0.18174 -0.22277,-0.18174 -0.346038,0 -1.544038,-1.17631 -1.544038,-1.51607 0,-0.16698 -0.0873,-0.3036 -0.19406,-0.3036 -0.22073,0 -0.638585,-0.97303 -0.781427,-1.81964 -0.05278,-0.31276 -0.11591,-0.56865 -0.140319,-0.56865 -0.02442,0 -0.0735,-0.48619 -0.109106,-1.08042 -0.03562,-0.59423 0.02666,-1.08042 0.138391,-1.08042 0.111717,0 0.203117,-0.28659 0.203117,-0.63687 0,-0.35029 0.119259,-0.75971 0.265025,-0.90983 0.145759,-0.15012 0.192899,-0.27294 0.104749,-0.27294 -0.264406,0 0.53082,-1.41745 1.15712,-2.06247 0.32098,-0.33059 0.953498,-0.73883 1.405588,-0.90719 0.45209,-0.16837 0.82198,-0.38163 0.82198,-0.4739 0,-0.29911 3.18299,-0.12263 3.49621,0.19386 0.16162,0.16331 0.37483,0.24541 0.47378,0.18243 0.099,-0.063 0.24234,0.0531 0.31866,0.25791 0.0763,0.20485 0.19502,0.31449 0.2638,0.24367 0.3755,-0.38673 1.70532,1.71711 2.4125,3.81669 0.2486,0.73807 0.31874,3.29813 0.0904,3.29813 -0.11492,0 -0.20894,0.30706 -0.20894,0.68237 0,0.37529 -0.0809,0.68237 -0.17963,0.68237 -0.0988,0 -0.31611,0.35824 -0.48292,0.79609 -0.16681,0.43785 -0.37743,0.7961 -0.46805,0.7961 -0.0906,0 -0.22782,0.20471 -0.30493,0.45491 -0.0772,0.25021 -0.28257,0.45491 -0.45659,0.45491 -0.17401,0 -0.31639,0.1084 -0.31639,0.24088 0,0.13249 -0.0994,0.17763 -0.22085,0.10032 -0.12147,-0.0773 -0.22085,-0.0322 -0.22085,0.10032 0,0.13248 -0.23189,0.24088 -0.51531,0.24088 -0.28344,0 -0.5823,0.0689 -0.66416,0.15328 -0.15611,0.16078 -1.21655,0.26015 -1.34662,0.12619 z"
         style="fill:#000000;stroke-width:0.22412936" />
    </g>
  </g>
</svg>
