<?xml version="1.0" encoding="UTF-8" standalone="no"?>
<!-- Created with Inkscape (http://www.inkscape.org/) -->

<svg
   xmlns:dc="http://purl.org/dc/elements/1.1/"
   xmlns:cc="http://creativecommons.org/ns#"
   xmlns:rdf="http://www.w3.org/1999/02/22-rdf-syntax-ns#"
   xmlns:svg="http://www.w3.org/2000/svg"
   xmlns="http://www.w3.org/2000/svg"
   xmlns:xlink="http://www.w3.org/1999/xlink"
   xmlns:sodipodi="http://sodipodi.sourceforge.net/DTD/sodipodi-0.dtd"
   xmlns:inkscape="http://www.inkscape.org/namespaces/inkscape"
   width="155.34822mm"
   height="147.78868mm"
   viewBox="0 0 155.34822 147.78868"
   version="1.1"
   id="svg5771"
   inkscape:version="0.92.1 r15371"
   sodipodi:docname="catalog3.svg">
  <defs
     id="defs5765">
    <linearGradient
       gradientTransform="translate(7.2920881,66.242339)"
       inkscape:collect="always"
       xlink:href="#linearGradient4502"
       id="linearGradient4504"
       x1="117.08956"
       y1="90.569099"
       x2="116.8223"
       y2="226.34204"
       gradientUnits="userSpaceOnUse" />
    <linearGradient
       inkscape:collect="always"
       id="linearGradient4502">
      <stop
         style="stop-color:#f8c0ea;stop-opacity:1;"
         offset="0"
         id="stop4498" />
      <stop
         style="stop-color:#c0e6f8;stop-opacity:0.93896711"
         offset="1"
         id="stop4500" />
    </linearGradient>
  </defs>
  <sodipodi:namedview
     id="base"
     pagecolor="#ffffff"
     bordercolor="#666666"
     borderopacity="1.0"
     inkscape:pageopacity="0.0"
     inkscape:pageshadow="2"
     inkscape:zoom="0.98994949"
     inkscape:cx="306.59461"
     inkscape:cy="251.99354"
     inkscape:document-units="mm"
     inkscape:current-layer="layer1"
     showgrid="false"
     fit-margin-top="0"
     fit-margin-left="0"
     fit-margin-right="0"
     fit-margin-bottom="0"
     inkscape:window-width="1536"
     inkscape:window-height="793"
     inkscape:window-x="-8"
     inkscape:window-y="-8"
     inkscape:window-maximized="1"
     inkscape:snap-global="false" />
  <metadata
     id="metadata5768">
    <rdf:RDF>
      <cc:Work
         rdf:about="">
        <dc:format>image/svg+xml</dc:format>
        <dc:type
           rdf:resource="http://purl.org/dc/dcmitype/StillImage" />
        <dc:title></dc:title>
      </cc:Work>
    </rdf:RDF>
  </metadata>
  <g
     inkscape:label="Layer 1"
     inkscape:groupmode="layer"
     id="layer1"
     transform="translate(-31.104588,-131.16493)">
    <rect
       style="opacity:1;fill:url(#linearGradient4504);fill-opacity:1;stroke:none;stroke-width:0.1561798;stroke-miterlimit:4;stroke-dasharray:none;stroke-opacity:1"
       id="rect4485"
       width="155.34822"
       height="147.78868"
       x="31.104588"
       y="131.16493" />
    <rect
       style="opacity:0.394;fill:#e17fda;fill-opacity:1;stroke:#ffffff;stroke-width:1.69700003;stroke-miterlimit:4;stroke-dasharray:3.39400008, 1.69700004000000000;stroke-dashoffset:0;stroke-opacity:1;paint-order:fill markers stroke"
       id="rect4564"
       width="142.18739"
       height="133.36749"
       x="39.122673"
       y="138.90439"
       ry="0" />
    <text
       xml:space="preserve"
       style="font-style:normal;font-weight:normal;font-size:17.62564087px;line-height:1.25;font-family:sans-serif;letter-spacing:0px;word-spacing:0px;fill:#ffffff;fill-opacity:1;stroke:none;stroke-width:0.12299427;stroke-miterlimit:4;stroke-dasharray:none;stroke-opacity:1"
       x="54.570835"
       y="150.09521"
       id="text4508"
       transform="scale(0.88784393,1.1263241)"><tspan
         sodipodi:role="line"
         id="tspan4506"
         x="54.570835"
         y="150.09521"
         style="font-style:normal;font-variant:normal;font-weight:normal;font-stretch:normal;font-size:17.62564087px;font-family:'Book Antiqua';-inkscape-font-specification:'Book Antiqua, Normal';font-variant-ligatures:normal;font-variant-caps:normal;font-variant-numeric:normal;font-feature-settings:normal;text-align:start;writing-mode:lr-tb;text-anchor:start;fill:#ffffff;fill-opacity:1;stroke:none;stroke-width:0.12299427;stroke-miterlimit:4;stroke-dasharray:none;stroke-opacity:1">Мягкие игрушки</tspan></text>
    <g
       id="g5727"
       transform="matrix(0.77770808,0,0,0.80948127,-15.892582,53.527057)">
      <path
         inkscape:connector-curvature="0"
         id="path5706"
         d="m 98.81009,208.21774 3.40769,-8.21854 -1.73726,-6.21402 0.13364,-3.60814 1.00226,-1.33635 1.1359,-0.20045 1.33634,0.80181 1.20272,1.46998 1.06907,1.46999 1.73726,-3.20724 1.73725,-2.20497 2.73951,-0.40091 2.73951,1.33635 1.26953,2.33861 1.87089,2.80633 1.26953,2.13815 5.0113,-1.40316 6.1472,0.0668 5.41221,1.33634 3.67496,2.53907 2.47224,3.27405 1.20271,0.20045 0.80181,1.40316 1.20271,1.20272 3.27406,2.40542 -1.80407,11.02487 -2.93997,3.74177 -7.01582,4.07586 -2.60588,1.06908 -10.55715,0.86863 9.82216,6.28083 3.00678,5.41221 1.20271,0.33409 c 0,0 1.20272,-0.93544 1.60362,-0.33409 0.4009,0.60136 1.86932,0.058 1.86932,0.058 l 2.69308,1.13392 2.22061,0.28349 0.28348,1.84263 -0.51971,4.016 -1.27567,2.22061 -1.46466,1.03943 -1.41741,2.03162 -0.8977,1.18118 V 253.58 l -1.98437,0.33073 -0.94494,-0.0472 -0.28348,0.75595 -0.94494,1.03944 -1.84264,-1.18118 -1.6064,0.0945 0.18899,1.13393 -0.47247,0.75595 c 0,0 -0.94494,0.18899 -1.32292,0.0473 -0.37797,-0.14175 -2.88206,-0.51972 -2.88206,-0.51972 h -1.27567 l -2.07887,2.3151 -2.88207,0.85045 -2.26786,-0.85045 -3.40178,-1.5119 -3.30729,0.33073 -3.54353,1.08668 -2.26786,-0.28348 -3.49628,-1.03944 -2.45684,-2.03162 -1.08668,-0.14174 c 0,0 -1.937132,-0.28348 -2.078875,-0.56697 -0.14174,-0.28348 -1.370163,-1.70089 -1.370163,-1.70089 l -1.039434,-2.78757 0.519718,-1.6064 1.984375,-1.70089 1.228419,-1.88989 0.51972,-3.35453 1.32292,-3.87426 2.92931,-4.44122 3.11831,-2.12612 4.06324,-1.93712 0.66146,-0.42523 -0.0473,-1.37016 -0.66146,-0.56697 -18.662571,-15.21354 z"
         style="fill:#e894b6;fill-opacity:1;stroke:#000000;stroke-width:0.26458332px;stroke-linecap:butt;stroke-linejoin:miter;stroke-opacity:1" />
      <path
         sodipodi:nodetypes="sssss"
         inkscape:connector-curvature="0"
         id="path5665"
         d="m 144.00944,217.3938 c 10e-6,5.27665 -4.91249,5.67881 -10.80753,5.67881 -5.89504,0 -10.67392,-4.27757 -10.67391,-9.55422 10e-6,-5.27664 4.77888,-9.5542 10.67391,-9.5542 5.89503,0 10.80753,8.15297 10.80753,13.42961 z"
         style="opacity:1;fill:#efd3df;fill-opacity:1;stroke:none;stroke-width:1.89236391;stroke-miterlimit:4;stroke-dasharray:3.78472778, 1.89236389;stroke-dashoffset:0;stroke-opacity:1;paint-order:fill markers stroke" />
      <path
         inkscape:connector-curvature="0"
         id="path5672"
         d="m 146.65476,216.96354 -2.24424,-3.6144 -0.96856,-2.59859 -0.0709,-2.43322 0.4016,-2.26786 0.63783,-1.06305 1.03944,-0.73233 0.75595,-0.23624 0.75595,0.42523 1.41741,0.85044 0.75596,1.41741 0.68508,1.79539 0.21261,1.70089 -0.14174,1.46466 -0.4961,1.72452 -0.73232,2.07887 -0.59059,0.66145 z"
         style="fill:#8f6fae;fill-opacity:1;stroke:none;stroke-width:0.26458332px;stroke-linecap:butt;stroke-linejoin:miter;stroke-opacity:1" />
      <ellipse
         ry="3.3611348"
         rx="2.2032945"
         cy="253.07108"
         cx="124.4635"
         id="path5674"
         style="opacity:1;fill:#8f6fae;fill-opacity:1;stroke:none;stroke-width:1.86558688;stroke-miterlimit:4;stroke-dasharray:3.73117373, 1.86558686;stroke-dashoffset:0;stroke-opacity:1;paint-order:fill markers stroke" />
      <ellipse
         ry="1.9175577"
         rx="1.6283433"
         cy="245.15044"
         cx="142.86403"
         id="path5676"
         style="opacity:1;fill:#8f6fae;fill-opacity:1;stroke:none;stroke-width:1.58868635;stroke-miterlimit:4;stroke-dasharray:3.17737262, 1.5886863;stroke-dashoffset:0;stroke-opacity:1;paint-order:fill markers stroke" />
      <ellipse
         style="opacity:1;fill:#8f6fae;fill-opacity:1;stroke:none;stroke-width:0.8842783;stroke-miterlimit:4;stroke-dasharray:1.76855653, 0.88427826;stroke-dashoffset:0;stroke-opacity:1;paint-order:fill markers stroke"
         id="ellipse5678"
         cx="141.71977"
         cy="240.7238"
         rx="0.96852171"
         ry="0.9988187" />
      <ellipse
         ry="0.84847957"
         rx="0.80147827"
         cy="244.73285"
         cx="139.38116"
         id="ellipse5682"
         style="opacity:1;fill:#8f6fae;fill-opacity:1;stroke:none;stroke-width:0.74140847;stroke-miterlimit:4;stroke-dasharray:1.48281683, 0.74140841;stroke-dashoffset:0;stroke-opacity:1;paint-order:fill markers stroke" />
      <ellipse
         style="opacity:1;fill:#8f6fae;fill-opacity:1;stroke:none;stroke-width:0.74140847;stroke-miterlimit:4;stroke-dasharray:1.48281683, 0.74140841;stroke-dashoffset:0;stroke-opacity:1;paint-order:fill markers stroke"
         id="ellipse5684"
         cx="146.31346"
         cy="241.35857"
         rx="0.80147827"
         ry="0.84847957" />
      <ellipse
         ry="0.96540999"
         rx="0.80147827"
         cy="246.67056"
         cx="146.46379"
         id="ellipse5686"
         style="opacity:1;fill:#8f6fae;fill-opacity:1;stroke:none;stroke-width:0.79084748;stroke-miterlimit:4;stroke-dasharray:1.58169487, 0.79084743;stroke-dashoffset:0;stroke-opacity:1;paint-order:fill markers stroke" />
      <ellipse
         style="opacity:1;fill:#8f6fae;fill-opacity:1;stroke:none;stroke-width:0.66032022;stroke-miterlimit:4;stroke-dasharray:1.32064046, 0.66032024;stroke-dashoffset:0;stroke-opacity:1;paint-order:fill markers stroke"
         id="ellipse5688"
         cx="119.67975"
         cy="254.52393"
         rx="0.96306008"
         ry="0.96334833" />
      <ellipse
         ry="1.2704539"
         rx="0.96306008"
         cy="249.04326"
         cx="120.0341"
         id="ellipse5690"
         style="opacity:1;fill:#8f6fae;fill-opacity:1;stroke:none;stroke-width:0.75830233;stroke-miterlimit:4;stroke-dasharray:1.51660469, 0.75830236;stroke-dashoffset:0;stroke-opacity:1;paint-order:fill markers stroke" />
      <ellipse
         style="opacity:1;fill:#8f6fae;fill-opacity:1;stroke:none;stroke-width:0.6904853;stroke-miterlimit:4;stroke-dasharray:1.38097064, 0.69048533;stroke-dashoffset:0;stroke-opacity:1;paint-order:fill markers stroke"
         id="ellipse5692"
         cx="123.92016"
         cy="245.8777"
         rx="1.2347305"
         ry="0.82160723" />
      <ellipse
         transform="rotate(-23.77375)"
         ry="1.2822657"
         rx="0.93943655"
         cy="278.91092"
         cx="17.285595"
         id="ellipse5694"
         style="opacity:1;fill:#8f6fae;fill-opacity:1;stroke:none;stroke-width:0.75241762;stroke-miterlimit:4;stroke-dasharray:1.50483534, 0.75241768;stroke-dashoffset:0;stroke-opacity:1;paint-order:fill markers stroke" />
      <path
         sodipodi:nodetypes="cccc"
         inkscape:connector-curvature="0"
         id="path5696"
         d="m 83.909813,210.22226 c 0.600478,-5.85126 1.396218,-11.47374 10.623965,-7.21628 -2.256455,-1.97342 -3.899621,-4.72739 -8.953529,-3.14042 -2.912675,2.84957 -2.538672,6.53992 -1.670436,10.3567 z"
         style="fill:#8f6fae;fill-opacity:1;stroke:none;stroke-width:0.26458332px;stroke-linecap:butt;stroke-linejoin:miter;stroke-opacity:1" />
      <path
         sodipodi:nodetypes="ccccccccccccccccccccccccccccccccccccccccccccccccccccsccc"
         inkscape:connector-curvature="0"
         id="path5698"
         d="m 80.697911,225.09002 0.944941,-1.70089 -0.04725,-0.94494 -0.897695,-0.75595 -1.181174,-0.0945 -0.755951,1.13392 -0.425225,1.13393 -0.14174,1.32292 0.09449,1.37016 0.519718,1.41741 1.27567,0.99219 0.897692,0.61421 1.370163,0.51972 2.787576,0.33073 1.133928,-0.33073 1.464659,-0.23624 1.937128,-0.99218 1.748139,-1.08668 2.315104,-2.12612 0.992188,-0.70871 0.755951,0.18899 2.504094,1.22842 -0.614212,2.17337 -0.661458,2.3151 -0.755952,1.6064 -1.322916,2.03162 -1.795389,1.32292 -2.740326,0.56696 -2.078869,-0.66145 -0.566965,-0.42523 -0.283482,-1.27567 0.09449,-1.55915 c 0,0 -0.04725,-0.75595 -0.283482,-0.8032 -0.236234,-0.0473 -0.992188,-0.7087 -1.133928,-0.47247 -0.14174,0.23624 -0.755952,0.75595 -0.755952,0.75595 l -0.566965,1.51191 -0.09449,0.94494 0.472469,1.98437 0.803201,1.27567 1.086681,0.75596 1.086681,0.75595 1.795388,0.42522 1.275667,-0.18899 2.834823,-0.8032 1.464657,-1.22842 1.842635,-1.88988 1.228423,-2.12611 2.456844,-6.18937 c 0,0 -8.315476,-3.1183 -8.787945,-3.73251 -0.472472,-0.61421 -1.181176,0.37797 -1.181176,0.37797 l -2.409598,1.93713 -2.504093,1.46466 c 0,0 -1.748139,0.47247 -1.937129,0.47247 -0.188986,0 -1.748139,-0.51972 -1.748139,-0.51972 l -0.944941,-0.85044 z"
         style="fill:#8f6fae;fill-opacity:1;stroke:#000000;stroke-width:0.26458332px;stroke-linecap:butt;stroke-linejoin:miter;stroke-opacity:1" />
      <path
         inkscape:connector-curvature="0"
         id="path5700"
         d="m 124.21242,226.69642 5.95313,-0.0472 4.6302,-0.66146 1.18118,2.59858 0.0945,2.17337 -1.03943,1.13393 -0.75595,1.22842 -0.75596,-0.0945 -3.77976,4.39397 -0.47247,0.14174 -0.89769,-1.46466 -0.14174,-2.78757 -0.47247,-2.50409 c 0,0 -1.41741,-1.88989 -1.65365,-2.07887 -0.23623,-0.18899 -1.84263,-1.79539 -1.84263,-1.79539 z"
         style="fill:#efd3df;fill-opacity:1;stroke:#000000;stroke-width:0.26458332px;stroke-linecap:butt;stroke-linejoin:miter;stroke-opacity:1" />
      <path
         inkscape:connector-curvature="0"
         id="path5702"
         d="m 116.98363,236.05134 -4.20499,4.06324 -1.03943,2.03162 -0.70871,3.87426 0.66146,0.14174 1.6064,-1.18118 1.41741,-1.27567 2.55134,-1.46466 1.32292,0.14175 -0.42523,-4.8192 c 0,0 0.8032,-1.22842 -1.18117,-1.5119 z"
         style="fill:#efd3df;fill-opacity:1;stroke:#000000;stroke-width:0.26458332px;stroke-linecap:butt;stroke-linejoin:miter;stroke-opacity:1" />
      <path
         inkscape:connector-curvature="0"
         id="path5704"
         d="m 114.91308,223.91982 -4.27631,-1.1359 -3.47451,-2.27179 -2.80633,-3.20723 -2.93996,-4.2095 -2.539062,-3.8754 -2.204974,-3.87541 -2.204974,-2.60588 -3.207234,-2.60588 -3.006783,-1.00226 -2.138156,0.53454 -1.269529,0.93544 -1.135896,1.80407 -0.400905,1.26953 0.133636,3.00678 0.200451,2.93997 0.868627,3.60814 2.472243,4.54358 4.476763,4.74403 3.875408,2.60588 3.87541,1.46999 5.479025,0.73499 5.07812,-0.53454 3.87541,-1.46999 z"
         style="fill:#efd3df;fill-opacity:1;stroke:#000000;stroke-width:0.26458332px;stroke-linecap:butt;stroke-linejoin:miter;stroke-opacity:1" />
      <path
         inkscape:connector-curvature="0"
         id="path5663"
         d="m 121.70293,259.02068 c -0.39134,-0.11466 -1.44703,-0.59418 -2.34599,-1.0656 l -1.63446,-0.85712 -1.44881,0.006 c -1.20728,0.005 -1.71241,0.0939 -3.02997,0.53245 -1.27665,0.42494 -1.91695,0.54185 -3.32465,0.60705 -1.04203,0.0483 -2.09929,0.007 -2.62785,-0.10336 -1.16625,-0.24279 -2.8003,-1.04837 -4.16286,-2.05227 -0.63762,-0.46977 -1.33787,-0.84882 -1.66023,-0.89867 -2.240854,-0.34657 -3.562534,-1.36162 -4.528784,-3.47813 -0.96044,-2.1038 -0.62972,-3.62782 1.07956,-4.97488 1.32982,-1.048 1.74835,-1.8423 2.178794,-4.13502 0.35412,-1.88616 1.14314,-4.17541 2.12866,-6.17612 1.76405,-3.58118 4.08272,-5.69284 7.77065,-7.07689 0.86105,-0.32315 1.76018,-0.68824 1.99807,-0.81131 0.53572,-0.27714 0.73566,-0.93793 0.389,-1.28557 -0.25956,-0.26029 -0.80933,-0.23699 -6.59278,0.27942 -1.32828,0.1186 -2.23761,0.11141 -3.374,-0.0267 -1.31647,-0.15996 -1.57698,-0.15452 -1.69433,0.0354 -0.0763,0.12344 -0.43053,1.0777 -0.78724,2.12057 -0.630844,1.84429 -1.779834,4.32685 -2.621074,5.66321 -0.22816,0.36245 -0.92651,1.17212 -1.55189,1.79925 -2.08387,2.08974 -4.61898,2.99021 -6.911875,2.45509 -1.96694,-0.45905 -3.79568,-1.92036 -4.31465,-3.44773 -0.9974,-2.93545 0.25653,-5.84548 2.10562,-4.88659 0.59472,0.30841 0.87935,1.22338 0.73995,2.37863 -0.13157,1.09037 0.22989,1.79131 1.17479,2.27812 1.01645,0.52368 2.581495,0.44465 3.794795,-0.1916 1.26837,-0.66515 1.65559,-1.00895 2.42944,-2.157 0.88144,-1.30769 2.52016,-5.50078 2.53831,-6.49495 0.0122,-0.66596 -0.0242,-0.72815 -0.62041,-1.06078 -0.9356,-0.52199 -1.83517,-0.68835 -2.41049,-0.44576 -0.26185,0.11041 -0.86816,0.54669 -1.34736,0.96952 -1.72391,1.52111 -2.603185,2.1603 -3.981325,2.8942 -3.42528,1.82406 -7.32846,1.55873 -9.59716,-0.6524 -1.11967,-1.09126 -1.47866,-1.98884 -1.47866,-3.69712 0,-1.22443 0.0585,-1.54527 0.40467,-2.21987 0.76969,-1.49991 2.02114,-1.88263 3.01952,-0.92343 0.56241,0.54034 0.58298,1.22263 0.0726,2.40844 -0.20039,0.46559 -0.33125,1.02009 -0.29081,1.23221 0.0404,0.21213 0.3897,0.66479 0.77615,1.00591 1.68685,1.48901 3.44983,1.06187 7.32316,-1.77425 2.256635,-1.65235 2.310825,-1.8067 1.02469,-2.91883 -2.67579,-2.31377 -5.14815,-6.17141 -6.28596,-9.80803 -0.95437,-3.0503 -1.22952,-7.71404 -0.5796,-9.82416 0.55542,-1.8033 1.7509,-2.81728 3.62454,-3.07423 2.37308,-0.32546 4.395395,0.47217 6.648365,2.6222 1.55217,1.48127 2.5101,2.63027 3.7829,4.53748 1.10647,1.65797 1.27809,1.62739 2.05365,-0.36592 0.32234,-0.82849 0.823384,-1.97014 1.113414,-2.537 1.05899,-2.06975 1.12165,-3.62301 0.25513,-6.32382 -0.77179,-2.40559 -0.959074,-3.84641 -0.72105,-5.54751 0.52923,-3.78234 2.5057,-4.23381 4.97089,-1.13545 0.48776,0.61305 0.93718,1.11387 0.9987,1.11293 0.0615,-9.5e-4 0.39646,-0.54935 0.74432,-1.21869 0.81893,-1.57576 2.05801,-2.92184 3.21331,-3.49077 0.73052,-0.35976 1.10386,-0.44071 2.00453,-0.43464 0.94701,0.006 1.25125,0.0849 2.10712,0.54387 1.77477,0.95173 3.3568,3.00326 4.55982,5.91303 0.69274,1.67554 0.79193,1.72123 2.71718,1.25183 2.33178,-0.56852 3.64359,-0.71526 6.42753,-0.719 3.9023,-0.005 6.76862,0.61136 9.17076,1.97279 1.18726,0.67289 3.34872,2.62119 4.29733,3.87354 0.67684,0.89357 1.01803,1.19198 1.75026,1.53079 0.80439,0.37221 0.96456,0.52801 1.38556,1.34778 0.43775,0.85238 0.56766,0.97173 1.61546,1.48422 1.82278,0.89153 2.84072,2.0613 3.52753,4.05367 0.5171,1.50007 0.56527,3.0535 0.14927,4.8139 -0.39574,1.67468 -1.57915,4.18016 -2.15229,4.55675 -0.1976,0.12984 -0.56735,0.60473 -0.82166,1.05532 -0.61615,1.09171 -2.50344,2.96979 -4.20128,4.18076 -1.37217,0.9787 -4.11896,2.45343 -6.13378,3.29318 -0.58188,0.24251 -1.09836,0.54652 -1.14774,0.67557 -0.0494,0.12904 0.094,0.74447 0.31863,1.36761 0.22463,0.62313 0.44786,1.60055 0.49606,2.17202 0.0862,1.02208 0.0792,1.04616 -0.42776,1.47396 -0.28347,0.2392 -0.64832,0.69635 -0.81077,1.01588 -0.16245,0.31953 -0.40215,0.6409 -0.53267,0.71414 -0.35589,0.19973 -0.30615,0.34657 0.54672,1.61403 0.43122,0.64084 1.06898,1.76662 1.41725,2.50173 0.72261,1.52524 1.06773,1.78462 2.15666,1.62086 0.38418,-0.0578 0.91889,-0.0223 1.23366,0.0819 0.45473,0.1505 0.64202,0.13905 1.03176,-0.0631 0.7464,-0.38707 1.45206,-0.30833 2.30317,0.25701 0.57379,0.38114 0.97536,0.51797 1.6478,0.56147 1.24473,0.0805 2.10694,0.5594 2.45411,1.36302 0.32814,0.75954 0.24808,1.40224 -0.313,2.51259 -0.49799,0.98549 -0.48222,1.3248 0.092,1.98064 0.96099,1.09759 0.46585,2.50249 -0.9487,2.6918 -1.18875,0.15909 -1.76391,0.5798 -2.51558,1.84003 -0.19421,0.32561 -0.53443,0.73504 -0.75604,0.90985 -0.28213,0.22255 -0.37703,0.41714 -0.31655,0.64907 0.0665,0.25508 -0.0391,0.40544 -0.45923,0.65405 -0.49003,0.28993 -0.53579,0.37527 -0.44928,0.83774 0.0816,0.43607 0.0277,0.56937 -0.35195,0.8704 -0.37217,0.29512 -0.57699,0.34038 -1.20642,0.26659 -0.93068,-0.1091 -1.49433,0.0883 -1.68452,0.58992 -0.19289,0.50878 -0.98834,1.05838 -1.4131,0.97635 -0.18811,-0.0363 -0.60554,-0.28388 -0.92761,-0.5501 -0.45213,-0.37374 -0.74065,-0.48405 -1.26604,-0.48405 -0.81371,0 -0.9596,0.23749 -0.58826,0.9576 0.24908,0.48304 0.24744,0.5264 -0.0304,0.80504 -0.48047,0.48182 -1.60244,0.54739 -2.72145,0.15904 -0.62912,-0.21833 -1.35749,-0.33606 -2.07917,-0.33606 h -1.11081 l -1.01981,1.0379 c -1.64432,1.67348 -3.59435,2.30168 -5.45371,1.75691 z m 3.35424,-0.76927 c 0.84201,-0.35639 2.08182,-1.593 2.42648,-2.42021 0.13612,-0.32672 0.22758,-1.07468 0.22738,-1.85975 -1.5e-4,-0.72227 0.11522,-1.94453 0.25644,-2.71613 l 0.25676,-1.4029 -0.73078,-0.67282 c -0.82781,-0.76215 -0.90632,-1.14613 -0.40346,-1.97329 0.40177,-0.66087 0.21593,-0.96592 -0.4133,-0.67841 -0.37457,0.17114 -0.40212,0.16032 -0.31253,-0.12276 0.11838,-0.37401 -0.45546,-1.77772 -0.88674,-2.16912 -0.41345,-0.37522 -2.07311,-0.38189 -2.81387,-0.0113 -0.65667,0.32851 -0.73792,0.3338 -0.48794,0.0318 0.30914,-0.37354 0.092,-0.64846 -0.89606,-1.13465 -0.83055,-0.40867 -1.07529,-0.45233 -2.50178,-0.44624 -1.42587,0.006 -1.6821,0.0543 -2.60892,0.49119 -0.63472,0.29918 -1.61828,1.00531 -2.57194,1.84648 -1.77852,1.56874 -2.07053,1.71213 -2.53602,1.24533 -0.27505,-0.27582 -0.2981,-0.38607 -0.14441,-0.69049 0.10059,-0.19925 0.25852,-1.07579 0.35095,-1.94789 0.10364,-0.97779 0.29678,-1.85913 0.50384,-2.29914 0.21924,-0.4659 1.15571,-1.53113 2.69834,-3.06935 l 2.36257,-2.35581 -0.56884,-0.4702 c -0.31286,-0.25862 -0.56884,-0.53637 -0.56884,-0.61723 0,-0.29781 0.59932,-0.13437 1.05979,0.28903 0.26083,0.23983 0.72425,0.62761 1.02984,0.86175 0.78136,0.59867 0.96765,1.44608 0.82964,3.77388 -0.12915,2.17844 -0.10325,2.22108 1.58705,2.61315 0.60875,0.1412 1.49816,0.43927 1.97646,0.66237 0.54256,0.25307 1.25618,0.43293 1.8974,0.47822 1.56327,0.1104 1.64331,0.14652 2.18592,0.98627 0.27807,0.43034 0.99543,1.21794 1.59412,1.75023 1.70663,1.51729 1.83794,2.15659 0.8658,4.215 -0.41951,0.88827 -0.44953,1.08494 -0.45253,2.96515 -0.002,1.14143 0.0653,2.07868 0.15489,2.1636 0.087,0.0824 0.6478,0.17912 1.2463,0.21493 l 1.08818,0.0651 0.22311,-0.53548 c 0.12271,-0.29452 0.43238,-0.65526 0.68815,-0.80166 0.58591,-0.33536 0.66459,-0.53979 0.37004,-0.9615 -0.29568,-0.42334 -0.66692,-0.42258 -1.65435,0.003 -0.43185,0.1863 -0.82738,0.29641 -0.87896,0.24468 -0.20048,-0.20104 0.11716,-0.58399 0.7551,-0.91037 0.95714,-0.48967 1.73246,-0.24499 2.32127,0.73257 0.39295,0.65238 0.47096,0.70316 1.05785,0.68852 0.93314,-0.0233 1.42756,-0.20327 1.40224,-0.5105 -0.0121,-0.14658 0.0279,-0.2665 0.0888,-0.2665 0.21996,0 0.80765,-0.65671 0.71795,-0.80226 -0.14121,-0.22912 -1.0907,-0.17694 -1.5968,0.0877 -0.53101,0.27773 -0.79186,0.29992 -0.92803,0.079 -0.0542,-0.0879 0.22936,-0.30079 0.6301,-0.47305 1.03406,-0.4445 1.24351,-1.0008 1.25415,-3.33115 0.007,-1.47542 -0.0612,-2.04722 -0.35606,-2.99575 -0.7034,-2.26294 -2.44228,-4.89573 -5.38197,-8.1487 -1.34506,-1.48841 -1.46646,-1.78145 -1.55296,-3.74865 -0.0986,-2.24201 -0.45578,-3.32465 -1.52564,-4.62422 -1.67469,-2.03425 -2.74686,-2.54054 -6.35041,-2.99871 -0.62936,-0.08 -1.39029,-0.29104 -1.69096,-0.46894 -0.70463,-0.41691 -1.64128,-0.32036 -3.27939,0.33806 -0.65692,0.26404 -1.35449,0.54273 -1.55016,0.61932 -0.20837,0.0815 -0.35576,0.27415 -0.35576,0.46486 0,0.17909 -0.0983,0.56145 -0.21836,0.8497 -0.19975,0.47941 -0.36486,0.57476 -1.93693,1.11861 -0.94521,0.32698 -2.28194,0.92725 -2.97051,1.33392 -2.29079,1.35294 -4.42972,3.82279 -5.69546,6.5766 -0.73026,1.5888 -1.646,4.50593 -1.7603,5.60756 -0.10799,1.04075 -0.48106,2.3531 -0.802084,2.82146 -0.34329,0.50083 -0.25699,0.59333 0.457624,0.49051 0.54425,-0.0783 0.46159,-0.0259 -0.434824,0.27593 -0.60875,0.20493 -1.33246,0.49083 -1.60823,0.63532 -1.04297,0.54646 -1.51048,1.80968 -1.15773,3.12827 0.25637,0.95835 1.0399,2.51874 1.51653,3.02017 0.50282,0.52899 1.542964,1.03192 2.395774,1.15841 0.65146,0.0966 0.67199,0.0864 0.67199,-0.33541 v -0.43508 l 0.38948,0.57478 c 0.79264,1.16977 3.15522,2.67495 5.07895,3.23577 1.42421,0.41519 3.98181,0.24572 5.91596,-0.392 2.78412,-0.91798 4.29395,-0.82739 6.79901,0.40794 2.44896,1.20765 3.59964,1.35032 5.25164,0.65109 z m -1.95883,-1.94195 c -1.53379,-1.04517 -1.53477,-4.53747 -0.002,-6.16274 1.41271,-1.4977 3.01735,-1.06329 3.74848,1.01479 0.65405,1.85898 -0.26031,4.48174 -1.8534,5.31636 -0.62766,0.32883 -1.24412,0.274 -1.89335,-0.16841 z m 2.05349,-0.76653 c 0.91218,-0.85399 1.37536,-2.26901 1.19517,-3.6513 -0.0857,-0.65745 -0.22312,-0.93633 -0.69659,-1.41363 -0.76528,-0.77148 -1.13984,-0.75634 -1.97363,0.0798 -0.77154,0.77372 -1.02299,1.49238 -1.02427,2.9275 -0.002,2.11131 1.29847,3.18187 2.49932,2.05763 z m -1.01462,-1.94291 c -0.1509,-0.60291 0.0337,-1.66315 0.34025,-1.95462 0.25194,-0.23953 0.26278,-0.20061 0.17162,0.61642 -0.0535,0.47965 -0.0979,1.06831 -0.0987,1.30814 -0.002,0.54939 -0.27818,0.5695 -0.41319,0.0301 z m -5.17484,2.02095 c -1.06896,-1.18452 -0.2301,-3.03539 1.10021,-2.42755 0.82044,0.37487 1.08743,2.17463 0.37901,2.55484 -0.46801,0.25117 -1.19405,0.18869 -1.47922,-0.12729 z m 1.27852,-0.82216 c 0.0521,-0.51563 -0.46563,-1.19306 -0.81042,-1.06038 -0.17635,0.0679 -0.2574,0.29201 -0.2574,0.71185 0,0.7313 0.0969,0.8538 0.62654,0.79186 0.29657,-0.0347 0.41166,-0.15031 0.44128,-0.44333 z m -2.48527,-0.59461 c 0.003,-0.32703 0.11427,-0.77299 0.24708,-0.99101 l 0.24148,-0.3964 -0.0868,0.3964 c -0.0478,0.21802 -0.0878,0.66398 -0.089,0.99101 -0.001,0.32704 -0.0733,0.59461 -0.16028,0.59461 -0.087,0 -0.15559,-0.26757 -0.15251,-0.59461 z m 1.72079,-3.72933 c -0.73602,-0.49606 -0.94804,-1.31838 -0.53717,-2.08346 0.51638,-0.96156 1.41187,-1.13214 2.13525,-0.40673 0.45862,0.45992 0.43397,1.74671 -0.0436,2.27346 -0.52642,0.58069 -0.93085,0.63707 -1.55452,0.21673 z m 1.2462,-0.62319 c 0.27402,-0.2748 0.23307,-1.08451 -0.0719,-1.4225 -0.55452,-0.61446 -1.37219,-0.22033 -1.37219,0.6614 0,0.25234 0.0917,0.56962 0.20383,0.70508 0.24179,0.29217 0.97192,0.32515 1.2403,0.056 z m -2.89891,-1.70207 c 0.0942,-0.58156 0.43631,-1.05136 0.9523,-1.30767 0.19053,-0.0946 0.14123,-0.009 -0.12298,0.21289 -0.24254,0.20397 -0.5482,0.65626 -0.67925,1.0051 -0.23596,0.62812 -0.23741,0.62899 -0.15007,0.0897 z m 5.35102,-1.27194 c -0.48383,-0.20727 -0.88721,-0.87437 -0.76403,-1.26355 0.28463,-0.89934 1.61433,-1.23414 2.57316,-0.64789 0.59906,0.36629 0.69325,1.01296 0.23093,1.58551 -0.31858,0.39454 -1.45579,0.57623 -2.04006,0.32593 z m 1.29552,-0.51162 c 0.31147,-0.14231 0.39906,-0.28569 0.3632,-0.5946 -0.0532,-0.45845 -0.44629,-0.58043 -1.33288,-0.41364 -0.636,0.11965 -0.72189,0.56923 -0.18128,0.94895 0.42153,0.29608 0.61133,0.30586 1.15096,0.0593 z m 8.99842,9.62198 c -0.008,-0.0872 -0.33893,-0.3609 -0.73614,-0.60819 -0.59822,-0.37243 -0.77906,-0.41911 -1.05335,-0.2719 -0.78415,0.42084 -0.0437,1.15572 1.09191,1.08374 0.39134,-0.0248 0.70525,-0.11645 0.69758,-0.20365 z m 3.95393,-0.96834 c 0.41182,-0.15848 0.28506,-0.63293 -0.30881,-1.15582 -0.3074,-0.27067 -0.6225,-0.49212 -0.70023,-0.49212 -0.17034,0 -0.63825,0.45107 -0.63825,0.61527 0,0.18542 0.36106,0.58398 0.78623,0.86787 0.43457,0.29017 0.50181,0.30304 0.86106,0.1648 z m 1.31699,-1.98891 c 0.31995,-0.67162 0.11652,-0.92752 -0.73735,-0.92752 -1.33519,0 -1.69823,0.71139 -0.60866,1.19271 0.70622,0.31198 1.10884,0.23265 1.34601,-0.26519 z m 2.09544,0.34505 c 0,-0.20641 -0.85059,-0.63832 -1.25708,-0.63832 -0.43822,0 -0.41562,0.449 0.0317,0.6293 0.48139,0.19404 1.2254,0.19952 1.2254,0.009 z m -4.00758,-1.51041 c 0.3122,-0.13082 0.90154,-0.23785 1.30963,-0.23785 0.69503,0 0.75901,-0.0358 1.01107,-0.56585 0.31795,-0.66865 0.25783,-0.81261 -0.41208,-0.98669 -1.14184,-0.29672 -2.49164,0.23404 -2.94241,1.157 -0.19591,0.40114 -0.18861,0.47017 0.0697,0.65963 0.35257,0.25853 0.27966,0.26051 0.96404,-0.0262 z m 4.59023,-0.0911 c 0.42931,-0.16436 0.43421,-0.17843 0.13819,-0.3964 -0.36764,-0.27071 -1.60457,-0.30114 -1.76342,-0.0434 -0.14427,0.2341 0.36443,0.6102 0.82534,0.6102 0.19512,0 0.55507,-0.0767 0.79989,-0.17041 z m 1.0175,-1.30375 c 0.39924,-0.30481 1.58006,-2.21446 1.4995,-2.425 -0.042,-0.1097 0.0717,-0.18925 0.27199,-0.19036 0.86503,-0.005 0.97247,-0.10496 1.07179,-0.99919 0.0524,-0.47155 0.25656,-1.23141 0.45376,-1.68857 0.20849,-0.48337 0.36715,-1.18958 0.37913,-1.68756 0.0179,-0.74664 -0.0459,-0.93946 -0.49868,-1.50501 -0.50615,-0.63227 -0.51298,-0.66085 -0.27024,-1.13157 0.13696,-0.2656 0.20634,-0.55218 0.15417,-0.63682 -0.14344,-0.23275 -0.96101,-0.1843 -1.17096,0.0694 -0.15618,0.1887 -0.24062,0.17028 -0.54512,-0.11893 -0.80963,-0.76896 -1.54533,-1.2143 -2.00602,-1.2143 -0.39031,0 -1.73005,0.75564 -1.73005,0.97579 0,0.0841 -0.0712,0.10876 -0.15812,0.0549 -0.087,-0.0539 -0.15811,-0.22817 -0.15811,-0.38727 0,-0.31677 -0.41364,-0.47924 -1.22879,-0.48266 -0.81825,-0.003 -0.91706,0.41282 -0.60823,2.56217 0.32838,2.28548 0.32658,4.37109 -0.005,6.02233 l -0.26106,1.29926 0.43303,0.34626 c 0.23816,0.19044 0.97822,0.53115 1.64458,0.75715 1.86025,0.6309 2.32027,0.69488 2.73264,0.38003 z m -1.07745,-3.34825 c -0.40034,-0.34533 -0.44364,-0.48195 -0.44364,-1.39976 0,-0.8698 0.0641,-1.10143 0.44299,-1.59952 0.54029,-0.71034 1.17381,-1.05778 1.92876,-1.05778 0.87786,0 1.46108,0.38085 1.67386,1.09307 0.16415,0.54941 0.14041,0.7108 -0.22102,1.50249 -0.72003,1.57718 -2.40329,2.30481 -3.38095,1.4615 z m 1.79131,-0.60562 c 0.91215,-0.62677 1.45089,-1.99094 0.97482,-2.46836 -0.24087,-0.24154 -1.09774,-0.24542 -1.61883,-0.007 -0.42922,0.19611 -1.03753,1.28027 -1.03753,1.84913 0,0.41107 0.52236,0.9806 0.89938,0.9806 0.14681,0 0.49878,-0.15932 0.78216,-0.35404 z m -0.57121,-1.09324 c -0.003,-0.25587 0.41912,-0.71873 0.5429,-0.59461 0.0354,0.0355 -0.0714,0.24192 -0.23748,0.45864 -0.22505,0.29374 -0.3028,0.32835 -0.30542,0.13597 z m -3.83784,0.27519 c -0.1979,-0.15065 -0.27601,-0.43145 -0.27428,-0.98597 0.003,-0.91744 0.0956,-1.09638 0.68444,-1.3209 0.3929,-0.1498 0.4958,-0.11629 0.90595,0.29501 0.54157,0.5431 0.58141,1.00474 0.1482,1.71726 -0.3432,0.56448 -0.94954,0.68647 -1.46431,0.2946 z m 0.9566,-0.6038 c 0.29028,-0.2911 0.22586,-0.88912 -0.11551,-1.07233 -0.56326,-0.3023 -1.0798,0.60303 -0.61182,1.07233 0.10436,0.10465 0.26801,0.19028 0.36367,0.19028 0.0957,0 0.25931,-0.0856 0.36366,-0.19028 z m 1.01551,-3.38636 c -0.26022,-0.18278 -0.35142,-0.4061 -0.35142,-0.86058 0,-0.85056 0.58918,-1.32272 1.53272,-1.22829 0.88579,0.0887 1.15526,0.33942 1.15526,1.07512 0,0.46292 -0.097,0.6798 -0.41661,0.93195 -0.49867,0.39336 -1.42048,0.43263 -1.91995,0.0818 z m 1.39826,-0.39299 c 0.35653,-0.19135 0.40511,-0.82434 0.0838,-1.09177 -0.28673,-0.23863 -1.00683,-0.0593 -1.19765,0.29826 -0.10056,0.18842 -0.0717,0.3814 0.0922,0.61601 0.26274,0.37616 0.55643,0.42719 1.02167,0.1775 z m -5.549,8.09931 c 0.8579,-1.34068 1.18701,-4.44801 0.78465,-7.40837 -0.19395,-1.42695 -1.08459,-4.23854 -1.67374,-5.28366 -0.62486,-1.10846 -2.01342,-3.17124 -2.13473,-3.17124 -0.12278,0 -3.30992,3.39795 -3.4939,3.72499 -0.11645,0.20701 0.0169,0.39773 1.88539,2.69677 2.82187,3.47208 3.83704,5.82784 3.84353,8.91911 0.002,0.71947 0.0665,1.30814 0.14438,1.30814 0.0779,0 0.36789,-0.35359 0.64442,-0.78574 z m -7.9013,-0.94712 c 0,-0.71322 -0.34958,-1.16163 -0.84982,-1.09006 -0.5427,0.0776 -0.54724,0.95149 -0.007,1.37752 0.64245,0.50678 0.85697,0.43482 0.85697,-0.28746 z m 18.19449,-1.38835 c 0.21973,-0.57958 0.12672,-1.06621 -0.21633,-1.1318 -0.40881,-0.0782 -0.74346,0.2605 -0.74346,0.75234 0,0.81998 0.68943,1.09255 0.95979,0.37946 z m -33.89936,-2.24472 c 1.37937,-1.2621 2.51106,-1.98611 3.88334,-2.4844 1.21618,-0.44161 1.2721,-0.60154 1.20019,-3.43253 -0.0457,-1.79931 -0.0884,-2.06541 -0.3783,-2.35569 -0.19067,-0.19095 -0.42118,-0.28282 -0.55341,-0.22058 -0.12464,0.0587 -1.21094,1.1362 -2.414,2.39452 -1.5565,1.62799 -2.29906,2.53249 -2.5746,3.13604 -0.58255,1.27603 -0.88849,4.04739 -0.44681,4.04739 0.0539,0 0.63154,-0.48814 1.28359,-1.08475 z m 33.91675,-3.11649 c 0.14857,-0.32701 0.12999,-0.45097 -0.10696,-0.71353 -0.31717,-0.35146 -0.71488,-0.41012 -0.97974,-0.14452 -0.16715,0.16762 -0.0922,0.41686 0.31733,1.0556 0.20659,0.32221 0.57635,0.22726 0.76937,-0.19755 z m -53.881714,-3.22569 c 2.39194,-1.18859 4.31644,-3.51452 5.59687,-6.76432 0.20617,-0.52328 0.50315,-1.23682 0.65994,-1.58566 0.1568,-0.34884 0.45181,-1.11447 0.65557,-1.70142 0.334054,-0.96221 0.346474,-1.09125 0.126294,-1.31204 -0.134304,-0.13468 -0.610604,-0.2884 -1.058454,-0.34159 -0.96912,-0.1151 -0.94177,-0.15489 -1.53837,2.23803 -0.59091,2.37003 -1.77104,4.66202 -3.07715,5.97625 -0.90465,0.91027 -1.19704,1.10077 -2.14739,1.39909 -1.503065,0.47182 -2.672945,0.45797 -3.767655,-0.0446 -1.20397,-0.55275 -1.44854,-1.04408 -1.40526,-2.82313 0.0371,-1.52579 -0.17236,-1.92388 -1.0124,-1.92388 -0.95432,0 -1.5003,1.57225 -1.16382,3.35147 0.36288,1.91885 1.86469,3.508 3.84107,4.06445 1.40402,0.3953 2.762795,0.22663 4.290755,-0.53264 z m 37.993934,-2.92645 c 2.0556,-2.13084 2.41745,-2.67677 2.42823,-3.6635 l 0.009,-0.80866 0.28313,0.70007 c 0.18728,0.46306 0.39307,0.71688 0.60787,0.74976 0.30308,0.0464 0.32169,-0.0188 0.279,-0.97755 -0.0449,-1.00851 0.0805,-1.27666 0.36149,-0.77311 0.078,0.13977 0.2772,0.22714 0.44267,0.19416 0.25289,-0.0504 0.29976,-0.19838 0.29395,-0.92802 -0.007,-0.90908 -0.54968,-2.8844 -0.92631,-3.37319 -0.2097,-0.27214 -0.30609,-0.27342 -2.0941,-0.0279 -1.03086,0.14156 -3.17282,0.29789 -4.75992,0.3474 -1.58709,0.0495 -2.88562,0.12828 -2.88562,0.17506 0,0.0468 0.52358,0.62533 1.16351,1.28566 1.77158,1.82806 2.30984,3.13248 2.31317,5.60578 10e-4,0.88381 0.0898,1.60342 0.24244,1.96986 0.26164,0.62797 0.5228,0.99808 0.70426,0.99808 0.0635,0 0.75536,-0.66326 1.53739,-1.47391 z m 3.31539,-5.2914 c -0.058,-0.0581 -0.10541,-0.17943 -0.10541,-0.26955 0,-0.0994 0.0737,-0.09 0.1871,0.0238 0.10291,0.1032 0.15035,0.2245 0.10542,0.26956 -0.0449,0.0451 -0.12913,0.0343 -0.18711,-0.0238 z m -47.134249,-0.54341 c 1.44004,-0.44604 3.82503,-2.02198 5.454435,-3.60416 1.15871,-1.12512 1.28678,-1.3044 1.09627,-1.5346 -0.30001,-0.36251 -1.33691,-0.87193 -1.7722,-0.87067 -0.39871,0.001 -1.057705,0.38948 -1.499815,0.8838 -1.09457,1.22385 -4.63498,3.2054 -6.00338,3.36007 -1.45908,0.16492 -3.01647,-0.6402 -3.68579,-1.90543 l -0.38184,-0.7218 0.50513,-1.09898 c 0.27782,-0.60443 0.50286,-1.20031 0.5001,-1.32416 -0.008,-0.34939 -0.37301,-0.75129 -0.84686,-0.93196 -1.35202,-0.51549 -2.55843,2.01379 -2.00735,4.20848 0.37811,1.50586 1.79234,2.93292 3.52682,3.55883 1.20566,0.43507 3.67744,0.42568 5.11448,-0.0194 z m 22.204549,-3.14097 c 1.55894,-0.33601 3.2236,-1.06197 4.40789,-1.92229 0.38336,-0.27849 0.62706,-0.55938 0.55102,-0.63511 -0.075,-0.0747 -0.61964,-0.21298 -1.21033,-0.30734 -2.47107,-0.39474 -5.02473,-1.72232 -6.82973,-3.55061 -1.80084,-1.82408 -5.46302,-7.06232 -7.830494,-11.20042 -1.92208,-3.35959 -2.38162,-3.98349 -4.49177,-6.0982 -1.98692,-1.99121 -2.928565,-2.63847 -4.416515,-3.03577 -2.2067,-0.58921 -4.01512,0.016 -5.09261,1.70419 -1.37257,2.15057 -1.10055,7.64568 0.59716,12.06336 1.29625,3.37303 4.35129,7.1492 7.792205,9.63153 2.53669,1.83001 5.38089,3.0495 8.316414,3.56577 1.88887,0.3322 6.19065,0.21944 8.20676,-0.21511 z m 22.41557,-0.43133 c 5.00917,-0.71619 9.94044,-3.26597 13.49326,-6.97689 1.36355,-1.42422 1.41937,-1.62062 0.70803,-2.49116 -0.69257,-0.84757 -1.84949,-3.16258 -2.27314,-4.5486 -1.01831,-3.33146 -0.74283,-5.92189 0.80423,-7.56228 0.76132,-0.80725 0.78302,-0.85446 0.4937,-1.07401 -0.40354,-0.30623 -1.33217,-0.3001 -1.77613,0.0117 -0.4423,0.31067 -1.1351,1.38805 -1.13629,1.76705 -0.002,0.62353 -0.33702,1.46985 -0.58191,1.46985 -0.21094,0 -0.23819,-0.14954 -0.16823,-0.92321 0.13303,-1.47117 0.78927,-2.50399 1.97174,-3.10321 0.73923,-0.3746 0.92383,-0.79971 0.52219,-1.20249 -0.39938,-0.4005 -1.22582,-0.41222 -1.68938,-0.0239 -0.18798,0.15744 -0.42735,0.60103 -0.53194,0.98574 -0.10459,0.38471 -0.21492,0.78746 -0.24518,0.895 -0.11825,0.42027 -0.54134,1.6e-4 -0.54134,-0.53749 0,-0.58681 0.38441,-1.4815 0.63653,-1.4815 0.28832,0 0.15755,-1.06249 -0.18764,-1.5246 -0.6101,-0.81675 -2.08998,-2.29847 -2.89969,-2.90329 -2.66332,-1.98938 -5.32297,-2.82148 -9.51601,-2.97718 -2.56946,-0.0954 -4.44819,0.0693 -7.00716,0.61425 -1.9258,0.41013 -2.10355,0.5626 -1.96378,1.68443 0.0957,0.76844 0.0776,0.85059 -0.1764,0.80109 -0.20706,-0.0403 -0.3362,-0.31641 -0.48085,-1.02788 -0.62894,-3.09346 -2.56361,-5.80788 -4.93148,-6.91906 -0.86417,-0.40554 -1.13844,-0.45965 -2.05868,-0.4062 -0.68963,0.0401 -1.33873,0.19474 -1.85226,0.4414 -1.06603,0.51203 -2.80985,2.3087 -4.00177,4.12304 -1.59238,2.42394 -4.36898,8.10519 -6.623654,13.55279 -0.30641,0.74033 -0.3541,1.01649 -0.2247,1.30128 0.19417,0.42737 1.435364,1.07974 1.648204,0.8663 0.0792,-0.0794 0.3108,-0.64111 0.51466,-1.24818 0.20385,-0.60706 0.57785,-1.55913 0.8311,-2.11571 0.25326,-0.55658 0.51511,-1.19034 0.58188,-1.40837 0.20169,-0.65848 2.58462,-5.37741 3.44298,-6.81816 1.11822,-1.87691 2.66611,-4.09358 3.53622,-5.06409 1.81752,-2.02721 3.44999,-1.85709 4.9815,0.51913 0.85781,1.33095 1.3979,3.34851 1.40015,5.23047 7.9e-4,0.64315 -0.0431,0.75636 -0.27579,0.71173 -0.17998,-0.0345 -0.30434,-0.2458 -0.35576,-0.60443 -0.0508,-0.35419 -0.17626,-0.57001 -0.35087,-0.60349 -0.3822,-0.0733 -3.33388,2.92851 -4.33537,4.40898 -1.23863,1.83102 -2.76164,4.93743 -3.14571,6.41614 -0.2449,0.94287 -0.31437,3.67337 -0.10199,4.00876 0.0688,0.10871 0.51233,0.31295 0.98554,0.45388 2.81697,0.8389 5.54401,2.90305 7.70799,5.83432 1.50979,2.04511 1.96394,2.78553 1.86582,3.04193 -0.16659,0.43536 -0.40821,0.2056 -1.54504,-1.46921 -1.48639,-2.18981 -3.48192,-4.28938 -4.9474,-5.20535 -0.62879,-0.39301 -2.026,-1.03842 -3.10491,-1.43423 -2.11022,-0.77417 -5.84143,-2.55698 -8.1061,-3.87317 -0.77053,-0.44782 -1.439474,-0.7756 -1.486534,-0.72841 -0.21644,0.21705 3.713434,6.10133 6.073914,9.09459 2.54313,3.22488 5.079,4.69214 8.70923,5.03917 0.64837,0.062 1.22099,0.20269 1.32212,0.32489 0.37719,0.45576 0.0174,0.94804 -1.23734,1.69278 -0.67568,0.40106 -1.37081,0.84502 -1.54474,0.98659 -0.29838,0.24285 -0.26487,0.25295 0.59341,0.17875 1.02739,-0.0888 2.3279,-0.63392 3.46227,-1.45118 0.6913,-0.49805 1.24122,-0.70332 1.24122,-0.46332 0,0.0493 -0.0761,0.23228 -0.16908,0.40654 -0.20673,0.38736 0.0526,0.77225 0.52031,0.77225 0.17188,0 0.53672,0.0993 0.81075,0.22063 0.54233,0.24014 2.9618,0.55612 4.84645,0.63294 2.10582,0.0858 6.20169,-0.0798 7.86885,-0.31813 z m 3.85964,-5.13738 c -1.75734,-0.36596 -3.58788,-1.7416 -4.53157,-3.40543 -0.95344,-1.68102 -1.11265,-1.82346 -2.03801,-1.82346 -1.2027,0 -2.20051,-0.39188 -2.85904,-1.12285 -0.76955,-0.8542 -0.70236,-1.02222 0.19046,-0.47626 0.97299,0.59498 1.8421,0.84312 2.72751,0.77875 0.68254,-0.0496 0.72763,-0.0847 1.10682,-0.86106 1.19511,-2.44688 3.05763,-3.53202 5.74522,-3.34729 2.55831,0.17584 4.8779,1.92931 6.11996,4.62632 0.75219,1.63331 0.88975,2.18019 0.53202,2.11504 -0.19086,-0.0348 -0.32148,0.15335 -0.48008,0.69135 -0.27334,0.92718 -1.4572,2.04381 -2.63543,2.48574 -0.97998,0.36757 -2.92468,0.53765 -3.87786,0.33915 z m 0.0313,-7.28261 c 1.3642,-0.52013 0.52857,-2.22536 -1.09125,-2.22686 -1.53924,-0.001 -2.01397,1.55397 -0.6552,2.14669 0.59537,0.25971 1.20246,0.28758 1.74645,0.0802 z m -13.06215,0.62666 c -0.73152,-1.6822 -0.48351,-4.43908 0.55999,-6.22468 0.48282,-0.8262 1.80101,-2.06711 2.66583,-2.50955 0.81833,-0.41866 2.01355,-0.64883 2.56989,-0.49489 0.44581,0.12335 0.42916,0.13868 -0.49398,0.45477 -1.1857,0.406 -2.55788,1.30624 -3.30926,2.1711 -0.31402,0.36145 -0.82785,1.19232 -1.14184,1.84639 -0.53108,1.10628 -0.57704,1.32191 -0.65905,3.09196 -0.0485,1.04651 -0.13469,1.79571 -0.19158,1.6649 z m -1.276,-5.49262 c -0.0603,-0.0605 -0.10804,-0.50829 -0.10613,-0.99521 0.004,-1.02554 0.38125,-1.95837 1.04388,-2.58134 0.46385,-0.43609 1.92239,-1.16623 2.05801,-1.03022 0.0412,0.0413 -0.32735,0.45653 -0.81893,0.92276 -1.04953,0.9954 -1.56175,1.81318 -1.85471,2.96111 -0.11689,0.45805 -0.26185,0.78335 -0.32212,0.7229 z m 26.50893,7.17511 c 0.58014,-0.76275 1.317,-2.71255 1.63126,-4.31649 0.50433,-2.57405 -0.13887,-5.04089 -1.68141,-6.44864 -1.00946,-0.92124 -1.68442,-1.06669 -2.62583,-0.56587 -0.57713,0.30703 -0.73091,0.49829 -0.99693,1.23992 -0.44772,1.24818 -0.69387,2.80679 -0.57572,3.64537 0.15844,1.12455 0.71106,3.00484 1.0441,3.55254 l 0.30229,0.49715 6.3e-4,-0.60248 c 6.3e-4,-0.64585 0.36501,-1.49607 0.77595,-1.81055 0.80152,-0.61338 2.23392,0.19257 2.22383,1.25126 -0.006,0.62124 -0.24999,0.99131 -0.76107,1.15398 -0.3812,0.12131 -0.81511,0.92737 -0.81511,1.51413 0,0.18002 0.1031,0.57475 0.22911,0.87718 0.29576,0.70986 0.7153,0.71406 1.2489,0.0125 z m -40.58762,-5.55675 0.0242,-1.73368 -0.79766,-0.77098 c -0.43871,-0.42403 -0.9121,-0.74888 -1.05198,-0.72187 -0.33967,0.0656 -0.6361,1.02598 -0.75611,2.44969 -0.11357,1.34728 0.01,1.57132 1.21332,2.2061 1.25774,0.66329 1.34018,0.57717 1.36821,-1.42926 z m -3.13322,-0.48755 c 0.0293,-0.26088 0.26535,-1.47327 0.52448,-2.6942 0.25913,-1.22093 0.63615,-3.11178 0.83782,-4.20189 0.20167,-1.09011 0.41919,-2.19608 0.48338,-2.45771 0.1038,-0.4231 0.0904,-0.44939 -0.12092,-0.23784 -0.62444,0.625 -2.73749,5.20763 -3.53066,7.65704 -0.52359,1.61692 -0.47687,1.79373 0.5832,2.20674 0.91642,0.35703 1.15801,0.30326 1.2227,-0.27214 z m 4.06862,-3.8377 c 1.89657,-4.20109 4.27798,-7.41705 6.65763,-8.99071 0.81378,-0.53816 0.87857,-0.69917 0.67128,-1.66843 -0.25469,-1.19094 -0.41785,-1.27132 -3.16539,-1.55941 l -2.41079,-0.25278 -0.54126,0.6235 c -1.11187,1.28082 -2.05628,3.62922 -2.89148,7.19009 -1.05876,4.51399 -0.99821,4.09587 -0.70473,4.86649 0.24784,0.6508 1.26974,1.7143 1.50634,1.56766 0.0584,-0.0362 0.45367,-0.83557 0.8784,-1.77641 z m -4.98854,-8.52878 c 0.45448,-0.87209 1.20894,-2.30974 1.67657,-3.19479 0.46764,-0.88504 0.85024,-1.73259 0.85024,-1.88344 0,-0.44857 -0.88039,-1.84993 -1.61137,-2.56487 -1.38981,-1.35935 -2.42475,-1.40855 -2.9835,-0.14184 -0.65833,1.49245 -0.54899,3.84824 0.34419,7.41613 0.2691,1.07494 0.52537,2.01417 0.56949,2.08717 0.12238,0.20252 0.26037,-0.003 1.15438,-1.71836 z m 11.53945,-4.20976 c 0,-0.28779 -0.42923,-1.00871 -0.81508,-1.36898 -0.52556,-0.49071 -1.22961,-0.72178 -1.84592,-0.60584 -0.55455,0.10433 -1.92438,1.23657 -1.92438,1.59061 0,0.13471 0.43356,0.25241 1.30447,0.35411 1.85245,0.21633 3.28091,0.22944 3.28091,0.0301 z m -6.08024,-3.96195 c 0.33228,-0.2648 1.06028,-0.69977 1.61779,-0.96659 0.93412,-0.44707 1.12102,-0.4807 2.38229,-0.42862 0.89336,0.0369 1.556,0.15254 1.90819,0.33304 0.59971,0.30734 0.87842,0.23158 0.39961,-0.10864 -0.16868,-0.11986 -0.48458,-0.37476 -0.70199,-0.56645 -1.34808,-1.18862 -3.19515,-1.17311 -4.74798,0.0399 -0.54109,0.42266 -1.77624,2.17886 -1.53241,2.17886 0.0387,0 0.34223,-0.21666 0.6745,-0.48146 z"
         style="fill:#000000;stroke-width:0.15833905" />
    </g>
    <g
       id="g5028"
       transform="matrix(0.73472088,0,0,0.77420092,63.835122,97.606279)">
      <path
         inkscape:connector-curvature="0"
         id="path5019"
         d="m 90.429428,183.17801 4.009044,1.5368 6.080378,1.10248 1.06908,1.70385 v 1.1693 l 1.03567,-1.60361 3.10701,1.1693 0.30068,-0.16704 -1.97112,-2.10475 5.21176,-0.56795 5.51243,-1.73725 0.3675,1.26953 -0.56795,1.20271 0.60136,1.40317 4.6104,0.86862 6.34765,-0.53454 1.90429,-0.90203 -0.96885,-1.60362 -3.24064,-1.5368 0.26727,-1.20271 1.77066,-2.43883 1.90429,2.17156 2.23839,2.40543 4.27631,1.80407 5.07812,1.1693 4.64381,-0.83522 4.57699,-2.80633 0.63476,-0.93544 -0.86862,-0.96885 -5.67948,-1.83748 -6.94901,-1.60362 -2.87314,-3.77518 -1.70385,-4.81085 -1.46998,-3.94223 -0.93544,-2.73951 c 0,0 -2.27179,-4.37654 -2.40543,-4.37654 -0.13363,0 -3.24064,-3.34087 -3.24064,-3.34087 l -7.78423,-7.78422 1.36976,-2.83974 0.33409,-2.80633 0.63476,-4.40995 1.10249,-2.10475 h 1.06908 l 2.27179,0.7684 3.77518,0.0334 2.93996,-1.50339 2.07134,0.93545 2.40543,-0.16705 0.66817,0.60136 1.83748,-0.10023 0.70158,0.73499 2.00452,-3.24064 1.30294,-0.73499 0.30068,-0.96885 -0.66817,-0.86863 -0.13364,-5.04471 -0.53454,-3.17383 -1.10248,-2.37201 -1.63703,-1.73726 -1.90429,-1.10248 -2.27179,-0.26727 -1.63703,0.60136 c 0,0 -1.57021,1.36975 -1.73725,1.46998 -0.16704,0.10022 -2.03793,0.96885 -2.03793,0.96885 l -2.77292,-0.26727 -2.50565,-1.1359 c 0,0 -4.24291,-1.30294 -4.67722,-1.30294 -0.43431,0 -3.14042,-0.50113 -3.27405,-0.50113 -0.13364,0 -3.27406,-0.90203 -3.27406,-0.90203 l -7.11605,-1.70384 c 0,0 -4.911075,1.73725 -5.044708,1.77066 -0.133636,0.0334 -3.240643,1.73725 -3.240643,1.73725 l -1.469983,0.86863 -3.040192,-0.30068 -1.904294,1.43657 -0.968854,1.63703 -0.534537,2.03793 0.434313,1.50339 0.835216,1.40316 1.937705,0.7684 0.968851,-0.16704 0.734991,3.70836 1.57021,4.27631 -0.267269,5.04472 v 5.31198 l -0.100227,1.20271 -2.77292,1.63703 -3.775184,2.50565 -3.274052,2.73951 -2.238383,2.60588 -3.00678,4.57699 -2.004523,4.37654 -1.503389,3.60814 -1.436574,2.73951 -1.670436,3.10701 -1.302938,1.30294 -3.207234,1.60361 -7.082642,0.96886 -3.842001,1.67043 -2.204974,1.57021 -0.23386,1.23612 0.567949,0.93544 1.46998,1.10249 3.87541,1.43657 2.706103,0.26728 1.403165,-0.0668 1.804069,0.23386 2.706106,-0.30068 3.374276,-0.53454 1.469982,-0.70158 1.202714,-0.86863 1.269529,-1.40316 1.436574,-1.57021 0.300678,-0.66817 0.734991,0.86862 0.467722,1.16931 0.200451,0.86862 0.200454,0.56795 -2.104747,-0.0668 -1.269532,0.90204 -0.100224,1.13589 1.436574,1.26953 1.436574,1.20272 0.300677,0.56794 1.369756,0.50113 2.438834,-0.56795 1.536801,-0.53453 3.574729,-0.3675 2.839739,-1.10249 0.23386,-1.20271 v -1.36976 l -0.634765,-1.10248 0.467723,-1.06908 z"
         style="fill:#577dae;fill-opacity:1;stroke:#000000;stroke-width:0.26458332px;stroke-linecap:butt;stroke-linejoin:miter;stroke-opacity:1" />
      <path
         sodipodi:nodetypes="cccc"
         inkscape:connector-curvature="0"
         id="path5007"
         d="m 89.672098,162.6691 c 5.457773,-1.29358 10.456922,-2.91881 14.272562,0.0589 -0.48298,13.92875 -10.56337,14.32879 -12.277777,14.72243 z"
         style="fill:#66c2e5;fill-opacity:1;stroke:#66c2e5;stroke-width:0.28879228px;stroke-linecap:butt;stroke-linejoin:miter;stroke-opacity:1" />
      <path
         inkscape:connector-curvature="0"
         id="path5011"
         d="m 91.331464,171.51838 0.367496,4.71062 3.674954,-1.40316 1.102487,-1.87089 -1.937702,-2.13816 z"
         style="fill:#ffffff;fill-opacity:1;stroke:none;stroke-width:0.26458332px;stroke-linecap:butt;stroke-linejoin:miter;stroke-opacity:1" />
      <path
         style="fill:#66c2e5;fill-opacity:1;stroke:#66c2e5;stroke-width:0.22140199px;stroke-linecap:butt;stroke-linejoin:miter;stroke-opacity:1"
         d="m 126.15312,165.03317 c -1.55093,-3.7549 -6.79736,-4.67755 -7.61073,-2.24329 -3.34889,10.02262 3.44336,12.51419 4.42787,13.19692 z"
         id="path5013"
         inkscape:connector-curvature="0"
         sodipodi:nodetypes="cscc" />
      <path
         sodipodi:nodetypes="cccccc"
         style="fill:#ffffff;fill-opacity:1;stroke:none;stroke-width:0.26458332px;stroke-linecap:butt;stroke-linejoin:miter;stroke-opacity:1"
         d="m 125.53664,170.38776 -2.73933,3.84981 -1.42657,-1.55754 -0.98476,-3.70829 2.76177,-0.83608 z"
         id="path5015"
         inkscape:connector-curvature="0" />
      <path
         sodipodi:nodetypes="cccccccccccccccccc"
         inkscape:connector-curvature="0"
         id="path5017"
         d="m 97.423363,149.0223 0.472469,-11.15029 h 4.441218 l 2.07887,-2.45685 0.66146,-1.70089 2.64583,-1.70089 2.05595,-0.94495 0.43332,-3.58503 2.42344,-2.60866 c -0.30774,-2.13321 0.40103,-3.91265 -1.41643,-4.20065 -1.48145,-0.7382 -1.69661,-2.16711 -2.26786,-3.40179 0.48809,-1.63184 7.07077,1.0454 9.5439,7.74852 2.13757,2.20894 1.00204,5.67675 1.03944,8.69345 -3.29371,6.72138 -1.86146,14.46111 -7.9375,18.70982 l 8.64957,3.01807 c -2.09552,3.49626 -7.34241,2.37803 -11.76787,2.46258 -5.14948,0.70544 -10.023082,0.7803 -13.323664,-2.74032 z"
         style="fill:#66c2e5;fill-opacity:1;stroke:#66c2e5;stroke-width:0.26458332px;stroke-linecap:butt;stroke-linejoin:miter;stroke-opacity:1" />
      <path
         inkscape:connector-curvature="0"
         id="path4992"
         d="m 75.480378,190.86598 c 6.88e-4,-0.21892 0.149822,-0.69122 0.331276,-1.04955 0.636665,-1.25726 0.293704,-1.4072 -0.851023,-0.37204 -0.891488,0.80615 -1.167537,0.84824 -1.364809,0.2081 -0.100854,-0.32725 0.0092,-0.64454 0.35489,-1.02356 0.573737,-0.62897 0.233934,-0.72955 -0.588888,-0.17428 -0.428037,0.28884 -0.615767,0.31312 -0.817186,0.10571 -0.368036,-0.37904 0.192592,-1.34648 1.173251,-2.02455 0.422015,-0.29182 0.845333,-0.76553 0.940705,-1.05269 0.204755,-0.6165 0.951973,-1.00767 2.284079,-1.19572 0.531138,-0.075 0.965703,-0.17084 0.965703,-0.21305 0,-0.21529 -0.989706,-2.136 -1.100645,-2.136 -0.07108,0 -0.305074,0.3066 -0.520001,0.68131 -0.214927,0.37473 -0.830745,1.10603 -1.368485,1.62511 -2.886183,2.78607 -5.381329,3.52547 -11.153492,3.30522 -4.272746,-0.16303 -6.029428,-0.51023 -8.254638,-1.6315 -1.594143,-0.80327 -2.779732,-2.00389 -2.779732,-2.81499 0,-0.85694 0.495283,-1.48891 1.945336,-2.48221 1.834471,-1.25664 4.38259,-2.05706 7.772099,-2.4414 3.018201,-0.34224 4.137126,-0.5699 5.396782,-1.09802 2.271921,-0.95253 3.234934,-2.17805 4.941833,-6.28889 1.076884,-2.59354 1.724401,-3.90803 2.464978,-5.00405 0.211327,-0.31275 0.591754,-1.23395 0.845395,-2.0471 1.173502,-3.76221 4.1229,-7.96004 7.712457,-10.97702 2.259792,-1.89933 6.840298,-4.92356 8.066929,-5.32609 0.212564,-0.0698 0.394089,-0.19167 0.403386,-0.2709 0.0093,-0.0793 0.06833,-0.34877 0.131179,-0.59897 0.06285,-0.2502 0.147605,-2.14378 0.188342,-4.20795 0.09381,-4.75425 -0.14437,-6.54268 -1.60269,-12.03392 -0.565171,-2.12812 -0.683448,-2.37476 -1.171917,-2.44376 -1.122622,-0.15857 -1.52175,-0.32304 -2.190592,-0.90267 -1.025868,-0.88903 -1.334193,-1.68462 -1.334193,-3.44272 0,-1.32713 0.09462,-1.71262 0.636293,-2.5923 0.349961,-0.56834 0.95123,-1.26429 1.336147,-1.54659 0.960743,-0.70457 2.779509,-1.17898 3.475333,-0.90652 0.894114,0.35011 1.377181,0.25003 2.444837,-0.50651 0.558466,-0.39573 1.815492,-1.06704 2.793401,-1.49181 0.977896,-0.42475 1.880544,-0.85191 2.005884,-0.94922 0.12533,-0.0973 0.79992,-0.41052 1.499078,-0.69601 1.39535,-0.56975 3.97817,-0.72854 4.85853,-0.29869 1.35651,0.66235 2.11921,0.94709 2.92515,1.09206 0.48587,0.0874 1.4797,0.39332 2.20851,0.67983 0.72881,0.28651 1.92141,0.57724 2.65021,0.64607 2.1197,0.2002 6.34011,1.13062 6.84638,1.50934 0.12146,0.0908 0.51899,0.23839 0.8834,0.32784 0.66253,0.16263 1.84316,0.64704 2.62202,1.07581 0.54415,0.29956 2.60761,0.51264 3.28036,0.33874 0.29194,-0.0755 1.22008,-0.67553 2.0625,-1.33349 1.69177,-1.32129 3.32383,-2.00861 4.37712,-1.84337 1.92115,0.30138 4.15273,2.11178 5.1509,4.17873 1.1006,2.27903 1.38985,3.7455 1.38985,7.04657 0,2.49493 0.0663,3.17562 0.33127,3.40212 0.37283,0.31868 0.44868,1.49062 0.11043,1.70594 -0.12148,0.0773 -0.22086,0.37788 -0.22086,0.66794 0,0.6343 -0.4084,1.02065 -1.24388,1.17668 -0.82349,0.15379 -1.18547,0.49118 -1.18547,1.10491 0,1.07197 -1.41995,1.63489 -2.33194,0.92446 -0.23578,-0.18367 -0.61245,-0.33721 -0.83702,-0.34119 -0.22458,-0.004 -0.74674,-0.17262 -1.16034,-0.37476 -0.4753,-0.23229 -0.97518,-0.31091 -1.35848,-0.21366 -1.71929,0.43615 -1.79837,0.42724 -2.39215,-0.26968 l -0.57466,-0.67447 -1.13877,0.62451 c -1.58942,0.87165 -3.95914,1.43636 -5.27377,1.25675 -0.58238,-0.0796 -1.60668,-0.43738 -2.27621,-0.79514 -1.41644,-0.75687 -1.30964,-0.85039 -2.06016,1.80396 -0.2653,0.93826 -0.57966,2.02026 -0.69857,2.40445 -0.11891,0.38418 -0.21739,1.2542 -0.21884,1.93338 -0.002,1.29731 -0.35713,2.92086 -0.95546,4.37725 l -0.35654,0.86783 5.58235,5.72841 c 5.30774,5.44661 6.19073,6.52937 6.99023,8.57162 0.1714,0.43786 0.37847,0.84728 0.46015,0.90984 0.35397,0.27106 1.07244,2.05672 1.41855,3.52557 1.07239,4.55122 3.61949,10.47197 4.83314,11.23471 1.04421,0.65625 3.38541,1.29617 7.64891,2.09071 2.01333,0.37521 4.14247,1.07395 5.24114,1.72004 1.64236,0.96583 1.80207,1.91339 0.52309,3.10343 -0.96685,0.89963 -3.57962,2.23663 -5.13523,2.62781 -2.39972,0.60344 -4.01392,0.70746 -6.04196,0.38934 -4.76781,-0.74786 -8.28235,-2.68727 -10.58378,-5.84042 -0.96749,-1.32554 -1.01249,-1.35661 -1.206,-0.83238 -0.11057,0.2995 -0.46639,0.86932 -0.7907,1.26629 -0.6754,0.82667 -0.61444,1.07202 0.31388,1.26323 0.39275,0.0809 1.18643,0.66873 1.95906,1.45098 0.71435,0.72324 1.51251,1.49311 1.7737,1.7108 0.26119,0.21771 0.4749,0.5024 0.4749,0.63265 0,0.38476 -0.59179,0.50501 -1.10181,0.2239 -0.37033,-0.20413 -0.57902,-0.19028 -0.95587,0.0635 -0.27041,0.18206 -1.30643,0.37966 -2.35934,0.44999 -1.03247,0.0689 -2.62261,0.24976 -3.53361,0.40177 -2.20699,0.36826 -4.73414,0.16018 -5.91083,-0.48669 -1.1918,-0.65517 -1.54566,-1.48971 -1.15224,-2.71744 0.15846,-0.49451 0.23528,-0.95354 0.17069,-1.02005 -0.0646,-0.0666 -0.60502,0.077 -1.20097,0.31894 -1.70649,0.69274 -6.34713,1.71005 -7.62949,1.6725 -0.82173,-0.0241 -0.78204,0.22513 0.15285,0.95955 0.83148,0.65317 0.98225,1.13505 0.42416,1.35562 -0.60657,0.23972 -2.19295,-0.26465 -3.00663,-0.95593 -0.33405,-0.28379 -0.40825,-0.23317 -0.69523,0.47421 -0.17669,0.43554 -0.42182,0.85591 -0.54472,0.93413 -0.43011,0.27379 -0.92587,-0.13233 -0.92587,-0.75845 0,-0.65935 -0.53893,-1.95219 -0.91306,-2.19032 -0.12239,-0.0779 -0.786928,-0.19309 -1.476748,-0.25594 -2.180982,-0.19874 -5.49193,-1.06407 -7.613414,-1.98979 -1.09854,-0.47936 -1.336264,-0.29665 -0.926919,0.71235 0.504239,1.24291 0.422379,2.42698 -0.222335,3.2161 -0.663821,0.8125 -2.72961,1.40804 -6.184312,1.78288 -0.728807,0.0791 -1.800852,0.33387 -2.382321,0.56622 -1.310388,0.52362 -2.124724,0.53358 -3.133129,0.0383 l -0.782143,-0.38415 -0.726606,0.72532 c -0.810406,0.80897 -1.25839,0.92567 -1.256345,0.32728 z m 5.927518,-1.61619 c 0.375593,-0.2704 1.022652,-0.43494 1.800899,-0.45793 1.191952,-0.0352 3.54281,-0.401 4.196169,-0.6529 0.1822,-0.0702 0.562003,-0.14809 0.844006,-0.17298 0.667608,-0.0589 1.318871,-0.76099 1.371603,-1.47853 0.09258,-1.25977 -0.01158,-1.81966 -0.338378,-1.81966 -0.182201,0 -0.331279,-0.10031 -0.331279,-0.22284 0,-0.20766 0.463911,-1.57572 0.888562,-2.62036 0.417946,-1.02816 0.657504,-2.11208 0.711086,-3.21743 0.03117,-0.64368 0.14211,-1.11692 0.246457,-1.05166 0.361816,0.22628 -0.04852,-6.18759 -0.527226,-8.24103 -0.116662,-0.5004 -0.242038,-1.18742 -0.278629,-1.52673 -0.03656,-0.33929 -0.136538,-0.68901 -0.222111,-0.77714 -0.08557,-0.0881 -0.155588,-0.45025 -0.155588,-0.8047 0,-0.35446 -0.07454,-0.64496 -0.165636,-0.64558 -0.0911,-6.4e-4 -0.193057,-0.48435 -0.226568,-1.07494 -0.03349,-0.5906 -0.157742,-1.17352 -0.276068,-1.29538 -0.341439,-0.35165 -0.242306,-1.10542 0.226574,-1.72278 0.237529,-0.31275 0.434085,-0.65102 0.43679,-0.75171 0.0074,-0.27825 1.765647,-2.88759 1.945675,-2.88759 0.294768,0 4.02012,-3.79309 3.873578,-3.94402 -0.08021,-0.0826 -0.03237,-0.1502 0.1063,-0.1502 0.361642,0 1.102402,-1.78983 1.509887,-3.6482 0.287939,-1.31315 0.404074,-1.54941 0.655846,-1.3342 0.168278,0.14383 0.305956,0.40251 0.305956,0.57485 0,0.24003 0.413341,0.31333 1.766801,0.31333 2.596028,0 2.252008,0.53917 -0.52193,0.81801 -1.573346,0.15815 -1.612448,0.18221 -1.778503,1.09384 -0.176824,0.97072 -0.940083,2.54262 -1.600387,3.29592 -0.262702,0.2997 -0.429046,0.67534 -0.369653,0.83474 0.05941,0.15941 0.721553,0.54799 1.471466,0.86354 1.314067,0.55292 1.982527,0.77568 3.717585,1.23886 1.01493,0.27093 5.53046,0.29136 6.41858,0.029 0.36531,-0.1079 2.58189,-0.20805 4.92576,-0.22258 4.72736,-0.0292 5.50411,-0.17569 7.10545,-1.3392 l 1.06034,-0.77042 -0.77297,-0.28781 c -0.42515,-0.15829 -1.08116,-0.2956 -1.4578,-0.30511 -0.37664,-0.01 -0.97293,-0.10777 -1.32511,-0.21823 -0.35215,-0.11051 -1.08751,-0.3346 -1.63412,-0.49798 -1.20604,-0.3605 -4.06193,-1.86058 -4.96051,-2.60558 -0.94117,-0.7803 -0.51464,-0.96928 0.54998,-0.24368 l 0.89888,0.61263 0.60253,-0.52248 c 1.6279,-1.41161 3.44394,-4.02729 4.07386,-5.86771 0.19268,-0.56296 0.40727,-1.91539 0.47687,-3.00541 0.14157,-2.21757 0.54108,-4.20667 1.11304,-5.5417 0.63163,-1.47431 0.73955,-1.76517 0.98522,-2.65513 0.1295,-0.46912 0.33483,-1.19288 0.4563,-1.60835 0.12146,-0.41546 0.22086,-0.97841 0.22086,-1.25101 0,-0.27259 0.0994,-0.49563 0.22084,-0.49563 0.12746,0 0.22086,0.71581 0.22086,1.6925 0,0.93088 -0.0994,1.75576 -0.22086,1.83308 -0.34476,0.21945 -0.25914,0.7961 0.11819,0.7961 0.18649,0 0.57165,0.15696 0.85592,0.34879 0.28427,0.19184 0.75284,0.40436 1.04127,0.47228 0.64494,0.15188 2.7946,0.15175 3.39546,-2.1e-4 0.79812,-0.20182 1.98506,-0.70346 2.12278,-0.89716 0.0743,-0.10452 0.19854,-0.18127 0.27607,-0.17058 0.39629,0.0546 0.72363,-0.008 1.00437,-0.19051 0.26352,-0.1718 0.26608,-0.31968 0.0166,-0.9632 -0.46475,-1.19913 -1.09372,-2.01126 -1.55768,-2.01126 -0.23465,0 -0.42666,-0.10236 -0.42666,-0.22746 0,-0.1251 -0.14907,-0.22745 -0.33127,-0.22745 -0.1822,0 -0.33127,-0.10237 -0.33127,-0.22746 0,-0.1251 -0.14908,-0.22746 -0.33128,-0.22746 -0.36617,0 -0.48501,-1.46749 -0.1368,-1.68913 0.22794,-0.1451 0.42721,-0.90078 0.69419,-2.63254 0.33871,-2.19702 0.47312,-2.68426 0.8578,-3.10952 0.207,-0.22882 0.3921,-0.49649 0.41131,-0.59477 0.0193,-0.0983 0.18786,-0.3362 0.37476,-0.52868 0.54876,-0.56517 0.66342,0.15977 0.17012,1.07559 -0.60693,1.12673 -1.01126,2.82593 -0.85901,3.60994 0.075,0.38678 0.0393,0.68472 -0.0824,0.68472 -0.11843,0 -0.21533,0.10237 -0.21533,0.22746 0,0.1251 0.17391,0.22758 0.38649,0.22774 0.55207,4.5e-4 1.60116,0.9954 1.60116,1.51862 0,0.24333 -0.20264,0.66644 -0.45031,0.94023 -0.36076,0.39882 -0.38272,0.4978 -0.11042,0.4978 0.18693,0 0.33989,0.19218 0.33989,0.42707 0,0.23487 0.14906,0.55448 0.33127,0.71022 0.1822,0.15573 0.33127,0.47534 0.33127,0.71021 0,0.5013 0.0818,0.52032 0.65446,0.15203 0.34851,-0.22416 0.58285,-0.19553 1.2669,0.15472 0.4616,0.23635 0.92121,0.40876 1.02134,0.38312 0.10013,-0.0257 0.12335,0.0512 0.0515,0.17076 -0.0718,0.11956 -0.0294,0.28166 0.094,0.36024 0.12344,0.0785 0.22776,0.41831 0.2318,0.75496 l 0.007,0.61207 0.4114,-0.50776 0.41138,-0.50777 0.1509,0.61922 c 0.22719,0.93222 0.74354,1.19586 1.27342,0.65012 0.547,-0.56335 2.12241,-1.28861 2.26889,-1.0445 0.0758,0.12622 0.23185,0.16956 0.34689,0.0963 0.34225,-0.21785 -0.005,-0.55663 -0.57098,-0.55663 -0.28934,0 -0.58441,-0.0972 -0.65571,-0.21605 -0.18156,-0.30254 0.5549,-0.6527 1.15967,-0.55139 0.30348,0.0509 0.55448,-0.0512 0.63096,-0.25645 0.0699,-0.18747 0.26545,-0.34085 0.43466,-0.34085 0.1692,0 0.30765,-0.1143 0.30765,-0.25399 0,-0.14197 0.19472,-0.20154 0.44147,-0.13508 0.59526,0.16032 0.75063,-0.17033 0.29872,-0.63575 -0.30524,-0.31439 -0.37404,-0.92935 -0.40278,-3.60078 -0.037,-3.4453 -0.17778,-4.15258 -1.28961,-6.48183 -0.71766,-1.50347 -2.56251,-3.4498 -3.26993,-3.4498 -0.20842,0 -0.41579,-0.11385 -0.46083,-0.253 -0.045,-0.13917 -0.5756,-0.26068 -1.17903,-0.27006 -1.13417,-0.0176 -1.5815,0.21637 -4.51084,2.35967 -0.89788,0.65695 -1.14258,0.72364 -2.71914,0.74111 -1.23376,0.0137 -1.7856,-0.0694 -1.917,-0.28834 -0.10674,-0.17786 -0.3804,-0.25475 -0.64914,-0.18237 -0.25555,0.0688 -0.40849,0.0316 -0.33989,-0.0827 0.0686,-0.11431 -0.0555,-0.26759 -0.27576,-0.3406 -0.22026,-0.073 -0.59926,-0.21076 -0.84218,-0.3061 -1.36627,-0.53624 -2.7126,-0.98061 -3.15768,-1.04221 -0.2791,-0.0386 -0.62693,-0.16364 -0.77298,-0.27778 -0.14603,-0.11414 -0.62076,-0.22696 -1.05498,-0.25073 -0.4342,-0.0238 -1.12923,-0.14356 -1.54449,-0.26622 -1.45487,-0.42973 -1.48177,-0.13556 -0.0824,0.89952 0.55381,0.40962 1.36294,1.297 1.79807,1.97195 0.43513,0.67496 0.89303,1.22719 1.01754,1.22719 0.12451,0 0.16307,0.0653 0.0856,0.14491 -0.0774,0.0797 0.0552,0.42817 0.29446,0.77435 0.23935,0.34619 0.43519,0.78671 0.43519,0.97895 0,0.19223 0.0994,0.41277 0.22084,0.49008 0.12146,0.0773 0.22085,0.39043 0.22085,0.6958 0,0.30536 -0.0994,0.55521 -0.22085,0.55521 -0.12146,0 -0.22084,-0.15353 -0.22084,-0.34119 0,-0.18765 -0.0752,-0.34118 -0.16694,-0.34118 -0.0918,0 -0.30677,-0.33266 -0.47768,-0.73923 -0.89152,-2.12091 -2.97732,-4.4769 -5.0292,-5.6807 -1.87969,-1.10277 -3.47782,-1.77221 -3.57363,-1.49694 -0.0452,0.12978 0.019,0.30088 0.14235,0.38025 0.12346,0.0794 0.31194,0.6012 0.41883,1.15966 0.17514,0.91511 0.26846,1.03098 0.9451,1.17351 0.77168,0.16254 1.89571,1.28172 2.57898,2.56785 0.60955,1.14735 0.2921,2.35569 -0.91648,3.48856 -0.56722,0.53168 -1.1587,0.96669 -1.31441,0.96669 -0.54405,0 -0.94976,1.5664 -0.67166,2.59318 0.12443,0.45943 0.0729,0.87385 -0.16971,1.36474 -0.19163,0.38771 -0.41418,0.94354 -0.49458,1.23516 -0.17247,0.6257 -1.95732,1.85808 -2.69103,1.85808 -0.28154,0 -0.69614,-0.11851 -0.92134,-0.26335 -0.59456,-0.38242 -1.06629,-0.10075 -1.2465,0.74437 -0.14889,0.69813 -0.78732,2.04733 -1.24185,2.62436 -0.11358,0.14421 -0.76741,0.5357 -1.45296,0.87001 -1.77301,0.86458 -3.358368,0.73759 -5.541404,-0.44386 -0.882857,-0.47781 -1.703775,-1.05845 -1.824262,-1.29031 -0.120486,-0.23187 -0.190721,-0.4294 -0.156076,-0.43898 0.610458,-0.16867 0.948697,-0.0807 1.420183,0.36932 0.312109,0.2979 0.63133,0.52877 0.709384,0.51304 0.07806,-0.0157 0.44007,0.10194 0.804472,0.26142 0.364408,0.1595 1.308545,0.33798 2.098085,0.39661 1.312048,0.0974 1.524688,0.0475 2.472048,-0.58126 0.76758,-0.5094 1.18301,-1.00683 1.60116,-1.91717 0.31056,-0.6761 0.56466,-1.32846 0.56466,-1.44967 0,-0.24289 -1.43217,-0.2165 -2.0416,0.0375 -0.21188,0.0883 -0.32872,0.25479 -0.25965,0.36988 0.0691,0.11509 0.0436,0.18629 -0.0564,0.15821 -0.10013,-0.028 -0.88487,0.0249 -1.74387,0.11787 -0.998478,0.108 -1.795078,0.0788 -2.208508,-0.0811 -0.630563,-0.24379 -2.082222,-1.70431 -2.082222,-2.09491 0,-0.10765 -0.198766,-0.41538 -0.441704,-0.68394 -0.242933,-0.26857 -0.441698,-0.78014 -0.441698,-1.13684 0,-0.84674 -0.680649,-2.17223 -1.530816,-2.98112 -0.372734,-0.35463 -0.677694,-0.83497 -0.677694,-1.06742 0,-0.23245 -0.19047,-0.76115 -0.423267,-1.17487 -0.718193,-1.27639 -0.504165,-2.40747 0.739183,-3.90636 0.918704,-1.10752 1.313424,-1.38167 1.904795,-1.32298 0.06745,0.006 0.233461,-0.29022 0.368909,-0.65981 l 0.246282,-0.67198 -0.887053,0.51346 c -0.487874,0.2824 -1.317726,1.00086 -1.844107,1.59657 -1.340069,1.51657 -1.768727,1.4489 -1.109839,-0.17521 l 0.320004,-0.78879 h -0.88093 c -2.259525,0 -4.176099,2.06672 -4.176099,4.50323 0,1.18518 0.08049,1.42733 0.717763,2.15957 0.466007,0.53545 0.969526,0.86091 1.435532,0.92788 0.703218,0.10108 0.717767,0.0853 0.717767,-0.77563 0,-1.54444 0.440954,-3.20934 0.829364,-3.13141 0.285621,0.0573 0.358253,0.53747 0.417132,2.75764 0.03919,1.47853 0.139117,2.80127 0.222016,2.93941 0.08289,0.13814 0.227007,0.6173 0.320248,1.06479 0.09324,0.4475 0.281164,1.22304 0.417603,1.72345 0.516564,1.89451 0.715769,2.77046 0.931068,4.09422 0.285616,1.75607 0.349152,9.87211 0.08177,10.44563 -0.173593,0.37237 -0.140701,0.41235 0.220851,0.2684 0.997035,-0.39698 1.639515,-0.42717 1.639515,-0.077 0,0.27279 -1.647609,1.3045 -2.083234,1.3045 -0.20755,0 -4.435025,2.60644 -4.505485,2.77785 -0.04051,0.0985 -0.214409,0.17908 -0.386488,0.17908 -0.172078,0 -0.312873,0.10237 -0.312873,0.22746 0,0.1251 -0.149071,0.22746 -0.331277,0.22746 -0.1822,0 -0.331275,0.0955 -0.331275,0.21212 0,0.11667 -0.17392,0.27118 -0.386489,0.34337 -0.212569,0.0722 -0.701885,0.41174 -1.08737,0.75457 -0.385486,0.34283 -1.177926,1.03274 -1.760978,1.53314 -1.258081,1.07975 -2.993149,2.95164 -2.985662,3.2211 0.003,0.10496 -0.129788,0.26861 -0.294895,0.36378 -0.422592,0.24356 -2.318639,3.2271 -2.318639,3.6485 0,0.19168 -0.09561,0.38262 -0.212484,0.42433 -0.35047,0.12506 -1.516008,3.84188 -1.664287,5.30731 -0.21234,2.09852 -0.241745,7.8 -0.0481,9.32573 0.194023,1.52872 1.45657,5.87245 1.74096,5.98969 0.10115,0.0417 0.183911,0.21601 0.183911,0.38735 0,0.55739 0.500466,1.45966 0.728971,1.31421 0.131666,-0.0838 0.15374,-0.0269 0.054,0.13935 -0.262498,0.43743 0.911294,1.5363 2.118701,1.98346 0.775014,0.28703 1.073637,0.51852 1.073637,0.83226 0,0.44709 0.0053,0.44701 -1.490742,0.0193 -0.30098,-0.086 -0.496915,-0.0419 -0.496915,0.11195 0,0.1397 -0.322995,0.25761 -0.717765,0.26206 -0.394772,0.004 -0.95906,0.14572 -1.253976,0.31397 l -0.536211,0.30593 0.480998,0.30937 c 0.305318,0.19637 0.480999,0.53861 0.480999,0.93702 0,0.59419 0.05413,0.62766 1.014947,0.62766 0.630748,0 1.236858,-0.15976 1.601169,-0.42205 z m 26.977894,-32.54766 c -2.67536,-0.13191 -2.81576,-0.23305 -0.94932,-0.68392 1.09675,-0.26492 1.74066,-0.24352 3.30934,0.10999 0.74345,0.16754 1.23783,0.82563 0.55931,0.74452 -0.20875,-0.0249 -1.52245,-0.10172 -2.91933,-0.17059 z m 3.23289,-8.31366 c -0.0949,-0.25472 0.0344,-0.34119 0.51044,-0.34119 0.35065,0 0.79477,-0.0621 0.9869,-0.13806 0.60781,-0.24021 0.37841,-0.54431 -0.41061,-0.54431 -1.10777,0 -1.13925,-0.34495 -0.0866,-0.94846 0.50846,-0.29149 0.9642,-0.68353 1.01273,-0.87119 0.0541,-0.20905 0.0176,-0.25015 -0.0942,-0.10615 -0.10034,0.1293 -0.30668,0.21886 -0.45852,0.19903 -0.15183,-0.0197 -0.38687,-0.0489 -0.5223,-0.0645 -0.15064,-0.0174 -0.0917,-0.27131 0.15193,-0.65394 0.21901,-0.34402 0.52798,-0.88139 0.6866,-1.19415 0.15861,-0.31275 0.30143,-0.44069 0.31737,-0.28432 0.0159,0.15638 0.0414,0.40765 0.0566,0.55839 0.0152,0.15074 0.26869,0.33268 0.56335,0.40432 0.78543,0.19097 0.78441,0.54273 -0.004,1.35464 -0.67466,0.69484 -0.68362,0.7279 -0.23041,0.84997 0.83084,0.22376 0.40366,1.66613 -0.49346,1.66613 -0.1837,0 -0.39543,0.10237 -0.47051,0.22746 -0.21351,0.35582 -1.37285,0.26881 -1.51539,-0.11372 z m 23.51647,-17.23677 c -0.13599,-0.14006 -0.24726,-0.16713 -0.24726,-0.0602 0,0.10701 -0.19876,0.01 -0.4417,-0.21722 -0.24295,-0.22642 -0.44171,-0.32605 -0.44171,-0.22139 0,0.26571 -1.46018,-1.45136 -1.728,-2.03199 -0.64488,-1.39809 -0.93668,-2.5885 -1.02274,-4.17226 -0.0357,-0.65678 0.0264,-1.19414 0.13794,-1.19414 0.11154,0 0.18429,-0.12796 0.16166,-0.28433 -0.0767,-0.53043 0.4795,-1.64724 1.02496,-2.05782 0.76418,-0.57524 2.27342,-0.61955 2.79528,-0.0821 0.16302,0.1679 0.51796,0.42739 0.78876,0.57665 0.27079,0.14925 0.49236,0.42131 0.49236,0.60456 0,0.18325 0.0929,0.33318 0.20655,0.33318 0.11361,0 0.33234,0.35825 0.48608,0.7961 0.15372,0.43785 0.34733,0.7961 0.43022,0.7961 0.49604,0 0.8025,3.82005 0.4058,5.05802 -0.29056,0.90675 -1.21089,2.03532 -1.78207,2.1853 -0.80555,0.21151 -1.03819,0.20628 -1.26613,-0.0285 z m -11.95236,56.47066 c 1.39688,-0.13924 2.7608,-0.26843 3.03094,-0.28708 0.56256,-0.0388 0.67293,-0.24127 0.63803,-1.1701 -0.021,-0.5582 -0.13003,-0.6777 -0.68748,-0.75327 -0.3644,-0.0494 -0.74469,-0.17322 -0.84509,-0.27515 -0.10034,-0.10194 -0.58353,-0.0926 -1.07362,0.0209 -0.61816,0.14304 -0.98503,0.12591 -1.19779,-0.056 -0.27894,-0.23844 -0.39776,-0.13318 -0.33549,0.29714 0.0129,0.0893 -0.11457,0.10787 -0.28334,0.0411 -0.40869,-0.16151 -0.31721,-0.64722 0.2409,-1.27907 0.25102,-0.28416 0.74147,-0.97726 1.08993,-1.54023 0.34846,-0.56294 0.68418,-1.07472 0.74605,-1.13727 0.21714,-0.21951 0.91397,-1.4826 1.03527,-1.87651 0.0674,-0.21893 0.21036,-0.39805 0.31766,-0.39805 0.1073,0 0.1951,-0.11674 0.1951,-0.25942 0,-0.14267 0.19074,-0.68003 0.42387,-1.19414 0.56601,-1.24817 0.75923,-1.80491 0.70769,-2.0391 -0.0235,-0.10701 0.0639,-0.32698 0.19435,-0.48884 0.13044,-0.16187 0.26794,-0.64755 0.30555,-1.07929 0.0377,-0.43173 0.14314,-0.90952 0.23448,-1.06174 0.26196,-0.43654 0.4189,-2.00519 0.42289,-4.22676 0.008,-4.80217 -0.97403,-7.92105 -3.33161,-10.5744 -0.66098,-0.7439 -0.63524,-0.47718 0.0937,0.97193 0.59694,1.18661 0.64892,1.31783 0.70059,1.76865 0.0152,0.13249 0.14234,0.16785 0.28258,0.0786 0.14023,-0.0893 0.20023,-0.0697 0.13333,0.0435 -0.0669,0.11316 -0.0288,0.76869 0.0847,1.45674 0.26046,1.57961 0.24383,5.99405 -0.0266,7.04875 -0.11259,0.43918 -0.25174,1.0544 -0.30923,1.36715 -0.25029,1.36188 -2.22885,5.68641 -2.60163,5.68641 -0.10215,0 -0.18575,0.11691 -0.18575,0.25979 0,0.70501 -4.55857,5.42663 -5.23921,5.42663 -0.15514,0 -0.28206,0.10236 -0.28206,0.22745 0,0.1251 -0.10633,0.22745 -0.23627,0.22745 -0.12995,0 -0.66357,0.30279 -1.18583,0.67286 -0.79615,0.56414 -0.93188,0.768 -0.84021,1.26188 0.0717,0.38599 -0.0162,0.68355 -0.25468,0.86317 -0.31166,0.23471 -0.3236,0.36229 -0.0831,0.88727 0.33799,0.73762 0.80297,0.9388 2.9313,1.26833 1.23645,0.19145 1.59527,0.17906 5.19001,-0.17929 z m -18.71916,-0.57163 c -0.48828,-0.44081 -0.94183,-1.01438 -1.0079,-1.27461 -0.10773,-0.42425 -0.0475,-0.45919 0.58293,-0.33808 1.53671,0.29522 1.76307,0.29893 2.60575,0.0427 0.97419,-0.29625 0.93947,-0.63636 -0.0442,-0.43373 -0.90548,0.18651 -2.42448,-0.0954 -3.22881,-0.59911 -0.5502,-0.34462 -0.66618,-0.54175 -0.56142,-0.9543 0.0726,-0.28599 0.17257,-0.39466 0.22214,-0.24152 0.0495,0.15315 0.28061,0.27846 0.51342,0.27846 0.23281,0 0.4233,0.0893 0.4233,0.19851 0,0.1092 0.96898,0.21408 2.1533,0.2331 1.84857,0.0297 2.20518,0.0982 2.51997,0.48385 0.20166,0.2471 0.60763,0.44928 0.90215,0.44928 0.63013,0 2.97327,-0.75008 4.30525,-1.37818 0.51491,-0.24281 0.98165,-0.44147 1.03721,-0.44147 0.16884,0 2.80707,-1.62637 3.2767,-2.01996 0.60053,-0.50331 2.84197,-2.80435 3.26661,-3.35346 0.73945,-0.9562 0.73566,-1.03522 -0.0455,-0.9476 -0.81328,0.0911 -2.39779,0.81077 -2.39779,1.0889 0,0.0962 -0.18238,0.22414 -0.4053,0.28417 -0.60641,0.16333 -0.34225,-0.89692 0.43758,-1.75633 0.58682,-0.64672 0.72626,-0.68899 2.3206,-0.70327 1.69471,-0.0152 1.69663,-0.016 2.09583,-0.78252 0.41574,-0.79839 0.37281,-1.18833 -0.0796,-0.72245 -0.40827,0.42049 -0.72005,0.3263 -1.55603,-0.47007 -0.57588,-0.54858 -0.92516,-1.20853 -1.3543,-2.55889 -0.67947,-2.13802 -0.79365,-2.77665 -0.94804,-5.30266 -0.13811,-2.25993 0.0568,-2.52607 1.8589,-2.53736 1.88146,-0.0118 2.79481,0.49812 3.48147,1.94358 0.3223,0.67847 0.63984,1.23358 0.70564,1.23358 0.35343,0 -0.46441,-4.06941 -1.06219,-5.28527 -0.1068,-0.21724 -0.19418,-0.5499 -0.19418,-0.73924 0,-0.18935 -0.10521,-0.34427 -0.23389,-0.34427 -0.12863,0 -0.17741,-0.0941 -0.10839,-0.20912 0.069,-0.11502 -0.0245,-0.36359 -0.20782,-0.5524 -0.18331,-0.1888 -0.3333,-0.43822 -0.3333,-0.55426 0,-0.44573 -1.57176,-2.30346 -2.23883,-2.6462 -0.91352,-0.46935 -1.01532,-0.45642 -1.19688,0.15208 -0.41821,1.40155 -2.51707,2.21771 -5.70312,2.21771 h -2.27588 l 0.13174,0.83474 c 0.12604,0.79864 0.17394,0.83824 1.10727,0.91534 1.93363,0.1597 4.00466,2.05136 4.80767,4.39124 0.6907,2.01263 0.70744,4.72163 0.0381,6.15547 -0.55936,1.19816 -2.34866,3.01207 -3.34646,3.39251 -0.39036,0.14884 -0.89504,0.3726 -1.12152,0.49727 -0.59882,0.32965 -4.63439,0.28558 -5.25664,-0.0574 -0.28348,-0.15625 -0.5413,-0.26472 -0.57294,-0.24105 -0.0316,0.0236 -0.35975,-0.11792 -0.72915,-0.31465 -0.9186,-0.48924 -2.14745,-1.87265 -2.46382,-2.77373 -0.14378,-0.4095 -0.34084,-0.74455 -0.4379,-0.74455 -0.0971,0 -0.17649,-0.26262 -0.17649,-0.58359 0,-0.32099 -0.0993,-0.77472 -0.22068,-1.0083 -0.2923,-0.56248 0.14227,-3.8188 0.56817,-4.25744 0.17327,-0.17847 0.31506,-0.40214 0.31506,-0.49704 0,-0.21173 2.20571,-2.52858 2.21553,-2.32719 0.004,0.0792 0.15295,-0.0548 0.33128,-0.29759 0.17834,-0.24283 0.32425,-0.36842 0.32425,-0.27908 0,0.0893 0.22361,0.0166 0.49693,-0.16165 0.50494,-0.32935 1.63055,-0.65015 2.76843,-0.78903 0.19329,-0.0236 0.26291,-0.3431 0.2182,-1.00133 -0.0361,-0.53167 -0.13902,-0.9411 -0.22866,-0.90982 -0.0897,0.0313 -1.0136,0.0568 -2.05326,0.0568 -1.03963,0 -1.84445,0.0768 -1.78848,0.17058 0.13619,0.22828 -6.33833,0.26909 -6.48353,0.0409 -0.0625,-0.0982 -0.509678,-0.22749 -0.993828,-0.28738 -0.48414,-0.0599 -1.15356,-0.2183 -1.48759,-0.35203 -0.334039,-0.13374 -0.608863,-0.16893 -0.610722,-0.0782 -0.0019,0.0907 -0.0764,0.0505 -0.165642,-0.0894 -0.173937,-0.27266 -1.985154,-1.22412 -2.330267,-1.22412 -0.206453,0 -1.190378,0.83993 -2.943341,2.51259 -0.503357,0.48031 -1.229005,1.43818 -1.612564,2.12861 -0.656621,1.18198 -0.681594,1.30954 -0.427417,2.18326 0.205852,0.70764 0.352738,0.89191 0.618727,0.77617 1.19272,-0.519 2.76568,-0.98939 4.142948,-1.23893 2.893697,-0.52431 6.459406,0.2457 6.920376,1.49445 0.71322,1.932 -1.54076,6.84003 -4.121986,8.97563 -0.529218,0.43787 -1.086137,0.89905 -1.2376,1.02487 -0.628544,0.52213 -2.329046,1.2694 -3.254962,1.43036 -0.693471,0.12056 -1.014757,0.2946 -1.067826,0.57841 -0.08234,0.44033 0.155494,0.43271 3.128316,-0.10032 0.709176,-0.12714 1.553934,-0.17756 1.877231,-0.11203 0.323296,0.0655 1.035033,0.14255 1.581639,0.17114 0.76223,0.0399 1.13866,0.20391 1.615308,0.70378 0.56585,0.59344 0.717,1.13145 0.30996,1.10328 -0.089,-0.006 -0.721988,-0.17894 -1.406698,-0.38394 -0.945591,-0.28311 -1.728483,-0.33967 -3.255899,-0.23519 -3.400897,0.23261 -3.832741,0.33768 -3.986814,0.96992 -0.07467,0.30637 -0.06766,0.67049 0.01559,0.80918 0.09151,0.15248 0.05052,0.18799 -0.103669,0.0899 -0.166882,-0.10625 -0.254978,0.0351 -0.254978,0.40908 0,0.31424 -0.0913,0.80647 -0.202885,1.09384 -0.437885,1.12768 -0.504953,1.71321 -0.183603,1.60289 0.0911,-0.0313 0.165643,0.0232 0.165643,0.12094 0,0.0978 0.472066,0.31972 1.049037,0.49316 0.576973,0.17346 1.198117,0.38857 1.380318,0.47804 0.937397,0.4603 1.525856,0.64867 2.429361,0.77765 5.051687,0.72118 4.977037,0.696 5.310367,1.79103 0.40219,1.32131 0.6526,1.52689 0.6526,0.53577 0,-0.93986 0.4351,-1.13723 0.9261,-0.42011 0.27507,0.40176 1.83932,1.36689 2.24979,1.38811 0.10692,0.005 -0.20509,-0.3506 -0.69337,-0.7914 z m 4.98861,-9.40749 c -0.80884,-0.40464 -1.06575,-0.93249 -0.45911,-0.94335 0.35637,-0.006 0.35484,-0.0259 -0.0197,-0.25009 -0.2234,-0.13375 -0.64276,-0.1966 -0.93193,-0.13967 -0.28918,0.057 -0.477,0.0222 -0.41738,-0.0771 0.0596,-0.0993 -0.0676,-0.2829 -0.28275,-0.40789 -0.30196,-0.17545 -0.33146,-0.28936 -0.12941,-0.49961 0.20004,-0.20816 0.49637,-0.2115 1.25727,-0.0141 1.39443,0.36162 4.06078,0.32146 5.34749,-0.0806 1.36642,-0.42691 1.55838,-0.42588 1.72054,0.01 0.0759,0.20379 0.0385,0.29383 -0.0884,0.21303 -0.12094,-0.077 -0.27717,0.0138 -0.34719,0.20175 -0.0701,0.18793 -0.41717,0.40727 -0.77143,0.4874 -0.35425,0.0802 -0.6441,0.23671 -0.6441,0.34795 0,0.11123 0.14908,0.14332 0.33128,0.0713 0.50994,-0.20154 0.39882,0.44724 -0.13545,0.79087 -1.01293,0.65151 -3.396,0.80792 -4.42979,0.29075 z m 2.30152,-0.87351 c -0.39477,-0.0504 -1.04076,-0.0504 -1.43553,0 -0.39478,0.0505 -0.0718,0.0917 0.71777,0.0917 0.78954,0 1.11254,-0.0413 0.71776,-0.0917 z m 1.7116,-0.29038 c 0,-0.12509 -0.0994,-0.22745 -0.22085,-0.22745 -0.12148,0 -0.22086,0.10237 -0.22086,0.22745 0,0.12511 0.0994,0.22747 0.22086,0.22747 0.12147,0 0.22085,-0.10237 0.22085,-0.22747 z m -36.007211,10.47519 c 0.170409,-0.2435 0.384248,-0.39536 0.475197,-0.33748 0.09095,0.0579 0.227785,0.001 0.30408,-0.1259 0.0763,-0.12715 0.381313,-0.23116 0.677814,-0.23116 0.688372,0 0.677833,-0.12351 -0.06825,-0.79983 -0.619507,-0.56157 -2.263722,-0.80668 -2.263722,-0.33746 0,0.1251 0.341974,0.22745 0.759943,0.22745 0.683829,0 1.368445,0.41413 0.799048,0.48335 -0.595942,0.0725 -1.412677,0.45157 -1.601571,0.74345 -0.150843,0.23307 0.180294,0.82032 0.46257,0.82032 0.07978,0 0.284477,-0.19923 0.454888,-0.44274 z m -9.156783,-0.34889 c 0.773713,-0.0485 1.803019,-0.29607 2.429359,-0.58435 0.242935,-0.11181 0.590775,-0.2318 0.772978,-0.26663 0.543986,-0.10398 2.109863,-1.24619 3.130459,-2.28346 1.413522,-1.43663 1.863476,-2.23016 1.610797,-2.84077 -0.0906,-0.21892 -0.1873,-0.55158 -0.214901,-0.73923 -0.02761,-0.18766 -0.210266,-1.02821 -0.405918,-1.86789 -0.602406,-2.58538 -0.851342,-7.20381 -0.496993,-9.22062 0.114568,-0.65209 0.09166,-0.96669 -0.07042,-0.96669 -0.132146,0 -0.240263,0.11052 -0.240263,0.24558 0,0.13509 -0.447223,1.21813 -0.993829,2.40678 -0.546606,1.18864 -0.993828,2.26083 -0.993828,2.38263 0,0.23675 -1.494172,2.51101 -2.146899,3.26776 -0.455566,0.52817 -2.737937,1.79272 -3.705649,2.0531 -0.364403,0.0981 -0.761934,0.2046 -0.883402,0.23676 -0.268241,0.071 -2.975669,0.48955 -4.196166,0.64866 -1.073624,0.13998 -2.094086,0.35113 -2.539785,0.52554 -0.473083,0.18514 -0.667849,0.2436 -1.633476,0.49044 -0.473276,0.12099 -0.943821,0.35531 -1.04566,0.52074 -0.101838,0.16542 -0.186684,0.22137 -0.188543,0.12433 -0.01109,-0.57886 -2.874442,1.68945 -2.874442,2.27711 0,0.82343 2.27464,2.43355 3.975315,2.81395 0.425138,0.0951 1.170509,0.29267 1.65638,0.43908 0.485873,0.14639 1.708858,0.29538 2.717747,0.33109 1.008886,0.0357 1.903332,0.1376 1.987658,0.22644 0.08432,0.0889 0.948377,0.085 1.920121,-0.009 0.971743,-0.0936 2.064955,-0.18887 2.429359,-0.2117 z m 74.687084,-0.0782 c 0.22121,-0.11636 0.79973,-0.33599 1.2856,-0.48806 1.29734,-0.40603 2.09809,-0.77706 2.09809,-0.97217 0,-0.0946 0.18219,-0.17193 0.40489,-0.17193 0.2227,0 0.79227,-0.34485 1.2657,-0.76635 0.7554,-0.67252 0.82378,-0.81227 0.5585,-1.14148 -0.46252,-0.57397 -4.02376,-1.95893 -5.03714,-1.95893 -0.2371,0 -0.50294,-0.074 -0.59075,-0.16443 -0.0879,-0.0904 -0.47707,-0.18072 -0.86501,-0.20063 -0.38794,-0.02 -1.40102,-0.21553 -2.25129,-0.43468 -0.85028,-0.21916 -1.69679,-0.41519 -1.88112,-0.43563 -0.18434,-0.0204 -0.44333,-0.10604 -0.57552,-0.19017 -0.54223,-0.34513 -1.43027,-0.61481 -1.29784,-0.39411 0.25296,0.42154 -0.92643,-0.17835 -1.46572,-0.74552 -0.82761,-0.87041 -1.3576,-1.73891 -2.25171,-3.68988 -0.45866,-1.00081 -0.92792,-1.99739 -1.04281,-2.21462 -0.11489,-0.21722 -0.20889,-0.59501 -0.20889,-0.83953 0,-0.24452 -0.0994,-0.50784 -0.22085,-0.58516 -0.12147,-0.0773 -0.22086,-0.39042 -0.22086,-0.6958 0,-0.30537 -0.0994,-0.55521 -0.22085,-0.55521 -0.12146,0 -0.22236,-0.17912 -0.2242,-0.39805 -0.002,-0.21893 -0.13746,-0.85865 -0.30138,-1.42161 l -0.29803,-1.02354 -0.0109,2.10969 c -0.01,1.92342 -0.27485,3.75859 -0.71331,4.94146 -0.0927,0.25019 -0.29063,0.87552 -0.43975,1.38959 -0.14911,0.51407 -0.63785,1.71371 -1.08608,2.66586 l -0.81497,1.73117 0.3968,0.84016 c 0.44108,0.93394 2.7197,3.26758 3.19054,3.26758 0.16571,0 0.30129,0.0871 0.30129,0.19343 0,0.49685 4.90738,2.48014 5.79335,2.34132 0.21037,-0.033 0.55821,0.0536 0.77298,0.19227 0.45961,0.29686 5.32258,0.14565 5.95125,-0.18504 z m -66.736456,-0.94978 c 0.07507,-0.12511 -0.01259,-0.22746 -0.194783,-0.22746 -0.182202,0 -0.392697,0.10236 -0.467768,0.22746 -0.07507,0.1251 0.01259,0.22745 0.194784,0.22745 0.182201,0 0.392697,-0.10236 0.467767,-0.22745 z m 17.447214,-10.4265 c 0.121469,-0.0756 0.369798,-0.16059 0.551842,-0.18889 0.441085,-0.0685 1.104543,-0.93408 1.104543,-1.44096 0,-0.22311 -0.288333,-0.72355 -0.640739,-1.11208 -0.532211,-0.58678 -0.808178,-0.70643 -1.629341,-0.70643 -1.355639,0 -1.567414,0.32405 -1.371177,2.09814 0.08685,0.7851 0.205747,1.51019 0.264224,1.61134 0.105649,0.18275 1.29825,0.002 1.720648,-0.26112 z m 29.832332,-1.91302 c 1.07917,-1.2892 -0.18498,-2.93805 -1.47607,-1.92528 -0.66987,0.52546 -0.69188,1.18377 -0.0613,1.83323 0.71548,0.73689 0.98411,0.75297 1.53736,0.092 z m -1.73944,-18.43217 c -0.33974,-0.27697 -1.87148,-1.75322 -3.40387,-3.28051 -2.59323,-2.58464 -3.15606,-2.98673 -3.15606,-2.25473 0,0.15771 -0.22362,0.49534 -0.49692,0.7503 -0.2733,0.25496 -0.65635,0.66659 -0.85122,0.91473 -0.19487,0.24814 -0.5924,0.62384 -0.8834,0.83488 -0.62248,0.45144 -0.44414,0.63354 1.07201,1.09459 0.51627,0.157 0.93867,0.36545 0.93867,0.46325 0,0.0978 0.34198,0.1778 0.75995,0.1778 0.41796,0 0.82137,0.10237 0.89644,0.22745 0.075,0.1251 0.55301,0.23197 1.06207,0.2375 0.9697,0.0108 2.88947,0.45831 3.1602,0.73713 0.0869,0.0894 0.34013,0.16266 0.56283,0.16266 0.22269,0 0.40489,0.10236 0.40489,0.22745 0,0.12511 0.12422,0.22377 0.27607,0.21928 0.15183,-0.004 -0.002,-0.2348 -0.34166,-0.51178 z m -19.98915,-22.41445 c 0.43181,-0.6227 3.00665,-0.56801 3.52973,0.075 l 0.37008,0.45491 0.15964,-0.45491 c 0.33303,-0.94896 2.03645,-2.22607 3.04242,-2.281 0.68747,-0.0375 0.69485,-0.0506 0.62757,-1.11379 -0.0375,-0.59171 0.0283,-1.19584 0.14611,-1.34254 0.11778,-0.14671 0.24779,-0.57379 0.28891,-0.94909 0.0563,-0.51411 0.19249,-0.6885 0.55223,-0.70722 0.26262,-0.0137 0.66015,-0.0981 0.88342,-0.18749 0.38457,-0.15409 0.38147,-0.18319 -0.0588,-0.55331 -0.25554,-0.21488 -0.58693,-0.77235 -0.73641,-1.23884 -0.33498,-1.04537 -0.12066,-2.65837 0.35322,-2.65837 0.68405,0 0.19441,-0.79483 -0.53432,-0.86737 -0.39378,-0.0392 -0.71596,-0.17319 -0.71596,-0.29775 0,-0.12456 -0.0982,-0.16393 -0.21832,-0.0875 -0.12229,0.0779 -0.16384,-0.008 -0.0944,-0.19351 0.28354,-0.761 -2.01001,-3.7932 -2.58994,-3.42406 -0.15012,0.0956 -0.19836,0.0654 -0.1157,-0.0723 0.27768,-0.46274 -1.97207,-1.03618 -3.89457,-0.99271 -1.90492,0.043 -3.259718,0.58566 -4.688508,1.87768 -0.900374,0.81417 -2.091266,2.50686 -2.091266,2.97242 0,0.2248 -0.230312,0.28542 -0.828187,0.21801 l -0.828192,-0.0934 0.679428,0.69609 c 0.668523,0.6849 1.197803,1.99936 1.197803,2.97469 0,0.9003 -0.626065,1.81583 -1.383097,2.02257 -0.614045,0.16769 -0.652327,0.21639 -0.271141,0.34493 0.559518,0.18867 1.551825,2.30327 1.467836,3.12793 -0.08336,0.81842 0.215651,0.96992 1.271368,0.64416 0.781418,-0.24112 0.983798,-0.21234 1.925428,0.27379 0.72911,0.37641 1.181108,0.80516 1.471918,1.39619 0.47184,0.9589 0.6654,1.03707 1.08165,0.4368 z m 1.40654,-2.94367 c -0.0415,-0.0427 -0.31001,-0.10528 -0.5967,-0.13889 -0.75514,-0.0887 -2.17763,-0.65607 -2.17763,-0.86866 0,-0.1 -0.10025,-0.18174 -0.22277,-0.18174 -0.346038,0 -1.544038,-1.17631 -1.544038,-1.51607 0,-0.16698 -0.0873,-0.3036 -0.19406,-0.3036 -0.22073,0 -0.638585,-0.97303 -0.781427,-1.81964 -0.05278,-0.31276 -0.11591,-0.56865 -0.140319,-0.56865 -0.02442,0 -0.0735,-0.48619 -0.109106,-1.08042 -0.03562,-0.59423 0.02666,-1.08042 0.138391,-1.08042 0.111717,0 0.203117,-0.28659 0.203117,-0.63687 0,-0.35029 0.119259,-0.75971 0.265025,-0.90983 0.145759,-0.15012 0.192899,-0.27294 0.104749,-0.27294 -0.264406,0 0.53082,-1.41745 1.15712,-2.06247 0.32098,-0.33059 0.953498,-0.73883 1.405588,-0.90719 0.45209,-0.16837 0.82198,-0.38163 0.82198,-0.4739 0,-0.29911 3.18299,-0.12263 3.49621,0.19386 0.16162,0.16331 0.37483,0.24541 0.47378,0.18243 0.099,-0.063 0.24234,0.0531 0.31866,0.25791 0.0763,0.20485 0.19502,0.31449 0.2638,0.24367 0.3755,-0.38673 1.70532,1.71711 2.4125,3.81669 0.2486,0.73807 0.31874,3.29813 0.0904,3.29813 -0.11492,0 -0.20894,0.30706 -0.20894,0.68237 0,0.37529 -0.0809,0.68237 -0.17963,0.68237 -0.0988,0 -0.31611,0.35824 -0.48292,0.79609 -0.16681,0.43785 -0.37743,0.7961 -0.46805,0.7961 -0.0906,0 -0.22782,0.20471 -0.30493,0.45491 -0.0772,0.25021 -0.28257,0.45491 -0.45659,0.45491 -0.17401,0 -0.31639,0.1084 -0.31639,0.24088 0,0.13249 -0.0994,0.17763 -0.22085,0.10032 -0.12147,-0.0773 -0.22085,-0.0322 -0.22085,0.10032 0,0.13248 -0.23189,0.24088 -0.51531,0.24088 -0.28344,0 -0.5823,0.0689 -0.66416,0.15328 -0.15611,0.16078 -1.21655,0.26015 -1.34662,0.12619 z"
         style="fill:#000000;stroke-width:0.22412936" />
    </g>
  </g>
</svg>
