<?xml version="1.0" encoding="UTF-8" standalone="no"?>
<!-- Created with Inkscape (http://www.inkscape.org/) -->

<svg
   xmlns:dc="http://purl.org/dc/elements/1.1/"
   xmlns:cc="http://creativecommons.org/ns#"
   xmlns:rdf="http://www.w3.org/1999/02/22-rdf-syntax-ns#"
   xmlns:svg="http://www.w3.org/2000/svg"
   xmlns="http://www.w3.org/2000/svg"
   xmlns:sodipodi="http://sodipodi.sourceforge.net/DTD/sodipodi-0.dtd"
   xmlns:inkscape="http://www.inkscape.org/namespaces/inkscape"
   width="64.301178mm"
   height="51.183441mm"
   viewBox="0 0 64.301178 51.183441"
   version="1.1"
   id="svg8"
   inkscape:version="0.92.1 r15371"
   sodipodi:docname="pic1.svg">
  <defs
     id="defs2" />
  <sodipodi:namedview
     id="base"
     pagecolor="#ffffff"
     bordercolor="#666666"
     borderopacity="1.0"
     inkscape:pageopacity="0.0"
     inkscape:pageshadow="2"
     inkscape:zoom="1.979899"
     inkscape:cx="241.67447"
     inkscape:cy="73.925014"
     inkscape:document-units="mm"
     inkscape:current-layer="layer1"
     showgrid="false"
     fit-margin-top="0"
     fit-margin-left="0"
     fit-margin-right="0"
     fit-margin-bottom="0"
     inkscape:window-width="1536"
     inkscape:window-height="793"
     inkscape:window-x="-8"
     inkscape:window-y="-8"
     inkscape:window-maximized="1" />
  <metadata
     id="metadata5">
    <rdf:RDF>
      <cc:Work
         rdf:about="">
        <dc:format>image/svg+xml</dc:format>
        <dc:type
           rdf:resource="http://purl.org/dc/dcmitype/StillImage" />
        <dc:title></dc:title>
      </cc:Work>
    </rdf:RDF>
  </metadata>
  <g
     inkscape:label="Layer 1"
     inkscape:groupmode="layer"
     id="layer1"
     transform="translate(-2.066762,-244.90098)">
    <path
       style="fill:#ffe4fc;fill-opacity:1;stroke:none;stroke-width:0.26458332px;stroke-linecap:butt;stroke-linejoin:miter;stroke-opacity:1"
       d="m 3.844587,248.22744 -0.09934,34.82849 4.068092,6.74889 51.49925,6.14211 3.11831,-2.74032 3.1183,-35.71875 c 0,0 -1.55774,-1.03993 -3.49628,-1.98438 l -1.93854,-0.94444 -1.55774,-7.56002 c 0,0 -55.205265,-3.25891 -54.71205,1.22842 z"
       id="path4535"
       inkscape:connector-curvature="0"
       sodipodi:nodetypes="cccccccccc" />
    <path
       style="fill:#be63f9;fill-opacity:1;stroke-width:0.49800825"
       d="M 32.509577,293.8956 C 19.676085,292.44415 8.55901,291.00559 7.804968,290.6988 7.050925,290.39202 6.153931,289.47691 5.811645,288.66525 5.46936,287.85358 4.545477,286.55709 3.758572,285.78416 L 2.327834,284.37885 V 266.5401 c 0,-18.20789 0.09314,-19.18344 1.966423,-20.59615 0.602608,-0.45445 7.191309,-0.60509 26.983952,-0.61696 l 26.18668,-0.0157 1.32474,1.30121 c 1.16896,1.1482 1.32475,1.69196 1.32475,4.62388 v 3.32266 l 2.13482,0.28125 c 2.38885,0.31473 4.40976,2.13659 4.37948,3.94816 -0.01,0.59565 -0.77253,8.84373 -1.6946,18.32907 -1.67339,17.21414 -1.67899,17.24817 -3.02487,18.38528 -1.79687,1.51815 -1.73692,1.52143 -29.399632,-1.60721 z m 28.102512,0.0376 c 0.86887,-1.02833 4.12641,-35.17382 3.47048,-36.37765 -0.32527,-0.59699 -1.06216,-0.89218 -2.22715,-0.89218 h -1.74104 l -0.0159,13.9432 c -0.0116,10.1819 -0.18111,14.15446 -0.62812,14.72632 -1.46886,1.87915 -2.20739,1.93149 -27.253031,1.93149 -24.396268,0 -25.885149,0.10101 -23.327117,1.58264 0.659682,0.38209 45.862478,5.64677 49.529618,5.76862 0.86437,0.0287 1.85092,-0.27839 2.19234,-0.68246 z m -3.29731,-9.41865 c 0.67193,-0.66002 0.78964,-2.46251 0.78964,-12.09236 V 261.10537 H 31.221109 4.337801 v 11.18973 c 0,9.71954 0.109265,11.30833 0.831617,12.09235 0.784649,0.85161 2.258365,0.9026 26.093678,0.9026 22.295523,0 25.354793,-0.0911 26.051683,-0.77561 z m -21.6063,-4.31857 c -0.14011,-0.35865 -0.18955,-2.85733 -0.10985,-5.55261 l 0.14491,-4.90053 9.42172,-0.13429 9.42171,-0.13428 v 5.68689 5.68688 h -9.31186 c -7.25351,0 -9.36818,-0.14414 -9.56663,-0.65208 z m 16.86853,-5.02399 v -3.70172 h -7.53738 -7.53738 v 3.70172 3.70175 h 7.53738 7.53738 z m -45.72675,-4.68886 c 0,-0.94467 0.334995,-0.98713 7.788622,-0.98713 7.453627,0 7.788622,0.0425 7.788622,0.98713 0,0.94468 -0.334995,0.98714 -7.788622,0.98714 -7.453627,0 -7.788622,-0.0425 -7.788622,-0.98714 z m 18.340948,0.49356 c -0.594637,-0.94505 0.32498,-1.48069 2.542114,-1.48069 1.896563,0 2.231557,0.14819 2.231557,0.98713 0,0.83895 -0.334994,0.98714 -2.231557,0.98714 -1.227357,0 -2.371307,-0.22212 -2.542114,-0.49358 z M 6.944692,266.16441 c 0.142392,-0.73154 0.847785,-0.88568 4.608961,-1.00706 4.284453,-0.13827 6.235041,0.36429 5.562498,1.43315 -0.151452,0.24071 -2.539816,0.43764 -5.307475,0.43764 -4.521535,0 -5.015048,-0.0876 -4.863984,-0.86373 z m 12.754294,0.42609 c -0.672543,-1.06886 1.278046,-1.57142 5.562499,-1.43315 3.761177,0.12138 4.46657,0.27552 4.608961,1.00706 0.151064,0.77609 -0.342451,0.86373 -4.863984,0.86373 -2.767659,0 -5.156023,-0.19693 -5.307476,-0.43764 z m 38.303783,-10.79095 0.1496,-3.08478 H 31.245086 4.337801 v 2.87913 c 0,1.58352 0.152726,3.02914 0.339391,3.21248 0.186667,0.18336 12.227624,0.27589 26.757685,0.20566 l 26.418292,-0.12772 z m 0.10168,-6.07862 c 0,-0.28931 -0.23407,-0.95561 -0.52017,-1.48069 -0.50381,-0.92467 -1.32418,-0.95469 -26.093676,-0.95469 -22.578653,0 -25.665978,0.0908 -26.363136,0.7756 -0.434296,0.42659 -0.78963,1.0929 -0.78963,1.48071 0,0.60228 3.919435,0.70508 26.883307,0.70508 18.692765,0 26.883305,-0.16026 26.883305,-0.52601 z"
       id="path4496-7"
       inkscape:connector-curvature="0" />
  </g>
</svg>
