<?xml version="1.0" encoding="UTF-8" standalone="no"?>
<!-- Created with Inkscape (http://www.inkscape.org/) -->

<svg
   xmlns:dc="http://purl.org/dc/elements/1.1/"
   xmlns:cc="http://creativecommons.org/ns#"
   xmlns:rdf="http://www.w3.org/1999/02/22-rdf-syntax-ns#"
   xmlns:svg="http://www.w3.org/2000/svg"
   xmlns="http://www.w3.org/2000/svg"
   xmlns:sodipodi="http://sodipodi.sourceforge.net/DTD/sodipodi-0.dtd"
   xmlns:inkscape="http://www.inkscape.org/namespaces/inkscape"
   width="76.237167mm"
   height="50.39658mm"
   viewBox="0 0 76.237168 50.39658"
   version="1.1"
   id="svg4553"
   inkscape:version="0.92.1 r15371"
   sodipodi:docname="pic2.svg">
  <defs
     id="defs4547">
    <filter
       inkscape:label="Air Spray"
       inkscape:menu="Scatter"
       inkscape:menu-tooltip="Convert to small scattered particles with some thickness"
       width="2"
       height="2"
       y="-0.5"
       x="-0.5"
       style="color-interpolation-filters:sRGB;"
       id="filter5173">
      <feGaussianBlur
         stdDeviation="0.01"
         result="result1"
         id="feGaussianBlur5161" />
      <feBlend
         in2="result1"
         result="fbSourceGraphic"
         mode="multiply"
         id="feBlend5163" />
      <feTurbulence
         baseFrequency="0.8"
         type="fractalNoise"
         seed="0"
         numOctaves="3"
         result="result3"
         id="feTurbulence5165" />
      <feDisplacementMap
         in="fbSourceGraphic"
         xChannelSelector="R"
         yChannelSelector="G"
         scale="50"
         result="result2"
         in2="result3"
         id="feDisplacementMap5167" />
      <feMorphology
         radius="1"
         operator="dilate"
         result="result4"
         id="feMorphology5169" />
      <feBlend
         mode="screen"
         in2="result2"
         id="feBlend5171" />
    </filter>
  </defs>
  <sodipodi:namedview
     id="base"
     pagecolor="#ffffff"
     bordercolor="#666666"
     borderopacity="1.0"
     inkscape:pageopacity="0.0"
     inkscape:pageshadow="2"
     inkscape:zoom="5.6"
     inkscape:cx="68.949095"
     inkscape:cy="120.42094"
     inkscape:document-units="mm"
     inkscape:current-layer="layer1"
     showgrid="false"
     fit-margin-top="0"
     fit-margin-left="0"
     fit-margin-right="0"
     fit-margin-bottom="0"
     inkscape:snap-global="false"
     inkscape:window-width="1536"
     inkscape:window-height="793"
     inkscape:window-x="-8"
     inkscape:window-y="-8"
     inkscape:window-maximized="1" />
  <metadata
     id="metadata4550">
    <rdf:RDF>
      <cc:Work
         rdf:about="">
        <dc:format>image/svg+xml</dc:format>
        <dc:type
           rdf:resource="http://purl.org/dc/dcmitype/StillImage" />
        <dc:title></dc:title>
      </cc:Work>
    </rdf:RDF>
  </metadata>
  <g
     inkscape:label="Layer 1"
     inkscape:groupmode="layer"
     id="layer1"
     transform="translate(-1.0818094,-245.46078)">
    <path
       style="fill:#ffe4fc;fill-opacity:1;stroke:none;stroke-width:0.26458332px;stroke-linecap:butt;stroke-linejoin:miter;stroke-opacity:1"
       d="m 12.908485,245.57728 32.272796,0.56795 -0.400905,30.60236 -35.2795766,-0.13364 -5.6794773,1e-5 c 5.2024681,-2.61836 10.0142909,-3.8906 -0.7903447,-9.84272 6.231606,-7.97175 5.196982,-9.82504 0.8237534,-12.27384 0,0 7.1317012,-0.83153 6.8821902,-3.37427 -0.186534,-1.90096 -3.0032972,-4.44823 -3.9422254,-5.27858 z"
       id="path5175"
       inkscape:connector-curvature="0"
       sodipodi:nodetypes="cccccccscc" />
    <path
       style="fill:#ffe4fc;fill-opacity:1;stroke:none;stroke-width:0.26458332px;stroke-linecap:butt;stroke-linejoin:miter;stroke-opacity:1"
       d="m 44.643565,252.57908 15.969494,0.0945 7.9375,19.0878 8.693451,3.59077 -0.283482,13.98512 -8.126487,-0.37797 -3.685267,-6.70908 -6.614584,-1.88988 -5.858631,3.87425 -26.552827,-0.37797 -6.064786,-3.63453 -6.815373,2.00453 -1.737252,2.40542 -0.801809,1.60362 c 1.488531,-3.69749 9.402952,-9.68994 -0.400904,-9.35444 l 33.943231,-0.4009 z"
       id="path5138"
       inkscape:connector-curvature="0"
       sodipodi:nodetypes="ccccccccccccccccc" />
    <path
       style="fill:#ffe4fc;stroke:none;stroke-width:0.26458332px;stroke-linecap:butt;stroke-linejoin:miter;stroke-opacity:1;fill-opacity:1"
       d="m 26.33878,283.56296 1.737252,5.34539 23.519717,0.53454 1.469983,-6.01356 z"
       id="path5136"
       inkscape:connector-curvature="0" />
    <ellipse
       style="opacity:1;fill:#ffe4fc;fill-opacity:1;stroke:none;stroke-width:0.11900001;stroke-miterlimit:4;stroke-dasharray:none;stroke-opacity:1"
       id="path5119-2"
       cx="60.01474"
       cy="288.77472"
       rx="5.1449385"
       ry="5.0113039" />
    <ellipse
       style="opacity:1;fill:#ffe4fc;fill-opacity:1;stroke:none;stroke-width:0.119;stroke-miterlimit:4;stroke-dasharray:none;stroke-opacity:1"
       id="path5119"
       cx="19.189318"
       cy="289.24243"
       rx="5.1449385"
       ry="5.0113039" />
    <path
       style="fill:#be63f9;fill-opacity:1;stroke-width:0.63342649"
       d="m 16.092431,294.59558 c -5.510788,-3.03297 -3.205262,-11.74317 3.108335,-11.74317 2.09194,0 4.509717,1.44049 5.450783,3.24754 1.476108,2.83446 1.122888,4.86876 -1.25543,7.23039 -2.351249,2.33476 -4.640011,2.73125 -7.303688,1.26524 z m 5.650971,-2.90636 c 0.699232,-0.69432 1.271322,-1.83049 1.271322,-2.52482 0,-1.62569 -2.176779,-3.78719 -3.813958,-3.78719 -1.63718,0 -3.813959,2.1615 -3.813959,3.78719 0,0.69433 0.572092,1.8305 1.271322,2.52482 0.699224,0.69431 1.843413,1.2624 2.542637,1.2624 0.699223,0 1.843412,-0.56809 2.542636,-1.2624 z m 35.031265,2.90636 c -5.510794,-3.03297 -3.205268,-11.74317 3.108329,-11.74317 2.091947,0 4.509724,1.44049 5.45079,3.24754 1.476101,2.83446 1.122881,4.86876 -1.255432,7.23039 -2.351248,2.33476 -4.640011,2.73125 -7.303687,1.26524 z m 5.650972,-2.90636 c 0.699224,-0.69432 1.271322,-1.83049 1.271322,-2.52482 0,-0.6943 -0.572098,-1.83048 -1.271322,-2.52478 -0.699224,-0.69434 -1.843412,-1.26241 -2.542643,-1.26241 -0.699224,0 -1.843413,0.56807 -2.542637,1.26241 -0.699225,0.6943 -1.271322,1.83048 -1.271322,2.52478 0,0.69433 0.572097,1.8305 1.271322,2.52482 0.699224,0.69431 1.843413,1.2624 2.542637,1.2624 0.699231,0 1.843419,-0.56809 2.542643,-1.2624 z M 9.3432871,289.78798 c -0.942554,-1.5144 0.435741,-5.15433 2.8652219,-7.56678 3.837789,-3.81087 8.83188,-4.16997 13.094442,-0.94156 2.04595,1.54957 2.255915,1.57277 14.23893,1.57277 h 12.162362 l 2.291836,-1.73581 c 1.875842,-1.42073 2.944371,-1.73579 5.886917,-1.73579 2.942558,0 4.01108,0.31506 5.886923,1.73579 1.865866,1.41319 2.949512,1.73581 5.830377,1.73581 h 3.538541 v -3.46252 -3.46251 l -3.743622,-1.87654 -3.743633,-1.87651 -3.680495,-9.17859 -3.680494,-9.17856 h -7.18203 -7.182031 l -0.172937,11.83501 -0.172943,11.83501 H 27.464344 c -15.679611,0 -18.1163079,-0.12735 -18.1163079,-0.94682 0,-0.8138 2.3883389,-0.9704 17.0039019,-1.11489 L 43.35584,275.25737 V 261.39312 247.52886 L 28.894581,247.3592 c -12.354749,-0.14493 -14.461265,-0.30755 -14.461265,-1.11646 0,-0.81582 2.154182,-0.94679 15.573665,-0.94679 h 15.573671 l 0.193744,2.99821 0.193744,2.9982 h 7.20484 c 5.939476,0 7.434653,0.19401 8.513395,1.10461 0.719703,0.60752 2.835397,4.93914 4.701543,9.6258 l 3.392988,8.52123 3.969483,2.09622 3.969491,2.09625 -0.178116,7.68737 -0.178121,7.68736 H 72.620042 67.87644 l -0.545873,-2.29198 c -0.300225,-1.26059 -1.402419,-3.10685 -2.449311,-4.1028 -1.56291,-1.48686 -2.457106,-1.81081 -4.99826,-1.81081 -2.541148,0 -3.435344,0.32395 -4.998254,1.81081 -1.046893,0.99595 -2.149085,2.84221 -2.449311,4.1028 l -0.545875,2.29198 H 39.541881 27.194205 l -0.545868,-2.29198 c -0.300233,-1.26059 -1.402419,-3.10685 -2.44931,-4.1028 -1.562911,-1.48686 -2.457107,-1.81081 -4.998261,-1.81081 -2.541155,0 -3.435351,0.32395 -4.998261,1.81081 -1.046892,0.99595 -2.143881,2.82037 -2.437751,4.05427 -0.553452,2.32381 -1.657975,3.24398 -2.4214669,2.01729 z m 40.6189779,-2.88439 c 0.212209,-0.54914 0.385837,-1.11722 0.385837,-1.2624 0,-0.14518 -4.862801,-0.26398 -10.806221,-0.26398 -5.943421,0 -10.806215,0.11876 -10.806215,0.26398 0,0.14518 0.173628,0.71326 0.385836,1.2624 0.579016,1.4983 20.261741,1.4983 20.840763,0 z m 25.176572,-0.26397 c 0,-1.07539 -0.423776,-1.26241 -2.860467,-1.26241 -1.959953,0 -2.860474,0.26494 -2.860474,0.84159 0,1.33557 0.678323,1.68322 3.284249,1.68322 2.012916,0 2.436692,-0.21955 2.436692,-1.2624 z M 1.7080296,277.15218 c -0.6949321,-1.11655 0.6164701,-1.99492 2.6362069,-1.76574 2.5553986,0.28997 2.4172346,2.04372 -0.1807368,2.29413 -1.1034315,0.10635 -2.2083928,-0.13136 -2.4554701,-0.52839 z M 48.71706,271.9256 c -0.175903,-0.45519 -0.238438,-4.07671 -0.138967,-8.04782 l 0.180857,-7.22022 h 4.75283 4.75283 l 2.715563,7.25882 c 1.493562,3.99234 2.581797,7.61386 2.4183,8.04781 -0.433877,1.15157 -14.235501,1.1153 -14.681413,-0.0386 z m 11.584458,-2.61105 c -0.19423,-0.50262 -1.120072,-3.059 -2.05741,-5.68082 l -1.704264,-4.76697 h -2.778041 -2.778041 v 5.68082 5.68081 h 4.835457 c 3.959545,0 4.771483,-0.16554 4.482299,-0.91384 z M 1.6992845,267.03891 c -0.90409346,-1.4526 0.9414716,-1.90331 7.0691386,-1.72641 5.0953069,0.14709 6.3005529,0.36299 6.3005529,1.12869 0,0.76778 -1.222327,0.98069 -6.4646029,1.12611 -4.2724648,0.11848 -6.6139704,-0.0607 -6.9050886,-0.52839 z m 1.2679978,-11.36695 c -0.9579307,-1.5391 1.099794,-1.88349 10.2441167,-1.7145 7.929321,0.14654 9.485495,0.33063 9.485495,1.12211 0,0.79237 -1.573448,0.97519 -9.646223,1.12079 -6.5724503,0.11847 -9.7855273,-0.0498 -10.0833887,-0.5284 z m 2.5533904,-8.81955 c -0.7509227,-1.20648 0.6665639,-1.969 3.2668504,-1.75732 1.6796549,0.13665 2.4674949,0.50316 2.4674949,1.14765 0,1.16844 -5.0522457,1.70559 -5.7343453,0.60967 z"
       id="path5117"
       inkscape:connector-curvature="0" />
  </g>
</svg>
